<svg width="714" height="714" viewBox="0 0 714 714" fill="none" xmlns="http://www.w3.org/2000/svg">
<path d="M713.36 0H0V713.36H713.36V0Z" fill="#F4F4F4"/>
<mask id="mask0_1_7855" style="mask-type:luminance" maskUnits="userSpaceOnUse" x="102" y="275" width="517" height="287">
<path d="M102.53 533.9C102.53 543.38 103.04 552.74 104.05 561.95H616.86C617.87 552.73 618.38 543.37 618.38 533.9C618.38 391.45 502.9 275.97 360.46 275.97C218.02 275.97 102.53 391.46 102.53 533.9Z" fill="white"/>
</mask>
<g mask="url(#mask0_1_7855)">
<path d="M618.38 275.979H102.53V277.139H618.38V275.979Z" fill="#FF80FF"/>
<path d="M618.38 277.14H102.53V278.3H618.38V277.14Z" fill="#FF80FF"/>
<path d="M618.38 278.3H102.53V279.46H618.38V278.3Z" fill="#FF80FF"/>
<path d="M618.38 279.459H102.53V280.619H618.38V279.459Z" fill="#FF80FE"/>
<path d="M618.38 280.63H102.53V281.79H618.38V280.63Z" fill="#FF80FE"/>
<path d="M618.38 281.789H102.53V282.949H618.38V281.789Z" fill="#FF80FE"/>
<path d="M618.38 282.949H102.53V284.109H618.38V282.949Z" fill="#FF80FD"/>
<path d="M618.38 284.109H102.53V285.269H618.38V284.109Z" fill="#FF80FD"/>
<path d="M618.38 285.279H102.53V286.439H618.38V285.279Z" fill="#FF80FD"/>
<path d="M618.38 286.439H102.53V287.599H618.38V286.439Z" fill="#FF80FC"/>
<path d="M618.38 287.6H102.53V288.76H618.38V287.6Z" fill="#FF81FC"/>
<path d="M618.38 288.76H102.53V289.92H618.38V288.76Z" fill="#FF81FC"/>
<path d="M618.38 289.93H102.53V291.09H618.38V289.93Z" fill="#FF81FB"/>
<path d="M618.38 291.09H102.53V292.25H618.38V291.09Z" fill="#FF81FB"/>
<path d="M618.38 292.249H102.53V293.409H618.38V292.249Z" fill="#FF81FA"/>
<path d="M618.38 293.409H102.53V294.569H618.38V293.409Z" fill="#FF81FA"/>
<path d="M618.38 294.579H102.53V295.739H618.38V294.579Z" fill="#FF81F9"/>
<path d="M618.38 295.739H102.53V296.899H618.38V295.739Z" fill="#FF81F9"/>
<path d="M618.38 296.899H102.53V298.059H618.38V296.899Z" fill="#FF81F8"/>
<path d="M618.38 298.06H102.53V299.22H618.38V298.06Z" fill="#FF81F8"/>
<path d="M618.38 299.229H102.53V300.389H618.38V299.229Z" fill="#FF81F7"/>
<path d="M618.38 300.39H102.53V301.55H618.38V300.39Z" fill="#FF82F7"/>
<path d="M618.38 301.55H102.53V302.71H618.38V301.55Z" fill="#FF82F6"/>
<path d="M618.38 302.709H102.53V303.869H618.38V302.709Z" fill="#FF82F5"/>
<path d="M618.38 303.88H102.53V305.04H618.38V303.88Z" fill="#FF82F5"/>
<path d="M618.38 305.039H102.53V306.199H618.38V305.039Z" fill="#FF82F4"/>
<path d="M618.38 306.199H102.53V307.359H618.38V306.199Z" fill="#FF82F4"/>
<path d="M618.38 307.359H102.53V308.519H618.38V307.359Z" fill="#FF82F3"/>
<path d="M618.38 308.529H102.53V309.689H618.38V308.529Z" fill="#FF82F2"/>
<path d="M618.38 309.689H102.53V310.849H618.38V309.689Z" fill="#FF82F2"/>
<path d="M618.38 310.85H102.53V312.01H618.38V310.85Z" fill="#FF83F1"/>
<path d="M618.38 312.01H102.53V313.17H618.38V312.01Z" fill="#FF83F1"/>
<path d="M618.38 313.18H102.53V314.34H618.38V313.18Z" fill="#FF83F0"/>
<path d="M618.38 314.34H102.53V315.5H618.38V314.34Z" fill="#FF83EF"/>
<path d="M618.38 315.499H102.53V316.659H618.38V315.499Z" fill="#FF83EF"/>
<path d="M618.38 316.659H102.53V317.819H618.38V316.659Z" fill="#FF83EE"/>
<path d="M618.38 317.829H102.53V318.989H618.38V317.829Z" fill="#FF83ED"/>
<path d="M618.38 318.989H102.53V320.149H618.38V318.989Z" fill="#FF83ED"/>
<path d="M618.38 320.149H102.53V321.309H618.38V320.149Z" fill="#FF84EC"/>
<path d="M618.38 321.31H102.53V322.47H618.38V321.31Z" fill="#FF84EB"/>
<path d="M618.38 322.479H102.53V323.639H618.38V322.479Z" fill="#FF84EB"/>
<path d="M618.38 323.64H102.53V324.8H618.38V323.64Z" fill="#FF84EA"/>
<path d="M618.38 324.8H102.53V325.96H618.38V324.8Z" fill="#FF84E9"/>
<path d="M618.38 325.959H102.53V327.119H618.38V325.959Z" fill="#FF84E8"/>
<path d="M618.38 327.13H102.53V328.29H618.38V327.13Z" fill="#FF84E8"/>
<path d="M618.38 328.289H102.53V329.449H618.38V328.289Z" fill="#FF84E7"/>
<path d="M618.38 329.449H102.53V330.609H618.38V329.449Z" fill="#FF85E6"/>
<path d="M618.38 330.609H102.53V331.769H618.38V330.609Z" fill="#FF85E5"/>
<path d="M618.38 331.779H102.53V332.939H618.38V331.779Z" fill="#FF85E5"/>
<path d="M618.38 332.939H102.53V334.099H618.38V332.939Z" fill="#FF85E4"/>
<path d="M618.38 334.1H102.53V335.26H618.38V334.1Z" fill="#FF85E3"/>
<path d="M618.38 335.27H102.53V336.43H618.38V335.27Z" fill="#FF85E2"/>
<path d="M618.38 336.43H102.53V337.59H618.38V336.43Z" fill="#FF85E2"/>
<path d="M618.38 337.59H102.53V338.75H618.38V337.59Z" fill="#FF86E1"/>
<path d="M618.38 338.749H102.53V339.909H618.38V338.749Z" fill="#FF86E0"/>
<path d="M618.38 339.92H102.53V341.08H618.38V339.92Z" fill="#FF86DF"/>
<path d="M618.38 341.079H102.53V342.239H618.38V341.079Z" fill="#FF86DF"/>
<path d="M618.38 342.239H102.53V343.399H618.38V342.239Z" fill="#FF86DE"/>
<path d="M618.38 343.399H102.53V344.559H618.38V343.399Z" fill="#FF86DD"/>
<path d="M618.38 344.569H102.53V345.729H618.38V344.569Z" fill="#FF87DC"/>
<path d="M618.38 345.729H102.53V346.889H618.38V345.729Z" fill="#FF87DB"/>
<path d="M618.38 346.89H102.53V348.05H618.38V346.89Z" fill="#FF87DB"/>
<path d="M618.38 348.05H102.53V349.21H618.38V348.05Z" fill="#FF87DA"/>
<path d="M618.38 349.209H102.53V350.369H618.38V349.209Z" fill="#FF87D9"/>
<path d="M618.38 350.38H102.53V351.54H618.38V350.38Z" fill="#FF87D8"/>
<path d="M618.38 351.539H102.53V352.699H618.38V351.539Z" fill="#FF87D7"/>
<path d="M618.38 352.699H102.53V353.859H618.38V352.699Z" fill="#FF88D6"/>
<path d="M618.38 353.859H102.53V355.019H618.38V353.859Z" fill="#FF88D5"/>
<path d="M618.38 355.029H102.53V356.189H618.38V355.029Z" fill="#FF88D5"/>
<path d="M618.38 356.189H102.53V357.349H618.38V356.189Z" fill="#FF88D4"/>
<path d="M618.38 357.35H102.53V358.51H618.38V357.35Z" fill="#FF88D3"/>
<path d="M618.38 358.52H102.53V359.68H618.38V358.52Z" fill="#FF88D2"/>
<path d="M618.38 359.68H102.53V360.84H618.38V359.68Z" fill="#FF89D1"/>
<path d="M618.38 360.84H102.53V362H618.38V360.84Z" fill="#FF89D0"/>
<path d="M618.38 361.999H102.53V363.159H618.38V361.999Z" fill="#FF89CF"/>
<path d="M618.38 363.17H102.53V364.33H618.38V363.17Z" fill="#FF89CF"/>
<path d="M618.38 364.329H102.53V365.489H618.38V364.329Z" fill="#FF89CE"/>
<path d="M618.38 365.489H102.53V366.649H618.38V365.489Z" fill="#FF89CD"/>
<path d="M618.38 366.649H102.53V367.809H618.38V366.649Z" fill="#FF8ACC"/>
<path d="M618.38 367.819H102.53V368.979H618.38V367.819Z" fill="#FF8ACB"/>
<path d="M618.38 368.979H102.53V370.139H618.38V368.979Z" fill="#FF8ACA"/>
<path d="M618.38 370.14H102.53V371.3H618.38V370.14Z" fill="#FF8AC9"/>
<path d="M618.38 371.3H102.53V372.46H618.38V371.3Z" fill="#FF8AC8"/>
<path d="M618.38 372.47H102.53V373.63H618.38V372.47Z" fill="#FF8AC7"/>
<path d="M618.38 373.63H102.53V374.79H618.38V373.63Z" fill="#FF8BC6"/>
<path d="M618.38 374.789H102.53V375.949H618.38V374.789Z" fill="#FF8BC5"/>
<path d="M618.38 375.949H102.53V377.109H618.38V375.949Z" fill="#FF8BC5"/>
<path d="M618.38 377.119H102.53V378.279H618.38V377.119Z" fill="#FF8BC4"/>
<path d="M618.38 378.279H102.53V379.439H618.38V378.279Z" fill="#FF8BC3"/>
<path d="M618.38 379.439H102.53V380.599H618.38V379.439Z" fill="#FF8BC2"/>
<path d="M618.38 380.6H102.53V381.76H618.38V380.6Z" fill="#FF8CC1"/>
<path d="M618.38 381.77H102.53V382.93H618.38V381.77Z" fill="#FF8CC0"/>
<path d="M618.38 382.93H102.53V384.09H618.38V382.93Z" fill="#FF8CBF"/>
<path d="M618.38 384.09H102.53V385.25H618.38V384.09Z" fill="#FF8CBE"/>
<path d="M618.38 385.249H102.53V386.409H618.38V385.249Z" fill="#FF8CBD"/>
<path d="M618.38 386.42H102.53V387.58H618.38V386.42Z" fill="#FF8DBC"/>
<path d="M618.38 387.579H102.53V388.739H618.38V387.579Z" fill="#FF8DBB"/>
<path d="M618.38 388.739H102.53V389.899H618.38V388.739Z" fill="#FF8DBA"/>
<path d="M618.38 389.899H102.53V391.059H618.38V389.899Z" fill="#FF8DB9"/>
<path d="M618.38 391.069H102.53V392.229H618.38V391.069Z" fill="#FF8DB8"/>
<path d="M618.38 392.229H102.53V393.389H618.38V392.229Z" fill="#FF8DB7"/>
<path d="M618.38 393.39H102.53V394.55H618.38V393.39Z" fill="#FF8EB6"/>
<path d="M618.38 394.55H102.53V395.71H618.38V394.55Z" fill="#FF8EB5"/>
<path d="M618.38 395.72H102.53V396.88H618.38V395.72Z" fill="#FF8EB4"/>
<path d="M618.38 396.88H102.53V398.04H618.38V396.88Z" fill="#FF8EB3"/>
<path d="M618.38 398.039H102.53V399.199H618.38V398.039Z" fill="#FF8EB2"/>
<path d="M618.38 399.199H102.53V400.359H618.38V399.199Z" fill="#FF8FB1"/>
<path d="M618.38 400.369H102.53V401.529H618.38V400.369Z" fill="#FF8FB0"/>
<path d="M618.38 401.529H102.53V402.689H618.38V401.529Z" fill="#FF8FAF"/>
<path d="M618.38 402.689H102.53V403.849H618.38V402.689Z" fill="#FF8FAE"/>
<path d="M618.38 403.85H102.53V405.01H618.38V403.85Z" fill="#FF8FAD"/>
<path d="M618.38 405.02H102.53V406.18H618.38V405.02Z" fill="#FF90AC"/>
<path d="M618.38 406.18H102.53V407.34H618.38V406.18Z" fill="#FF90AB"/>
<path d="M618.38 407.34H102.53V408.5H618.38V407.34Z" fill="#FF90AA"/>
<path d="M618.38 408.499H102.53V409.659H618.38V408.499Z" fill="#FF90A9"/>
<path d="M618.38 409.67H102.53V410.83H618.38V409.67Z" fill="#FF90A8"/>
<path d="M618.38 410.829H102.53V411.989H618.38V410.829Z" fill="#FF90A7"/>
<path d="M618.38 411.989H102.53V413.149H618.38V411.989Z" fill="#FF91A6"/>
<path d="M618.38 413.149H102.53V414.309H618.38V413.149Z" fill="#FF91A5"/>
<path d="M618.38 414.319H102.53V415.479H618.38V414.319Z" fill="#FF91A4"/>
<path d="M618.38 415.479H102.53V416.639H618.38V415.479Z" fill="#FF91A3"/>
<path d="M618.38 416.64H102.53V417.8H618.38V416.64Z" fill="#FF91A2"/>
<path d="M618.38 417.8H102.53V418.96H618.38V417.8Z" fill="#FF92A1"/>
<path d="M618.38 418.97H102.53V420.13H618.38V418.97Z" fill="#FF929F"/>
<path d="M618.38 420.13H102.53V421.29H618.38V420.13Z" fill="#FF929E"/>
<path d="M618.38 421.289H102.53V422.449H618.38V421.289Z" fill="#FF929D"/>
<path d="M618.38 422.449H102.53V423.609H618.38V422.449Z" fill="#FF929C"/>
<path d="M618.38 423.619H102.53V424.779H618.38V423.619Z" fill="#FF939B"/>
<path d="M618.38 424.779H102.53V425.939H618.38V424.779Z" fill="#FF939A"/>
<path d="M618.38 425.939H102.53V427.099H618.38V425.939Z" fill="#FF9399"/>
<path d="M618.38 427.1H102.53V428.26H618.38V427.1Z" fill="#FF9398"/>
<path d="M618.38 428.27H102.53V429.43H618.38V428.27Z" fill="#FF9397"/>
<path d="M618.38 429.43H102.53V430.59H618.38V429.43Z" fill="#FF9496"/>
<path d="M618.38 430.59H102.53V431.75H618.38V430.59Z" fill="#FF9495"/>
<path d="M618.38 431.749H102.53V432.909H618.38V431.749Z" fill="#FF9494"/>
<path d="M618.38 432.92H102.53V434.08H618.38V432.92Z" fill="#FF9492"/>
<path d="M618.38 434.079H102.53V435.239H618.38V434.079Z" fill="#FF9591"/>
<path d="M618.38 435.239H102.53V436.399H618.38V435.239Z" fill="#FF9590"/>
<path d="M618.38 436.399H102.53V437.559H618.38V436.399Z" fill="#FF958F"/>
<path d="M618.38 437.569H102.53V438.729H618.38V437.569Z" fill="#FF958E"/>
<path d="M618.38 438.729H102.53V439.889H618.38V438.729Z" fill="#FF958D"/>
<path d="M618.38 439.89H102.53V441.05H618.38V439.89Z" fill="#FF968C"/>
<path d="M618.38 441.05H102.53V442.21H618.38V441.05Z" fill="#FF968B"/>
<path d="M618.38 442.22H102.53V443.38H618.38V442.22Z" fill="#FF9689"/>
<path d="M618.38 443.38H102.53V444.54H618.38V443.38Z" fill="#FF9688"/>
<path d="M618.38 444.539H102.53V445.699H618.38V444.539Z" fill="#FF9687"/>
<path d="M618.38 445.699H102.53V446.859H618.38V445.699Z" fill="#FF9786"/>
<path d="M618.38 446.869H102.53V448.029H618.38V446.869Z" fill="#FF9785"/>
<path d="M618.38 448.029H102.53V449.189H618.38V448.029Z" fill="#FF9784"/>
<path d="M618.38 449.189H102.53V450.349H618.38V449.189Z" fill="#FF9783"/>
<path d="M618.38 450.359H102.53V451.519H618.38V450.359Z" fill="#FF9782"/>
<path d="M618.38 451.52H102.53V452.68H618.38V451.52Z" fill="#FF9880"/>
<path d="M618.38 452.68H102.53V453.84H618.38V452.68Z" fill="#FF987F"/>
<path d="M618.38 453.84H102.53V455H618.38V453.84Z" fill="#FF987E"/>
<path d="M618.38 455.01H102.53V456.17H618.38V455.01Z" fill="#FF987D"/>
<path d="M618.38 456.17H102.53V457.33H618.38V456.17Z" fill="#FF997C"/>
<path d="M618.38 457.329H102.53V458.489H618.38V457.329Z" fill="#FF997B"/>
<path d="M618.38 458.489H102.53V459.649H618.38V458.489Z" fill="#FF9979"/>
<path d="M618.38 459.649H102.53V460.809H618.38V459.649Z" fill="#FF9978"/>
<path d="M618.38 460.819H102.53V461.979H618.38V460.819Z" fill="#FF9977"/>
<path d="M618.38 461.979H102.53V463.139H618.38V461.979Z" fill="#FF9A76"/>
<path d="M618.38 463.14H102.53V464.3H618.38V463.14Z" fill="#FF9A75"/>
<path d="M618.38 464.3H102.53V465.46H618.38V464.3Z" fill="#FF9A74"/>
<path d="M618.38 465.47H102.53V466.63H618.38V465.47Z" fill="#FF9A72"/>
<path d="M618.38 466.63H102.53V467.79H618.38V466.63Z" fill="#FF9B71"/>
<path d="M618.38 467.789H102.53V468.949H618.38V467.789Z" fill="#FF9B70"/>
<path d="M618.38 468.959H102.53V470.119H618.38V468.959Z" fill="#FF9B6F"/>
<path d="M618.38 470.119H102.53V471.279H618.38V470.119Z" fill="#FF9B6E"/>
<path d="M618.38 471.279H102.53V472.439H618.38V471.279Z" fill="#FF9B6C"/>
<path d="M618.38 472.439H102.53V473.599H618.38V472.439Z" fill="#FF9C6B"/>
<path d="M618.38 473.6H102.53V474.76H618.38V473.6Z" fill="#FF9C6A"/>
<path d="M618.38 474.77H102.53V475.93H618.38V474.77Z" fill="#FF9C69"/>
<path d="M618.38 475.93H102.53V477.09H618.38V475.93Z" fill="#FF9C68"/>
<path d="M618.38 477.09H102.53V478.25H618.38V477.09Z" fill="#FF9D66"/>
<path d="M618.38 478.26H102.53V479.42H618.38V478.26Z" fill="#FF9D65"/>
<path d="M618.38 479.42H102.53V480.58H618.38V479.42Z" fill="#FF9D64"/>
<path d="M618.38 480.579H102.53V481.739H618.38V480.579Z" fill="#FF9D63"/>
<path d="M618.38 481.739H102.53V482.899H618.38V481.739Z" fill="#FF9D62"/>
<path d="M618.38 482.909H102.53V484.069H618.38V482.909Z" fill="#FF9E60"/>
<path d="M618.38 484.069H102.53V485.229H618.38V484.069Z" fill="#FF9E5F"/>
<path d="M618.38 485.229H102.53V486.389H618.38V485.229Z" fill="#FF9E5E"/>
<path d="M618.38 486.39H102.53V487.55H618.38V486.39Z" fill="#FF9E5D"/>
<path d="M618.38 487.56H102.53V488.72H618.38V487.56Z" fill="#FF9F5B"/>
<path d="M618.38 488.72H102.53V489.88H618.38V488.72Z" fill="#FF9F5A"/>
<path d="M618.38 489.88H102.53V491.04H618.38V489.88Z" fill="#FF9F59"/>
<path d="M618.38 491.039H102.53V492.199H618.38V491.039Z" fill="#FF9F58"/>
<path d="M618.38 492.209H102.53V493.369H618.38V492.209Z" fill="#FFA056"/>
<path d="M618.38 493.369H102.53V494.529H618.38V493.369Z" fill="#FFA055"/>
<path d="M618.38 494.529H102.53V495.689H618.38V494.529Z" fill="#FFA054"/>
<path d="M618.38 495.689H102.53V496.849H618.38V495.689Z" fill="#FFA053"/>
<path d="M618.38 496.859H102.53V498.019H618.38V496.859Z" fill="#FFA051"/>
<path d="M618.38 498.02H102.53V499.18H618.38V498.02Z" fill="#FFA150"/>
<path d="M618.38 499.18H102.53V500.34H618.38V499.18Z" fill="#FFA14F"/>
<path d="M618.38 500.34H102.53V501.5H618.38V500.34Z" fill="#FFA14E"/>
<path d="M618.38 501.51H102.53V502.67H618.38V501.51Z" fill="#FFA14C"/>
<path d="M618.38 502.67H102.53V503.83H618.38V502.67Z" fill="#FFA24B"/>
<path d="M618.38 503.829H102.53V504.989H618.38V503.829Z" fill="#FFA24A"/>
<path d="M618.38 504.989H102.53V506.149H618.38V504.989Z" fill="#FFA249"/>
<path d="M618.38 506.159H102.53V507.319H618.38V506.159Z" fill="#FFA247"/>
<path d="M618.38 507.319H102.53V508.479H618.38V507.319Z" fill="#FFA346"/>
<path d="M618.38 508.479H102.53V509.639H618.38V508.479Z" fill="#FFA345"/>
<path d="M618.38 509.64H102.53V510.8H618.38V509.64Z" fill="#FFA344"/>
<path d="M618.38 510.81H102.53V511.97H618.38V510.81Z" fill="#FFA342"/>
<path d="M618.38 511.97H102.53V513.13H618.38V511.97Z" fill="#FFA441"/>
<path d="M618.38 513.13H102.53V514.29H618.38V513.13Z" fill="#FFA440"/>
<path d="M618.38 514.289H102.53V515.449H618.38V514.289Z" fill="#FFA43E"/>
<path d="M618.38 515.46H102.53V516.62H618.38V515.46Z" fill="#FFA43D"/>
<path d="M618.38 516.619H102.53V517.779H618.38V516.619Z" fill="#FFA53C"/>
<path d="M618.38 517.779H102.53V518.939H618.38V517.779Z" fill="#FFA53B"/>
<path d="M618.38 518.939H102.53V520.099H618.38V518.939Z" fill="#FFA539"/>
<path d="M618.38 520.109H102.53V521.269H618.38V520.109Z" fill="#FFA538"/>
<path d="M618.38 521.27H102.53V522.43H618.38V521.27Z" fill="#FFA537"/>
<path d="M618.38 522.43H102.53V523.59H618.38V522.43Z" fill="#FFA635"/>
<path d="M618.38 523.59H102.53V524.75H618.38V523.59Z" fill="#FFA634"/>
<path d="M618.38 524.76H102.53V525.92H618.38V524.76Z" fill="#FFA633"/>
<path d="M618.38 525.92H102.53V527.08H618.38V525.92Z" fill="#FFA631"/>
<path d="M618.38 527.079H102.53V528.239H618.38V527.079Z" fill="#FFA730"/>
<path d="M618.38 528.239H102.53V529.399H618.38V528.239Z" fill="#FFA72F"/>
<path d="M618.38 529.409H102.53V530.569H618.38V529.409Z" fill="#FFA72D"/>
<path d="M618.38 530.569H102.53V531.729H618.38V530.569Z" fill="#FFA72C"/>
<path d="M618.38 531.729H102.53V532.89H618.38V531.729Z" fill="#FFA82B"/>
<path d="M618.38 532.89H102.53V534.05H618.38V532.89Z" fill="#FFA829"/>
<path d="M618.38 534.06H102.53V535.22H618.38V534.06Z" fill="#FFA828"/>
<path d="M618.38 535.22H102.53V536.38H618.38V535.22Z" fill="#FFA827"/>
<path d="M618.38 536.38H102.53V537.54H618.38V536.38Z" fill="#FFA925"/>
<path d="M618.38 537.539H102.53V538.699H618.38V537.539Z" fill="#FFA924"/>
<path d="M618.38 538.71H102.53V539.87H618.38V538.71Z" fill="#FFA923"/>
<path d="M618.38 539.869H102.53V541.029H618.38V539.869Z" fill="#FFA921"/>
<path d="M618.38 541.029H102.53V542.189H618.38V541.029Z" fill="#FFAA20"/>
<path d="M618.38 542.189H102.53V543.349H618.38V542.189Z" fill="#FFAA1F"/>
<path d="M618.38 543.359H102.53V544.519H618.38V543.359Z" fill="#FFAA1D"/>
<path d="M618.38 544.52H102.53V545.68H618.38V544.52Z" fill="#FFAA1C"/>
<path d="M618.38 545.68H102.53V546.84H618.38V545.68Z" fill="#FFAB1B"/>
<path d="M618.38 546.85H102.53V548.01H618.38V546.85Z" fill="#FFAB19"/>
<path d="M618.38 548.01H102.53V549.17H618.38V548.01Z" fill="#FFAB18"/>
<path d="M618.38 549.17H102.53V550.33H618.38V549.17Z" fill="#FFAB17"/>
<path d="M618.38 550.329H102.53V551.489H618.38V550.329Z" fill="#FFAC15"/>
<path d="M618.38 551.489H102.53V552.649H618.38V551.489Z" fill="#FFAC14"/>
<path d="M618.38 552.659H102.53V553.819H618.38V552.659Z" fill="#FFAC13"/>
<path d="M618.38 553.819H102.53V554.979H618.38V553.819Z" fill="#FFAC11"/>
<path d="M618.38 554.979H102.53V556.14H618.38V554.979Z" fill="#FFAD10"/>
<path d="M618.38 556.149H102.53V557.309H618.38V556.149Z" fill="#FFAD0E"/>
<path d="M618.38 557.31H102.53V558.47H618.38V557.31Z" fill="#FFAD0D"/>
<path d="M618.38 558.47H102.53V559.63H618.38V558.47Z" fill="#FFAD0C"/>
<path d="M618.38 559.63H102.53V560.79H618.38V559.63Z" fill="#FFAE0A"/>
<path d="M618.38 560.789H102.53V561.949H618.38V560.789Z" fill="#FFAE09"/>
</g>
<path d="M214.87 170.57L210.77 167.86C210.77 167.86 201.75 227.19 205.36 258.66L216.34 221.58L214.87 170.57Z" fill="#E20077"/>
<path d="M204.71 266.14L203.87 258.82C200.28 227.52 209.2 168.22 209.29 167.62L209.64 165.3L216.35 169.74L217.85 221.76L217.78 221.99L204.71 266.13V266.14ZM211.92 170.41C210.46 180.66 204.88 222.37 206.23 250.46L214.84 221.38L213.4 171.39L211.92 170.41Z" fill="#3C1332"/>
<path d="M418.279 142.54L421.199 139.12C421.199 139.12 450.979 189.79 459.209 220.38L435.359 189.94L418.449 143.2" fill="#E20077"/>
<path d="M462.559 227.1L434.019 190.68L433.939 190.45L417.029 143.71L418.869 143.04L417.129 141.56L421.409 136.54L422.479 138.36C422.779 138.87 452.459 189.56 460.639 219.99L462.549 227.1H462.559ZM436.679 189.21L455.389 213.08C446.289 186.44 425.839 150.2 420.959 141.71L419.929 142.92L436.679 189.21Z" fill="#3C1332"/>
<path d="M239.569 336.22H227.979C227.979 336.22 217.909 320.35 214.379 307.54C209.789 307.87 205.369 308.71 205.369 308.71C205.369 308.71 190.289 278.86 198.159 249.04C203.679 248.17 208.229 247.51 208.229 247.51C208.229 247.51 209.869 233.06 217.739 218.97C222.659 217.99 226.689 219.19 226.689 219.19" fill="#E20077"/>
<path d="M239.57 337.72H227.16L226.72 337.02C226.32 336.38 217.09 321.75 213.28 309.13C209.29 309.49 205.69 310.17 205.65 310.18L204.54 310.39L204.03 309.38C203.4 308.14 188.78 278.68 196.7 248.65L196.95 247.7L197.92 247.55C201.8 246.94 205.2 246.43 206.89 246.18C207.45 242.44 209.69 230.29 216.42 218.23L216.76 217.63L217.44 217.49C222.66 216.44 226.93 217.69 227.11 217.74L226.25 220.62C226.25 220.62 222.86 219.65 218.7 220.31C211.37 233.76 209.73 247.53 209.72 247.67L209.59 248.82L208.45 248.99C208.45 248.99 204.43 249.57 199.38 250.37C193.05 275.99 203.82 301.71 206.25 307.04C207.88 306.77 211.02 306.28 214.29 306.05L215.52 305.96L215.85 307.14C218.87 318.08 226.89 331.54 228.84 334.72H239.59V337.72H239.57Z" fill="#3C1332"/>
<path d="M228.8 214.789C228.8 214.789 252.4 199.059 284.85 209.869C317.3 220.689 313.82 316.739 296.65 329.879C283.87 339.659 266.33 349.629 242.75 340.639C242.75 340.639 194.39 280.079 228.8 214.779" fill="#F9A21F"/>
<path d="M260.879 345.67C255.109 345.67 248.899 344.6 242.209 342.05L241.829 341.9L241.569 341.58C241.069 340.95 229.219 325.96 221.439 302.68C214.239 281.14 209.439 248.29 227.469 214.09L227.649 213.75L227.969 213.54C228.959 212.88 252.559 197.53 285.319 208.45C299.989 213.34 306.229 233.25 308.879 249.1C314.359 281.9 308.759 322.51 297.559 331.08C288.129 338.3 276.049 345.67 260.889 345.67M243.669 339.39C266.339 347.85 283.389 338.13 295.729 328.69C306.009 320.82 311.149 280.9 305.919 249.59C302.369 228.34 294.709 214.74 284.369 211.29C255.009 201.5 232.789 214.1 229.939 215.84C212.649 248.94 217.289 280.74 224.259 301.63C231.259 322.62 241.919 337.1 243.679 339.39" fill="#3C1332"/>
<path d="M454.22 303.97L465.06 299.86C465.06 299.86 468.85 281.45 467.62 268.22C472.03 266.9 476.46 266.12 476.46 266.12C476.46 266.12 479.99 232.87 462.06 207.76C456.59 208.9 452.1 209.89 452.1 209.89C452.1 209.89 445.45 196.96 433.1 186.57C428.15 187.39 424.81 189.94 424.81 189.94" fill="#E20077"/>
<path d="M454.749 305.37L453.689 302.56L463.739 298.75C464.439 295.08 467.169 279.66 466.119 268.36L466.009 267.14L467.189 266.79C470.319 265.85 473.439 265.19 475.059 264.87C475.449 259.02 476.389 231.14 461.409 209.44C456.399 210.49 452.439 211.37 452.439 211.37L451.309 211.62L450.779 210.59C450.709 210.47 444.299 198.17 432.679 188.19C428.529 189.05 425.759 191.13 425.729 191.15L423.909 188.76C424.059 188.65 427.609 185.97 432.859 185.1L433.539 184.99L434.069 185.44C444.639 194.33 451.029 204.9 452.889 208.2C454.549 207.84 457.919 207.11 461.759 206.31L462.719 206.11L463.289 206.91C481.339 232.19 478.099 264.92 477.959 266.3L477.839 267.42L476.729 267.62C476.729 267.62 473.079 268.27 469.219 269.34C470.139 282.49 466.689 299.44 466.539 300.18L466.369 300.99L454.759 305.39L454.749 305.37Z" fill="#3C1332"/>
<path d="M421.26 186.6C421.26 186.6 393.62 180.25 367.11 201.86C340.6 223.47 377.89 312.06 398.6 318.27C414.02 322.89 437.14 327.68 452.82 309.24C452.82 309.24 476.59 235.47 421.27 186.6" fill="#F9A21F"/>
<path d="M422.769 323.92C414.009 323.92 405.379 321.87 398.159 319.71C384.649 315.66 365.019 279.68 358.519 247.06C355.379 231.31 354.159 210.48 366.149 200.71C392.919 178.89 420.429 184.88 421.589 185.15L421.959 185.23L422.249 185.48C451.219 211.07 458.379 243.5 459.279 266.19C460.249 290.73 454.489 308.94 454.239 309.7L454.149 309.98L453.959 310.21C445.079 320.65 433.819 323.92 422.779 323.92M411.499 187.26C401.339 187.26 384.399 189.69 368.049 203.02C359.599 209.91 357.259 225.34 361.469 246.46C367.669 277.6 386.619 313.11 399.019 316.82C415.779 321.84 436.849 325.41 451.469 308.49C452.189 306.09 457.179 288.6 456.279 266.19C455.389 244.19 448.459 212.8 420.569 187.98C419.529 187.78 416.249 187.25 411.509 187.25" fill="#3C1332"/>
<path d="M425.099 134.53L423.839 136.02L415.959 145.25L411.859 150.07C411.859 150.07 411.349 149.71 410.459 149.09C409.529 148.45 408.149 147.52 406.489 146.43C402.149 143.55 395.929 139.58 390.729 136.89C381.149 136.81 370.599 137.27 359.669 138.1C359.579 138.1 359.479 138.11 359.389 138.12C344.869 139.23 329.669 140.98 315.139 142.97C315.139 142.97 284.189 147.34 269.789 150.1C269.679 150.12 269.579 150.14 269.479 150.15C258.719 152.22 248.429 154.55 239.209 157.14C234.889 161.11 229.899 166.6 226.469 170.52C225.179 172 224.109 173.24 223.369 174.1C222.669 174.93 222.279 175.41 222.279 175.41L217.049 171.84L207.019 165L205.409 163.9L211.249 154.22L224.789 131.77C224.789 131.77 261.439 120.12 310.429 113.1C359.529 107 397.949 108.61 397.949 108.61L416.939 126.75L425.079 134.52L425.099 134.53Z" fill="#F9A21F"/>
<path d="M222.59 177.44L203.42 164.35L223.82 130.53L224.36 130.36C224.73 130.24 261.69 118.6 310.24 111.64C358.93 105.59 397.66 107.12 398.04 107.14L398.6 107.16L427.16 134.43L412.11 152.1L410.99 151.29C410.99 151.29 410.49 150.93 409.62 150.33C408.7 149.7 407.32 148.77 405.67 147.68C401.46 144.89 395.43 141.03 390.36 138.39C381.45 138.33 371.15 138.74 359.79 139.6H359.73H359.67L359.52 139.62C346.31 140.62 331.46 142.25 315.36 144.46C315.06 144.5 284.28 148.85 270.09 151.58L269.64 150.14L269.93 151.61C269.85 151.63 269.77 151.64 269.7 151.65C258.61 153.79 248.58 156.1 239.98 158.5C235.74 162.43 230.94 167.73 227.62 171.52C226.34 172.99 225.27 174.23 224.54 175.09C223.86 175.89 223.48 176.37 223.47 176.37L222.6 177.44H222.59ZM207.44 163.47L222.01 173.41C222.08 173.32 222.16 173.23 222.24 173.14C222.98 172.27 224.06 171.02 225.35 169.54C228.79 165.61 233.81 160.09 238.2 156.04L238.46 155.8L238.81 155.7C247.57 153.24 257.79 150.88 269.2 148.68L269.63 150.13L269.34 148.66C269.42 148.64 269.51 148.63 269.6 148.62C283.78 145.9 314.63 141.54 314.94 141.49C331.1 139.27 346.02 137.64 359.29 136.63C359.34 136.63 359.48 136.61 359.61 136.6C371.19 135.72 381.67 135.31 390.75 135.39H391.11L391.43 135.56C396.68 138.27 402.98 142.29 407.34 145.18C409 146.28 410.38 147.21 411.32 147.85C411.43 147.92 411.52 147.99 411.62 148.06L423.05 134.65L397.35 110.11C392.43 109.95 355.86 109 310.63 114.61C265.53 121.07 230.5 131.6 225.79 133.05L207.43 163.48L207.44 163.47Z" fill="#3C1332"/>
<g style="mix-blend-mode:darken">
<mask id="mask1_1_7855" style="mask-type:luminance" maskUnits="userSpaceOnUse" x="220" y="128" width="194" height="48">
<path d="M413.03 128.55H220.46V175.68H413.03V128.55Z" fill="white"/>
</mask>
<g mask="url(#mask1_1_7855)">
<path d="M254.11 142.83C288.58 138.15 379.44 117 400.58 137C404.01 140.24 410.69 145.52 413.03 149.62C396.45 143.55 399.47 135.36 381.85 136.55C371.99 137.22 342.56 138.37 332.89 140.44C310.32 145.28 286.34 147.05 263.66 151.32C256.14 152.73 246.37 155.37 239.57 158.96C236.42 160.62 220.08 177.97 220.47 175.42C221.25 170.27 233.56 154.73 235.89 152.14C241.16 146.28 246.35 143.89 254.11 142.83Z" fill="#F8684E"/>
</g>
</g>
<path d="M231.34 319.65C236.78 323.32 244.08 324.56 250.36 322.38L250.55 322.83C248.96 323.53 247.3 324.2 245.55 324.5C240.18 325.57 234.64 324.66 229.72 322.17L231.34 319.64" fill="#3C1332"/>
<path d="M217.239 240.32C222.459 234.96 230.149 231.43 237.619 233.29L237.529 233.77C235.759 233.62 233.979 233.55 232.269 233.95C227.219 234.92 222.669 238.25 219.569 242.22L217.239 240.33" fill="#3C1332"/>
<path d="M458.229 286.299C453.299 291.629 446.199 294.879 438.939 294.389V293.899C440.649 293.749 442.349 293.549 443.959 293.009C448.659 291.609 452.999 288.399 455.839 284.479L458.229 286.289" fill="#3C1332"/>
<path d="M438.329 208.03C432.189 204.44 424.009 202.62 417.459 206.28L417.199 205.87C418.799 204.81 420.539 203.88 422.449 203.39C428.249 201.88 434.349 203.01 439.789 205.41L438.329 208.03Z" fill="#3C1332"/>
<g style="mix-blend-mode:darken">
<mask id="mask2_1_7855" style="mask-type:luminance" maskUnits="userSpaceOnUse" x="197" y="279" width="80" height="66">
<path d="M276.679 279.8H197.029V344.23H276.679V279.8Z" fill="white"/>
</mask>
<g mask="url(#mask2_1_7855)">
<path d="M218.329 280.24C217.739 279.54 217.579 281.94 217.719 282.85C217.859 283.76 217.869 290.29 218.399 291.04C233.739 313.03 258.809 310.39 269.959 301.37C265.919 308.83 266.419 312 269.909 319.73C272.949 326.46 272.719 334.96 276.679 341.2C269.729 342.03 268.259 343.33 261.309 344.16C257.279 344.64 251.419 342.66 247.459 341.77C243.499 340.88 239.669 338.33 238.379 334.48C234.179 336.33 229.609 337.96 226.499 334.58C223.389 331.2 219.499 323.33 218.259 318.91C217.419 315.89 216.599 311.91 214.899 309.28C213.189 306.65 211.189 307.8 208.059 307.93C206.119 308.01 205.099 306.32 203.309 305.56C201.489 304.79 200.749 302.67 200.199 300.77C198.609 295.28 194.459 288.25 199.299 283.74C201.219 281.95 216.949 278.6 218.329 280.24Z" fill="#F8684E"/>
</g>
</g>
<g style="mix-blend-mode:darken">
<mask id="mask3_1_7855" style="mask-type:luminance" maskUnits="userSpaceOnUse" x="416" y="243" width="62" height="76">
<path d="M477.12 243.02H416.47V318.4H477.12V243.02Z" fill="white"/>
</mask>
<g mask="url(#mask3_1_7855)">
<path d="M476.43 258.07C476.19 252.36 477.59 247.58 476.81 243.83C476.29 241.32 457.03 245.26 455.46 247.27C455.85 246.92 453.97 245.84 454.11 246.67C454.27 247.57 456.33 253.77 456.07 254.65C448.53 280.38 429.89 285.4 416.46 280.4C418.41 285.73 418.49 289.74 417.32 296.63C422.06 297.01 423.18 298.69 429.79 301.21C435.5 303.68 440.32 312.14 439.05 318.41C442.09 317.28 445.25 315.8 447.39 314.5C450.86 312.39 454.53 306.6 454.54 302.54C459.12 302.96 463.4 302.89 465.28 298.69C467.16 294.5 467.83 285.68 467.58 281.09C467.41 277.96 466.82 271.27 467.6 268.24C468.38 265.21 468.24 268.24 471.25 267.37C473.11 266.83 474.99 267.43 476.44 266.14C477.91 264.83 476.5 260.05 476.42 258.08" fill="#F8684E"/>
</g>
</g>
<g style="mix-blend-mode:darken">
<mask id="mask4_1_7855" style="mask-type:luminance" maskUnits="userSpaceOnUse" x="220" y="321" width="54" height="23">
<path d="M273.999 321.43H220.119V343.29H273.999V321.43Z" fill="white"/>
</mask>
<g mask="url(#mask4_1_7855)">
<path d="M231.119 322.4C237.449 330.02 248.559 332.57 258.409 333.65C261.569 334 265.949 333.79 268.979 332.84C271.889 331.94 272.299 331.2 272.829 331.11C274.509 330.82 272.679 335.7 273.219 337.31C273.759 338.89 274.019 340.57 273.999 342.24C268.579 342.55 263.159 342.86 257.739 343.16C252.489 343.46 246.489 343.48 242.899 339.63C241.009 337.6 239.249 334.36 236.549 335.01C235.019 335.37 234.089 336.94 232.679 337.62C228.169 339.81 223.159 328.33 221.209 325.12C217.279 318.65 224.939 322.67 229.979 322.53C230.759 321.74 231.319 322.62 231.129 322.39" fill="#DE2D4A"/>
</g>
</g>
<g style="mix-blend-mode:darken">
<mask id="mask5_1_7855" style="mask-type:luminance" maskUnits="userSpaceOnUse" x="438" y="294" width="29" height="25">
<path d="M466.71 294.04H438.39V318.95H466.71V294.04Z" fill="white"/>
</mask>
<g mask="url(#mask5_1_7855)">
<path d="M453.05 300.59C453.22 300.13 453.4 299.67 453.57 299.2C457.54 298.31 461.35 296.68 464.73 294.41C465.09 294.17 465.53 293.92 465.92 294.09C466.23 294.23 466.36 294.59 466.45 294.91C467.12 297.34 466.5 300.4 464.24 301.52C462.11 302.58 459.44 301.54 457.23 302.42C453.92 303.73 453.53 308.21 451.49 311.13C448.91 314.81 443.8 315.77 440.62 318.94C441.47 318.09 439.89 312.98 439.59 312.01C438.66 309.01 437.12 308.4 440.27 307.25C444.99 305.53 449.19 303.98 453.05 300.58" fill="#DE314D"/>
</g>
</g>
<g style="mix-blend-mode:darken">
<mask id="mask6_1_7855" style="mask-type:luminance" maskUnits="userSpaceOnUse" x="211" y="206" width="47" height="25">
<path d="M257.509 206.25H211.819V230.9H257.509V206.25Z" fill="white"/>
</mask>
<g mask="url(#mask6_1_7855)">
<path d="M222.939 228.68C222.399 225.94 225.169 223.79 227.619 222.44C236.779 217.4 247.339 213.21 257.509 215.67C254.379 212.29 250.999 209.14 247.419 206.26C243.589 209.01 239.169 210.93 234.539 211.83C232.329 212.26 229.859 212.59 228.439 214.33C227.189 215.85 226.819 218.36 224.919 218.86C223.019 219.36 220.809 217.35 219.209 218.48C218.809 218.76 218.549 219.19 218.299 219.61C216.219 223.12 213.009 227.04 211.829 230.9C212.749 230.55 222.589 226.92 222.949 228.68" fill="#DE2D4A"/>
</g>
</g>
<g style="mix-blend-mode:darken">
<mask id="mask7_1_7855" style="mask-type:luminance" maskUnits="userSpaceOnUse" x="385" y="185" width="58" height="16">
<path d="M442.35 185.31H385.71V200.75H442.35V185.31Z" fill="white"/>
</mask>
<g mask="url(#mask7_1_7855)">
<path d="M387.16 197.419C386.68 197.559 386.19 197.689 385.71 197.829C391.64 196.159 397.64 194.549 403.78 194.099C409.93 193.649 415.61 193.199 421.54 194.849C426.51 196.229 426.73 196.519 430.27 197.799C431.94 198.399 432.08 200.169 433.81 199.809C436.66 199.219 439.51 198.629 442.35 198.039C441.8 194.849 438.05 193.379 436.3 190.649C435.66 189.649 435.27 188.459 434.4 187.669C432.21 185.679 428.81 187.259 426.01 188.209C425.49 188.389 424.93 188.539 424.39 188.429C423.34 188.219 422.73 187.149 421.91 186.459C420.4 185.189 418.23 185.239 416.26 185.359C409.2 185.779 402.14 186.199 395.08 186.619C394.63 186.649 394.17 186.679 393.77 186.879C392.43 187.569 392.7 189.519 392.23 190.959C391.58 192.989 389.39 193.999 387.63 195.209C387.06 195.599 386.49 196.079 386.3 196.749C386.09 197.499 386.43 198.289 386.52 199.059C386.68 200.489 388.34 200.059 387.07 200.739" fill="#DE314D"/>
</g>
</g>
<g style="mix-blend-mode:darken">
<mask id="mask8_1_7855" style="mask-type:luminance" maskUnits="userSpaceOnUse" x="385" y="184" width="87" height="47">
<path d="M471.9 184.939H385.52V230.819H471.9V184.939Z" fill="white"/>
</mask>
<g mask="url(#mask8_1_7855)">
<path d="M434.33 220.639C442.28 223.699 447.98 226.909 450.18 230.819C458.08 230.079 463.96 229.629 471.9 229.469C469.98 226.089 466.62 215.449 464.7 212.079C464.13 211.079 463.52 210.039 462.53 209.449C460.31 208.139 457.54 209.729 454.96 209.739C451.83 209.749 449.16 207.369 447.57 204.679C445.97 201.989 445.13 198.919 443.65 196.169C441.6 192.359 438.32 189.229 434.42 187.369C433.53 186.939 432.56 186.579 431.58 186.709C430.85 186.809 430.2 187.179 429.52 187.449C427.95 188.089 426.18 188.239 424.52 187.869C422.95 187.529 421.51 186.749 420 186.189C414.76 184.239 408.95 184.969 403.4 185.719C398.37 186.399 392.8 187.389 389.72 191.429C388.08 193.579 387.37 196.359 385.52 198.339C385.56 198.299 395.29 206.969 396.18 207.759C397.49 208.919 399.16 211.159 400.9 211.139C401.58 211.129 406.06 218.779 407.09 218.579C415.21 216.999 426.7 217.709 434.34 220.649" fill="#F8684E"/>
</g>
</g>
<g style="mix-blend-mode:darken">
<mask id="mask9_1_7855" style="mask-type:luminance" maskUnits="userSpaceOnUse" x="195" y="207" width="71" height="54">
<path d="M265.6 207.55H195.72V260.78H265.6V207.55Z" fill="white"/>
</mask>
<g mask="url(#mask9_1_7855)">
<path d="M217.439 260.06C230.529 241.91 246.609 239.76 264.639 239.43C266.199 234.52 265.869 226.86 263.729 222.17C262.009 218.41 259.239 215.25 256.499 212.15C254.669 210.08 252.579 207.87 249.829 207.59C248.479 207.45 247.139 207.81 245.839 208.16C242.159 209.15 238.489 210.14 234.809 211.13C233.419 211.5 231.989 211.9 230.889 212.83C229.239 214.21 228.569 216.59 226.719 217.68C224.879 218.76 222.539 218.2 220.419 218.46C216.209 218.98 213.129 222.78 211.599 226.73C210.069 230.68 209.629 234.99 208.119 238.94C206.609 242.9 207.059 247.52 202.869 248.11C197.709 248.84 195.039 257.6 195.899 259.5C197.439 259.86 203.069 260.97 205.499 260.76C207.219 260.61 216.669 261.16 217.459 260.06" fill="#F8684E"/>
</g>
</g>
<path d="M383.94 199.68C383.94 199.68 403.32 187.21 401.14 128.56L393.75 114.21L378.29 182.39L383.94 199.68Z" fill="#EF9C8B"/>
<path d="M383.381 197.77C383.291 197.8 383.191 197.82 383.111 197.85C382.971 197.91 382.801 198.04 382.851 198L382.891 197.97L382.971 197.91L383.151 197.77C398.721 182.91 399.971 149.17 399.441 128.62L399.631 129.33L392.331 114.94L395.291 114.56C391.461 130.93 387.151 149.13 383.111 165.56L378.851 182.52L378.831 182.21C379.691 185.04 380.491 187.9 381.331 190.81L383.371 197.76L383.381 197.77ZM384.611 201.53C384.251 200.46 381.321 192.53 380.881 191.26C379.841 188.41 378.751 185.51 377.731 182.58L377.681 182.44L377.721 182.27C382.151 160.05 387.361 135.93 392.201 113.88L393.121 109.62L395.161 113.51L402.651 127.81L402.821 128.14V128.53C403.561 150.55 402.691 179.52 388.821 197.68C387.741 199 386.541 200.29 385.151 201.31C385.201 201.28 385.021 201.41 384.861 201.48C384.791 201.52 384.701 201.53 384.611 201.56" fill="#3C1332"/>
<path d="M473.87 559.6C465.51 540.34 447.7 475.43 443.67 442.39C445.91 443.01 450.68 444.02 456.45 442.64C461.53 441.43 465.01 438.94 466.77 437.48C461.53 436.25 453.74 432.89 446.78 427.4C438.7 421.03 433.36 414.81 429.78 409.7C433.31 410.88 438.43 412.08 445.63 411.42C449.06 411.11 451.82 410.11 453.74 409.21L449.96 406.69C443.7 402.51 438.25 397.21 434.03 390.97C431.16 386.72 428.71 382.17 425.83 376.73C421.28 368.13 419.51 359.75 418.58 355.87C415.76 344 416.33 332.83 416.61 327.11C417.28 313.87 419.59 310.62 418.58 298.84C417.8 289.8 419.4 281.26 413.34 272.99C408.28 266.09 403.52 266.7 406.08 262.46C408.09 259.14 410.24 252.38 404.73 247.3C405.71 245.29 406.62 243.53 406.53 238.9C406.48 235.85 404.05 229.63 403.58 228.04C406.04 228.16 408.2 227.24 408.5 224.35C408.91 220.32 406.45 216.66 400.88 211.57C392.43 203.84 385.3 200.06 383.18 194.85C381.03 189.57 382.73 184.04 386.13 172.97C388.34 165.79 391.16 159.71 394.24 153.06C397.73 145.54 400.06 141.53 400.88 134.62C401.36 130.53 401.08 127.4 400.88 125.28C400.55 121.86 398.85 107.8 388.1 96.2699C384.81 92.7399 381.16 88.94 376.55 89.39C372.44 89.79 369.77 93.29 369.67 93.57C367.62 98.98 369.94 106.02 371.14 116.43C372.6 129.06 368.56 139.29 366.72 143.96C362.84 153.79 359.24 154.8 350 171C346.54 177.07 345.89 177.65 344.26 181.15C340.66 186.58 337.81 186.96 335.66 189.11C335.05 186.8 303.37 189.26 301.08 193.12C275.74 179.75 270.34 167.42 267.65 158.95C264.21 148.13 263.89 142.1 262.24 133.63C261.39 129.3 260.53 124.62 256.95 122.81C252.6 120.6 248.72 122.69 246.34 125.51C238.92 134.34 237.29 144.79 237.16 157.22C237.01 172.06 240.59 189.55 246.99 200.48C254.06 212.55 260.09 211.2 264.17 225.12C264.93 227.72 265.47 229.22 264.69 235.88C264.43 238.12 263.63 241.51 260.51 247.92C259.21 250.6 256.15 257.21 255.84 258.98C255.66 260 255.67 261.91 256.95 263.4C258.75 265.51 261.65 262.94 262.03 262.9C261.89 264.35 262.06 268.99 262.97 271.76C264.2 275.51 266.48 277.85 267.64 278.89C267.55 280.94 267.71 283.92 269.12 287C271.11 291.37 273.95 292.31 273.79 295.11C273.64 297.83 268.14 300.64 267.4 310.6C266.95 316.62 268.5 321.38 269.12 323.38C271.3 330.46 273.58 331.02 275.51 338.37C276.24 341.13 276.86 343.52 276.74 346.73C276.45 354.26 272.31 359.58 270.6 361.73C265.46 368.16 258.97 370.66 256.1 371.57C258.87 372.86 261.37 373.02 262.74 373.04C264.38 373.06 266.52 373.07 268.78 372.69C266.49 377.05 263.58 381.56 258.32 387.3C252.95 393.15 247.54 397.17 243.33 399.84C245.59 400.86 249.85 402.42 255.37 402.3C260.24 402.19 264.01 400.82 266.19 399.84C266.15 407.06 265.15 419.69 258.81 433.76C252.14 448.57 242.72 457.98 237.18 462.77C240.87 464.49 246.23 464.22 249.47 463.51C253.35 462.66 256.41 460.93 258.81 459.58L255.11 561.37L473.87 559.58V559.6Z" fill="#FFF4D6"/>
<path d="M302.6 194.021L302.55 194.031C302.55 194.041 302.56 194.051 302.6 194.021Z" fill="#3C1332"/>
<path d="M467.39 529.94C461.31 510.76 455.89 491.32 451.25 471.74C449.16 462.76 447.23 453.73 445.8 444.66C453.55 446.03 461.85 443.9 467.9 438.82L470.59 436.59C465.78 435.55 461.02 434.05 456.62 431.66C447.95 427.03 440.42 420.29 434.24 412.64C441.01 413.96 448.19 413.66 454.49 410.79L457.3 409.48L454.72 407.75C448.59 403.86 442.56 399.27 438.08 393.5C433.57 387.83 430.13 381.09 426.68 374.52C420.35 361.19 417.65 346.29 418.14 331.53C418.26 327.8 418.44 324.09 418.85 320.42C419.85 313.09 421.09 305.11 420.13 297.68C419.68 289.75 420.31 280.76 415.7 273.69C413.89 270.78 411.32 268.14 408.6 266.17C407.88 265.62 407.13 265.01 406.95 264.68C406.77 264.3 407.01 263.96 407.23 263.47C410.46 258.43 410.77 251.43 406.53 246.99C409.34 241.09 407.83 235.34 405.84 229.52C407.9 229.02 409.71 227.55 410.09 225.31C411.89 216.26 399.32 208.1 393.31 202.94C385.61 196.98 382.16 193.73 384.94 183.44C388.14 169.76 394.12 157.51 400.11 144.56C401.22 141.88 402.07 138.99 402.5 136.08C404.43 121.67 399.62 106.45 389.97 95.5901C387.02 92.4301 383.67 88.4901 378.94 87.6201C374.64 86.8401 370.04 89.2801 367.9 92.9301C366.52 96.6301 366.98 100.82 367.47 104.39C368.17 109.26 369.1 113.98 369.48 118.84C369.87 124.91 369.06 131.01 367.26 136.86C365.64 142.02 363.69 147.14 360.56 151.6L355.68 158.44C351.63 164.16 348.21 170.52 344.63 176.5C343.16 178.93 342.88 180.35 341.13 182.36C339.56 184.5 337.41 185.7 335.44 187.44C334.9 187.3 334.31 187.28 333.77 187.23C332.21 187.14 330.72 187.22 329.19 187.17C327.7 187.07 326.17 186.43 324.66 186.63C323.91 186.7 323.18 186.98 322.45 187.22C319.53 188.12 316.41 186.98 313.47 187.75C309.82 189.04 305.97 189.16 302.29 190.46C301.8 190.67 301.38 190.81 300.97 191.02C290.34 184.58 279.37 177.59 273.19 166.55C269.51 159.79 267.87 152.07 266.38 144.54C265.97 142.02 264.76 135.08 264.3 132.76C263.43 128.43 262.41 123.28 258.01 120.96C252.33 117.99 246.78 120.94 243.45 125.79C232.1 140.83 234.15 165.88 238.24 183.34C240.24 191.21 243.16 199.15 248.1 205.76C251.14 210.09 255.8 213.26 258.66 217.49C260.66 220.45 262.03 224.29 262.89 227.77C263.86 233.94 262.17 240.21 259.45 245.81C257.58 250.05 254.9 254.66 253.95 259.23C253.66 261.99 255.02 265.57 258.11 266.05C258.93 266.13 259.61 266.04 260.23 265.85C260.46 270.95 262.09 276.04 265.82 279.62C265.45 284.22 267.25 289.14 270.63 292.3C271.66 293.42 272.53 294.09 272.33 295.29C271.23 297.58 269.09 299.73 268.1 302.21C265.17 308.77 265.44 316.15 267.35 322.85C268.29 327.13 271.06 331.33 272.73 335.21C273.5 337.17 274.06 339.3 274.53 341.36C277.56 354.01 267.29 366.41 255.58 369.99L251.41 371.31C254.71 372.85 258.53 374.91 262.28 374.79C263.41 374.82 264.52 374.82 265.64 374.77C259.92 384.33 251.75 392.41 242.38 398.4L239.65 400.15C244.33 402.46 249.47 404.2 254.74 404.09C258.01 404.09 261.28 403.53 264.37 402.47C263.59 424.95 253.12 446.84 236.02 461.48L233.95 463.27C236.59 464.55 239.68 465.82 242.55 465.8C247.51 466.2 252.45 464.86 256.86 462.67L251.1 561.26L259.09 561.55L260.54 459.67L260.58 456.58C258.26 457.92 255.41 459.53 253.04 460.56C249.23 462.14 244.73 462.83 240.64 462.02C253.23 450.31 262.19 434.76 265.87 417.96C267.41 411.16 268.01 404.12 267.93 397.15C261.4 400.57 254.03 401.59 247.08 399.44C257.61 392.07 266.31 382.05 271.88 370.46C268.91 370.99 265.39 371.59 262.38 371.36C262.05 371.35 261.73 371.31 261.4 371.28C266.15 368.88 270.32 365.3 273.34 360.94C279.47 352.55 279.61 343.36 275.79 333.97C273.91 329.68 271.44 326.47 270.27 321.98C268.37 316.01 267.93 309.08 270.61 303.39C271.54 301.37 272.78 299.83 274.11 297.95C274.95 296.91 275.51 295.01 275.08 293.66C274.73 292.27 273.91 291.23 273.15 290.18C270.61 286.79 269.54 283.17 269.39 279.01L269.35 278.13L268.81 277.63C264.62 274.06 263.53 268.38 263.82 263.11L264.02 260.76L261.81 261.16C261.11 261.31 261.28 261.33 260.91 261.49C260.51 261.73 259.96 262.06 259.56 262.23C259.12 262.42 258.75 262.47 258.62 262.43C258.49 262.38 258.51 262.43 258.23 262.08C256.63 259.67 258.65 256.94 259.52 254.57C261.64 249.63 264.36 245 265.86 239.71C266.88 235.55 267.37 231.29 266.66 226.98C265.61 222.79 264.31 218.97 261.9 215.31C258.95 210.83 254.32 207.69 251.28 203.38C241.18 188.95 238.58 168.69 239.46 151.42C239.94 143.12 241.77 134.95 246.82 128.31C248.94 125.19 252.36 122.79 256.02 124.77C258.62 126.08 259.39 130.54 260 133.6C262.55 148.06 264.24 163.89 274.17 175.5C281.3 183.83 290.49 190.01 300.27 194.68L302.54 194.04C302.54 194.04 302.64 193.87 302.77 193.78C303.51 193.21 304.45 192.84 305.39 192.52C308.07 191.63 311.08 190.94 313.94 191.12C316.87 191.07 319.65 189.32 322.63 189.8C324.11 190.15 325.56 190.25 327.02 189.77C329.27 188.99 332.73 189.15 334.67 189.98C334.62 189.95 334.44 189.84 334.33 189.48L336.62 190.1C338.02 188.94 339.94 188.1 341.47 186.9C343.2 185.56 344.62 183.87 345.83 182.09C346.87 179.78 348.6 176.99 349.95 174.77C351.41 172.32 352.74 169.9 354.2 167.54C357.09 162.7 360.34 158.35 363.63 153.72C366.97 148.98 369.11 143.48 370.83 137.96C372.74 131.75 373.62 125.14 373.21 118.6C372.84 113.7 371.87 108.69 371.18 103.88C370.75 100.54 370.36 97.4201 371.37 94.4301C372.34 93.2201 373.72 92.1801 375.13 91.6701C380.03 89.9001 384.02 94.6301 387.23 98.0701C394.48 106.09 398.58 116.78 399.26 127.55C399.63 132.91 398.88 138.25 396.8 143.23C392.38 153.26 386.93 163.46 383.85 174.43C381.96 181.33 378.6 189.01 381.85 196.16C383.92 200.26 387.81 202.96 391.12 205.7C393.32 207.45 395.49 209.17 397.58 210.98C401.38 214.58 407.49 218.96 406.74 224.6C406.36 227 403.04 226.34 401.33 226.35C402.54 230.54 404.54 234.63 404.98 238.9C405.06 241.63 404.82 244.24 403.43 246.66L402.95 247.63C407.27 250.99 407.71 256.19 405.28 260.85L404.98 261.41L404.61 262.04C403.94 263.14 403.52 264.92 404.33 266.17C406.09 268.62 408.88 269.82 410.69 272.15C411.59 273.1 412.29 274.25 413.05 275.33C417.32 282.13 416.42 290.12 416.9 297.9C417.8 305.52 416.52 312.48 415.51 320.04C415.07 323.84 414.87 327.64 414.73 331.42C413.82 350.52 418.83 369.77 428.94 386.09C432.68 392.76 437.5 399.07 443.44 403.98C445.3 405.58 447.63 407.23 449.9 408.76C443.58 410.64 436.54 410.03 430.32 408.03L425.24 406.3C432.88 417.8 442.7 428.26 454.98 434.76C457.5 436.07 460.1 437.21 462.81 438.13C457.27 441.48 450.37 442.48 444.12 440.7L441.63 439.98C441.63 439.98 441.92 442.6 441.91 442.6C444.21 462.83 448.56 482.65 453.19 502.43C458.07 522.22 462.9 542.07 470.18 561.19C470.18 561.19 477.52 558.01 477.51 558.01C473.66 549.24 470.33 539.12 467.36 529.94" fill="#3C1332"/>
<path d="M375.75 185.68C377.66 191.5 383.02 195.42 388.08 198.37L386.09 201.46C381.19 197.37 376.27 192.3 375.26 185.77L375.74 185.68" fill="#3C1332"/>
<g style="mix-blend-mode:darken">
<mask id="mask10_1_7855" style="mask-type:luminance" maskUnits="userSpaceOnUse" x="332" y="328" width="64" height="36">
<path d="M395.07 328.84H332.63V363.93H395.07V328.84Z" fill="white"/>
</mask>
<g mask="url(#mask10_1_7855)">
<path d="M391.71 352.299C393.09 349.709 394.39 346.359 395.02 339.639C395.29 336.789 394.61 334.079 392.42 330.789C391.31 329.129 390.43 328.569 388.48 328.969C387.46 329.179 386.67 329.939 385.9 330.639C375.87 339.799 361.72 342.919 348.16 343.859C345.48 344.049 332.36 339.549 332.64 343.399C332.88 346.769 343.03 355.839 345.53 357.429C353.2 362.299 381.44 371.479 391.71 352.309" fill="#F0CDB7"/>
</g>
</g>
<path d="M374.76 258C380.87 252.22 385.63 245.14 389.59 237.79C393.75 229.69 397.63 217.79 409.25 222.49L407.78 226.21C399.01 222.27 396.22 233.45 392.44 239.35C388.17 246.92 382.33 253.64 375.01 258.36L374.75 258" fill="black"/>
<path d="M299.101 275.3C290.771 274.61 282.811 271.35 275.731 267.01C272.221 264.83 268.911 262.33 265.561 260.99C262.091 259.51 259.411 260.5 257.031 263.32L253.931 260.79C261.501 251.17 270.331 258.54 277.881 263.69C284.531 268.12 291.421 272.52 299.151 274.87L299.101 275.3Z" fill="black"/>
<path d="M289.79 272.51C289.79 272.51 284.38 286.78 267.67 278.92C263 271.79 260.54 264.17 261.53 260.24C264.97 260.73 260.79 255.54 289.8 272.52" fill="black"/>
<path d="M383.94 250.24C383.94 250.24 396.1 259.46 406.09 243.92C406.26 235.4 404.3 227.64 401.38 224.82C398.72 227.06 399.51 220.44 383.94 250.23" fill="black"/>
<g style="mix-blend-mode:darken">
<mask id="mask11_1_7855" style="mask-type:luminance" maskUnits="userSpaceOnUse" x="320" y="412" width="70" height="53">
<path d="M389.851 412.6H320.391V464.2H389.851V412.6Z" fill="white"/>
</mask>
<g mask="url(#mask11_1_7855)">
<path d="M325.991 437.06C325.111 439.78 322.891 443.94 320.391 446.01C325.821 445.65 331.011 444.95 335.681 442.14C339.221 440.01 342.591 435.92 344.851 432.45C344.511 439.45 350.471 442.06 349.591 449.02C349.091 452.99 350.431 456.89 346.271 464.2C351.091 464.2 357.371 461.95 362.231 457.7C370.021 450.9 370.691 441.69 370.311 435.84C376.741 437.57 383.741 437.07 389.861 434.43C386.371 431.11 381.441 423.86 378.431 420.1C377.011 418.33 375.601 416.47 373.681 415.26C371.361 413.8 368.531 413.44 365.791 413.21C361.411 412.83 357.011 412.67 352.611 412.61C351.231 412.59 349.841 412.58 348.501 412.89C347.381 413.14 346.321 413.61 345.261 414.08C340.921 416 336.591 417.91 332.251 419.82C330.521 420.59 329.401 426.46 325.991 437.06Z" fill="#F0CDB7"/>
</g>
</g>
<path d="M336.24 378.16C335.46 374.27 339.1 370.61 343 369.89C346.9 369.17 350.85 370.56 354.55 371.99C356.51 372.75 358.51 373.55 360.09 374.92C363.62 377.97 364.36 383.05 365.15 387.65C367.5 401.44 372.67 415.44 383.27 424.57C377.41 427.14 370.2 426.3 365.09 422.46C366.67 424.74 365.9 427.84 365.07 430.49C363.83 434.42 362.53 438.42 360.11 441.76C357.22 445.73 352.97 448.46 348.83 451.08C348.32 442.27 346.89 433.51 344.55 425C340.6 424.66 336.78 426.21 333.01 427.43C329.24 428.65 325.03 429.53 321.41 427.93C322.73 426.14 324.05 424.34 325.36 422.55C326.26 421.33 327.16 420.1 327.8 418.72C328.48 417.25 328.84 415.65 329.19 414.07C331.18 405.09 333.18 396.11 335.18 387.13C335.71 384.76 336.24 382.38 336.49 379.97C336.78 377.27 336.8 374.34 338.46 372.19" fill="#FFF4D6"/>
<g style="mix-blend-mode:darken">
<mask id="mask12_1_7855" style="mask-type:luminance" maskUnits="userSpaceOnUse" x="237" y="125" width="68" height="406">
<path d="M304.22 125.5H237.57V530.8H304.22V125.5Z" fill="white"/>
</mask>
<g mask="url(#mask12_1_7855)">
<path d="M253.181 141.45C253.901 164.12 259.871 172.36 266.771 185.73C270.881 193.7 277.621 200.3 280.861 208.67C284.101 217.03 281.971 220.5 279.471 225.17C277.681 228.51 262.761 249.3 263.671 258.28C265.441 275.69 285.461 267.78 280.871 294.32C279.891 299.96 277.521 308.28 278.521 313.92C280.111 322.9 285.231 330.89 287.441 339.74C289.651 348.59 287.641 359.87 279.271 363.51C285.101 362.5 290.221 358.12 292.131 352.52C292.951 365.22 285.061 378.02 273.361 383.01C282.561 380.22 292.301 379.61 304.231 359.38C304.651 383.21 291.041 427.39 258.231 448.77C262.981 448.88 269.161 451.08 279.781 442.42C276.051 454.14 274.721 505.4 293.921 529.16C284.121 529.16 272.011 530.64 260.641 530.8C255.321 523.21 254.821 481.41 257.671 472.59C258.731 469.32 259.761 464.64 256.561 463.37C255.791 463.07 254.941 463.08 254.121 463.11L237.601 463.54C242.111 462.56 256.061 440.46 257.751 436.17C259.061 432.84 265.721 412.97 265.471 401.82C259.681 403.31 251.301 403.15 245.751 400.95C253.071 392.13 262.851 382.5 268.811 372.71C265.431 372.75 258.811 370.04 255.431 370.08C264.381 367.82 272.781 361.96 275.571 353.16C279.101 342.04 266.531 324.03 267.441 310.63C267.711 306.71 273.011 297.75 272.931 293.83C272.811 288.22 258.701 265.38 257.741 259.85C255.331 246.04 268.911 239.89 265.471 226.31C262.591 214.97 253.881 211.02 248.671 200.55C241.381 185.91 238.471 167.62 237.671 151.38C237.391 145.77 241.161 131.12 245.261 126.95C251.241 120.87 253.021 135.48 253.211 141.45" fill="#F0CDB7"/>
</g>
</g>
<path d="M251.001 130.8C242.911 173.96 238.39 193.22 281.62 216C281.62 211.66 280.39 209.86 277.58 206.01C258.6 181.68 251.06 167.85 252.12 136.52" fill="#EF9C8B"/>
<path d="M280.86 215.1C280.86 215.1 275.13 206.38 264.81 202.45C268.58 201.8 271.37 203.27 271.37 203.27C271.37 203.27 263.01 194.42 255.97 190.65C259.74 190.65 265.64 193.76 265.64 193.76C265.64 193.76 257.12 183.27 252.69 180.32C258.26 182.12 264.13 184.69 264.13 184.69L277.54 204.13C278.55 205.59 279.25 207.23 279.6 208.97L280.86 215.1Z" fill="#3C1332"/>
<path d="M281.29 220.15C282.02 210.8 276.48 204.64 271.29 197.48C257.72 179.22 252.46 165.04 250.55 142.43C250.16 138.18 250.71 133.77 249.17 129.98C248.4 128.31 247.5 127.87 245.69 128.38L244.79 125.52C247.72 124.42 250.84 125.76 252.02 128.67C253.9 133.06 253.37 137.72 253.79 142.09C254.02 144.25 254.28 146.4 254.55 148.55C255.64 157.14 257.26 165.65 260.64 173.49C264.02 181.36 268.53 188.8 273.51 195.9C278.02 202.78 286.38 211.4 281.58 220.18L281.29 220.14" fill="#3C1332"/>
<path d="M404.211 239.56C404.461 238.31 405.011 238.02 405.091 238.37C405.191 238.78 405.161 240.24 405.111 240.8C404.941 242.94 404.711 243.65 404.151 244.5C403.431 245.59 402.241 245.9 401.811 245.19C402.731 243.7 403.761 241.75 404.201 239.55" fill="white"/>
<path d="M282.221 273.14C281.691 273.69 281.161 274.24 280.621 274.79C280.171 275.26 279.681 275.82 279.771 276.46C281.531 276.39 283.151 274.99 283.471 273.25C283.241 272.96 282.801 272.91 282.461 273.04C282.111 273.17 281.841 273.43 281.571 273.69C281.241 274.01 280.921 274.32 280.591 274.64" fill="white"/>
<g style="mix-blend-mode:darken">
<mask id="mask13_1_7855" style="mask-type:luminance" maskUnits="userSpaceOnUse" x="393" y="361" width="80" height="201">
<path d="M472.24 361.99H393.17V561.18H472.24V361.99Z" fill="white"/>
</mask>
<g mask="url(#mask13_1_7855)">
<path d="M419.32 382.121C415.38 376.371 412.39 370.451 409.29 364.191C414.4 370.111 421.79 374.551 425.84 376.731C428.48 378.151 434.41 391.831 441.7 399.381C451.6 409.621 461.11 412.741 439.72 411.571C437.42 411.451 434.64 411.841 432.93 413.391C438.01 418.471 445.88 429.871 463.48 439.801C462.23 438.791 456.22 446.081 445.13 443.391C448.68 491.891 473.88 534.661 472.14 535.091C471.51 535.251 450.82 543.831 437.85 549.021C424.84 554.221 416.5 565.311 400.02 559.621C428.29 552.491 440.57 483.931 429.82 448.871C427.48 441.241 423.66 431.031 416.94 415.111C420.56 418.571 427.76 421.371 432.76 421.751C426.09 416.391 417.88 407.471 413.5 400.121C399.24 380.041 392.81 362.871 393.17 362.021C397.41 367.931 411.13 380.791 418.78 383.621C418.78 383.621 420.61 384.241 420.61 383.891C420.61 383.611 420.17 383.411 419.3 382.151" fill="#F0CDB7"/>
</g>
</g>
<g style="mix-blend-mode:darken">
<mask id="mask14_1_7855" style="mask-type:luminance" maskUnits="userSpaceOnUse" x="395" y="246" width="31" height="126">
<path d="M425.32 246.101H395.67V371.741H425.32V246.101Z" fill="white"/>
</mask>
<g mask="url(#mask14_1_7855)">
<path d="M403.59 282.69C405.28 298.53 397.8 314.35 399.88 330.14C402.04 346.54 413.96 359.71 425.32 371.74C415.12 350.9 411.53 326.88 415.21 303.97C416.09 298.48 418.93 292.86 417.34 287.53C416.1 283.36 411.07 270 408.53 266.47C405.05 261.63 410.27 254.11 404.76 247.3C402.42 244.41 401.52 247.2 399.09 251.1C397.5 253.66 393.86 261.07 396.77 267.53C399.32 273.2 402.89 276.03 403.6 282.71" fill="#F0CDB7"/>
</g>
</g>
<path d="M317.82 205.5C317.69 208.61 317.69 209.84 318.61 212.74C320.89 207.38 325.43 202.22 332.54 199.68C331.29 203.5 330.73 207.26 331.11 210.36C333.43 208.32 337.73 202.59 347.42 201.6C343.67 209.1 347.58 212.29 348.56 213.71C349.73 215.4 351.47 218.67 350.75 220.63C350.03 222.59 347.23 223.13 345.64 224.48C338.65 230.41 328.66 232.6 319.83 230.15C307.72 226.78 310.19 211.57 317.82 205.5Z" fill="#FFF4D6"/>
<path d="M386.681 424.34C375.491 417.44 369.331 404.88 366.161 392.46C365.071 388.19 364.271 383.83 363.711 379.44L363.451 379.46C363.701 383.89 364.191 388.32 364.991 392.72C366.621 401.57 369.541 410.3 374.751 417.77C376.501 420.29 378.571 422.65 380.881 424.75C376.371 425.13 371.731 424.31 367.851 422.04L364.011 419.62L364.761 424.05C366.061 434.19 359.011 445.33 349.761 449.69C350.271 442.98 350.211 436.09 348.851 429.47C348.171 425.96 347.121 422.42 346.121 419.01C338.921 425.25 332.391 428.01 323.521 427.33C334.391 413.56 336.761 394.28 336.051 377.24C335.531 394.74 331.541 415.09 318.201 427.41L315.431 430.23L319.261 430.83C328.091 432.43 336.651 430.87 343.921 425.79C346.231 434.5 346.511 443.49 345.491 452.5L345.201 455.45L348.041 454.62C359.431 451.18 368.661 439.05 368.901 426.99C371.061 427.85 373.321 428.39 375.671 428.67C380.551 429.36 385.641 428.07 390.371 426.91L386.671 424.34" fill="#3C1332"/>
<g style="mix-blend-mode:overlay" opacity="0.2">
<mask id="mask15_1_7855" style="mask-type:luminance" maskUnits="userSpaceOnUse" x="244" y="219" width="174" height="42">
<path d="M417.91 219.601H244.32V260.211H417.91V219.601Z" fill="white"/>
</mask>
<g mask="url(#mask15_1_7855)">
<path d="M322.12 233.32C323.17 232.15 324.54 230.81 326.05 230.37C328.88 229.55 331.51 230 332.93 230.62C351.11 238.44 368.31 247.66 387.23 241.85C399.91 237.95 410.22 230.41 417.91 219.61C380.09 220.65 347.31 225.87 310.28 232.06C301.46 233.53 293.91 235.54 283.47 237.85C277.82 239.1 253.25 245.59 244.32 248.4C246.78 257.8 273.16 260.67 280.06 260.17C298.52 258.83 310.6 246.27 322.12 233.33" fill="#FFF4D6"/>
</g>
</g>
<path d="M304.391 190C305.581 189.08 306.821 188.22 307.931 187.21C310.361 184.99 312.141 182.05 314.911 180.28C314.601 184.18 313.631 188.03 312.041 191.61C316.891 185.39 324.511 182.14 331.091 177.79C328.731 182.41 326.821 187.27 325.431 192.27C326.921 191.75 328.031 190.53 329.261 189.54C331.121 188.05 333.321 187.06 335.491 186.08C341.921 183.19 348.511 180.27 355.541 179.79C351.461 183.36 348.171 187.81 345.961 192.76C345.041 194.82 344.181 197.12 342.261 198.3C341.371 198.85 340.341 199.1 339.331 199.35C331.801 201.25 324.411 203.73 316.831 205.42C309.251 207.11 301.361 207.99 293.711 206.65C290.961 206.17 292.851 203.99 293.701 202.62C294.491 201.36 295.021 200 295.891 198.77C298.251 195.44 301.181 192.48 304.401 189.99" fill="#FFF4D6"/>
<path d="M361.03 176.48C355.51 182.13 348.62 187.27 345.39 194.69C345.98 190.07 348.31 185.92 351.01 182.1C350.03 182.31 349.07 182.57 348.11 182.84C345.89 183.47 343.7 184.21 341.56 185.08C338.81 186.18 336.13 187.47 333.56 188.94C330.02 190.85 326.51 193.58 323.41 196.05L323.99 191.57C324.63 188.3 325.95 185.45 327.51 182.69C326.19 183.49 324.88 184.3 323.6 185.11C319.11 187.94 314.49 191.18 310.14 194.24C310.39 192.49 311.29 189.08 311.06 187.32C311.1 186.29 311.26 185.32 311.52 184.39C304.51 189.86 298.6 197.07 292.65 203.51C296.29 195.82 301.6 189.01 307.66 183.06C310.8 179.84 315.64 176.99 319.56 174.68L317.23 180.08C316.44 182.09 315.32 184.24 314.94 186.3C320.4 182.56 325.97 179.01 331.85 175.87L338.03 172.64L334.29 178.56C332.73 181.2 330.91 184.01 329.54 186.91C332.61 185.01 335.8 183.4 339.15 181.99C339.73 181.74 340.31 181.49 340.9 181.26C343.73 180.14 346.68 179.27 349.67 178.57C353.44 177.69 357.28 177.05 361.03 176.48Z" fill="#3C1332"/>
<path d="M472.16 554.59H255.36V562.1H472.16V554.59Z" fill="#FFF4D6"/>
<path d="M326.01 233.27L325.96 233.72L322.45 267.07H322.44L322.28 268.64C321.59 275.16 318.63 281.21 314.08 286.08C309.13 291.4 302.29 295.33 294.42 296.99L269.1 302.35C265.7 303.08 262.34 301.57 261.02 298.86C260.9 298.62 260.8 298.39 260.72 298.13L245.73 252.64L245.17 250.97C244.98 250.41 244.79 249.82 244.6 249.26L244.32 248.39C250.85 246.59 274.64 239.88 286.1 237.21C286.81 237.04 287.57 236.87 288.39 236.7C297.69 234.65 313.81 231.62 325.12 229.55C325.81 230.62 326.16 231.89 326.01 233.27Z" fill="#3C1332"/>
<path d="M417.911 219.6L417.951 224.12L418.421 272.01C418.461 275.35 415.601 278.27 411.851 278.71L386.161 281.8C376.081 283.02 366.371 280.29 359.271 274.73C355.581 271.85 352.611 268.2 350.641 263.95L347.321 256.78L336.911 234.25L335.921 232.11L335.721 231.67C335.111 230.35 335.051 228.97 335.411 227.7C336.921 227.43 337.831 227.27 337.931 227.26C338.661 227.15 339.411 227.04 340.131 226.92C346.941 225.88 353.431 225.01 359.581 224.25C359.581 224.25 360.401 224.16 361.761 224C366.061 223.51 375.621 222.43 380.421 221.97C381.141 221.9 381.861 221.84 382.561 221.77H382.571C399.831 220.2 412.611 219.74 417.911 219.6Z" fill="#3C1332"/>
<path d="M419.96 219.54C419.68 219.54 419.34 219.56 417.91 219.6C412.61 219.74 399.82 220.2 382.57 221.77H382.56C381.86 221.84 381.15 221.9 380.42 221.97C375.61 222.42 366.05 223.51 361.76 224C360.4 224.15 359.58 224.24 359.58 224.24C353.43 225.01 346.94 225.88 340.13 226.91C339.41 227.02 338.66 227.14 337.93 227.25C337.83 227.26 336.92 227.42 335.41 227.69C333.14 228.09 329.49 228.75 325.13 229.54C313.81 231.61 297.7 234.63 288.4 236.69C287.58 236.86 286.82 237.03 286.11 237.2C274.64 239.87 250.86 246.58 244.33 248.38C243.37 248.65 242.79 248.82 242.66 248.84C242.65 248.79 242.4 242.51 242.4 242.51C242.4 242.51 261.53 236.34 291.47 229.69C306.36 226.38 323.92 222.94 343.14 220.08C350.13 219.04 357.35 218.08 364.73 217.23C370.27 216.58 375.9 216 381.61 215.5L385.49 215.17C396.08 214.3 406.91 213.69 417.86 213.46C418.77 216.14 419.45 218.11 419.97 219.53" fill="#3C1332"/>
<path d="M339.856 225.149L320.128 228.998L321.941 238.293L341.669 234.444L339.856 225.149Z" fill="#3C1332"/>
<g opacity="0.4">
<mask id="mask16_1_7855" style="mask-type:luminance" maskUnits="userSpaceOnUse" x="263" y="226" width="78" height="73">
<path d="M340.13 226.91H263.45V298.38H340.13V226.91Z" fill="white"/>
</mask>
<g mask="url(#mask16_1_7855)">
<path d="M340.12 226.91L337.98 231.78L336.89 234.24L322.45 267.07H322.44L321.63 272.64C320.57 276.62 319.27 279.43 316.92 282.81L314.07 286.08C309.12 291.39 304.34 291.19 296.47 292.85L271.15 298.21C267.75 298.94 263.48 297.14 263.44 293.88L286.16 241.72L288.39 236.68C297.69 234.63 313.81 231.6 325.12 229.53C329.48 228.73 333.13 228.08 335.4 227.68C336.91 227.41 337.82 227.25 337.92 227.24C338.65 227.13 339.4 227.02 340.12 226.9" fill="#FF0092"/>
</g>
</g>
<g opacity="0.4">
<mask id="mask17_1_7855" style="mask-type:luminance" maskUnits="userSpaceOnUse" x="347" y="221" width="36" height="54">
<path d="M382.551 221.77H347.311V274.72H382.551V221.77Z" fill="white"/>
</mask>
<g mask="url(#mask17_1_7855)">
<path d="M382.56 221.77L380.49 226.5L359.27 274.72C355.58 271.84 352.61 268.19 350.64 263.94L347.32 256.77L359.64 228.77H359.65L361.76 224C366.05 223.51 375.62 222.42 380.42 221.97C381.14 221.9 381.86 221.84 382.56 221.77Z" fill="#FF0092"/>
</g>
</g>
<g opacity="0.35">
<mask id="mask18_1_7855" style="mask-type:luminance" maskUnits="userSpaceOnUse" x="348" y="217" width="12" height="8">
<path d="M359.45 217.84H348.54V224.98H359.45V217.84Z" fill="white"/>
</mask>
<g mask="url(#mask18_1_7855)">
<path d="M348.54 224.98C351.57 224.61 353.21 224.41 355.85 224.03C357.06 222.05 357.63 220.92 359.46 217.84C357.4 218.12 354.2 218.41 351.83 218.7C350.59 220.88 349.63 222.92 348.55 224.98" fill="#FFF4D6"/>
</g>
</g>
<path d="M327.87 313.06C327.87 313.06 316.51 344.12 349.58 350.12C369.12 353.65 401.13 335.46 387.05 306.29C387.05 306.29 382.98 297.01 371.15 289.96" fill="#E8A68B"/>
<path d="M354.669 352.06C352.839 352.06 351.049 351.91 349.319 351.6C339.019 349.73 331.799 345.3 327.849 338.42C321.299 326.99 326.249 313.14 326.459 312.55L329.279 313.58C329.229 313.71 324.609 326.74 330.459 336.94C333.939 343.01 340.469 346.94 349.849 348.65C360.109 350.5 375.659 345.92 383.919 335.05C388.199 329.41 391.989 319.96 385.699 306.94C385.639 306.8 381.609 297.94 370.379 291.24L371.919 288.66C384.019 295.88 388.249 305.28 388.429 305.68C395.349 320.02 391.099 330.55 386.309 336.85C379.379 345.97 366.299 352.05 354.669 352.05" fill="#3C1332"/>
<path d="M342.75 331.94C343.85 332.15 345.26 333.34 345.53 334.43C344.18 334.26 342.29 334.29 341.03 334.82C340.45 335.06 340.43 335.19 340.42 335.82C340.41 336.19 340.62 336.52 340.85 336.81C343.28 339.87 349.59 341.06 353.48 340.68C357.36 340.3 361.08 339.73 362.46 337.23C363.44 335.46 360.96 335.56 358.36 334.96C355.91 334.4 349.8 334.89 348.55 334.43C355.15 333.81 366.8 326.76 370.95 321.6C371.35 321.1 371.78 320.57 372.39 320.36C373.22 320.07 373.92 318 374.7 318.4C378.87 320.55 385.28 323 388.98 325.88L387.32 329.13C380.44 344.12 362.98 348.91 354.69 348.9C348.28 348.9 342.79 346.75 340.86 345.95C339.56 345.27 334.33 342.99 330.27 336.69C328.3 333.62 326.97 325.92 327.68 321.25C328.2 317.8 338.25 331.08 342.75 331.94Z" fill="#D68C72"/>
<path d="M327.3 315.85C327.3 315.85 330.94 333.18 348.03 333.16C365.13 333.15 390.44 307.54 370.53 290.82H370.28C368.21 290.82 366.28 291.83 365.09 293.53L359.18 302C358.31 303.24 357.35 304.41 356.29 305.5C354.67 307.16 352.6 308.31 350.33 308.79L349.67 308.93C344.9 309.95 337.25 305.34 332.62 303.8L331.05 306.72L327.29 315.85H327.3Z" fill="#25253A"/>
<path d="M348.01 334.67C329.94 334.67 325.88 316.35 325.84 316.17L325.74 315.72L329.74 306.02L331.91 301.99L333.11 302.39C334.5 302.85 336.1 303.56 337.8 304.31C341.65 306 346.44 308.11 349.37 307.48L350.03 307.34C352.01 306.91 353.81 305.92 355.23 304.47C356.23 303.45 357.15 302.33 357.97 301.16L363.87 292.69C365.33 290.59 367.73 289.34 370.29 289.34H371.09L371.51 289.69C378.79 295.8 381.09 303.85 378 312.35C373.76 324.03 359.48 334.67 348.04 334.68H348.02L348.01 334.67ZM328.87 315.98C329.55 318.6 333.65 331.67 348 331.67H348.02C358.35 331.67 371.29 321.96 375.16 311.31C376.99 306.29 377.54 298.96 369.98 292.34C368.51 292.43 367.16 293.18 366.31 294.39L360.41 302.86C359.5 304.16 358.47 305.41 357.36 306.55C355.53 308.43 353.21 309.71 350.64 310.26L349.98 310.4C346.09 311.23 341.04 309.01 336.58 307.04C335.43 306.53 334.32 306.05 333.33 305.66L332.41 307.37L328.87 315.98Z" fill="#3C1332"/>
<path d="M341.31 330.22C341.31 330.22 338.99 325.64 341.85 324.79C344.71 323.93 347.46 325.49 348.26 331.31C345.16 331.49 341.32 330.22 341.32 330.22" fill="#F1F9FD"/>
<path d="M352.929 330.62C352.929 330.62 349.909 324.9 352.799 323.46C355.039 322.34 358.419 321.77 359.289 328.07C356.769 329.67 352.939 330.62 352.939 330.62" fill="#F1F9FD"/>
<path d="M344.74 312.01C344.74 312.01 347.34 316.8 344.33 318.19C339.94 320.22 337.45 316.83 336.44 310.4C336.14 308.5 344.74 312.02 344.74 312.02" fill="#F1F9FD"/>
<path d="M330.49 310.68C330.49 310.68 334.53 318.81 331.43 319.97C327.29 321.53 325.03 320.91 324.01 314.48C323.71 312.59 330.49 310.68 330.49 310.68Z" fill="#F1F9FD"/>
<path d="M328.79 231.56C330.9 231.47 335.56 232.09 344.61 238.7C358.34 248.73 378.84 267.69 376.8 285.2C371.87 288.69 360.75 293.3 358.52 299.4C356.29 305.5 346.9 312.88 340.83 308.67C334.76 304.46 332.43 295.48 332.43 295.48C332.43 295.48 334.26 312.12 325.95 312.97C317.65 313.82 307.64 314.48 307.64 314.48C307.64 314.48 290.41 307.01 294.54 297.02C297.13 290.77 306.26 274.22 312.31 258.6C321.77 234.16 323.72 231.54 328.79 231.55" fill="#E8A68B"/>
<path d="M299.13 310.52C296.66 308.88 293.33 303.41 294.4 300.64C294.6 300.12 294.6 297.6 295.05 297.27C296.13 296.48 296.77 299.41 297.4 300.58C301.5 308.11 314.05 304.95 319.67 302.58C333.85 296.59 323.22 292.94 327.42 290.23C330.35 288.34 334.1 288.34 337.58 288.62C337.89 288.64 338.22 288.68 338.46 288.88C339.12 289.44 338.46 290.46 338.33 291.31C338.15 292.35 338.82 293.35 339.5 294.16C340.62 295.48 342.91 297.73 346.29 297.73C348.17 297.73 350.88 297.73 353.37 294.75C358.3 288.85 369.03 281.53 376.73 279.81C376.93 287.71 373.9 287.02 366.64 289.77C364.51 290.58 363.09 292.7 361.79 294.56C359.83 297.37 359.64 301.21 357.36 303.76C355.95 305.33 352.06 309.64 350.09 310.39C343.84 312.78 338.33 313.56 332.63 303.81C330.24 316.83 316.45 318.11 308.3 315.1C302.69 313.02 303.38 313.81 299.12 311.27" fill="#D68C72"/>
<path d="M378.66 279.56C377.76 271.56 373.5 264.42 368.33 258.46C361.44 250.7 353.27 244.3 344.61 238.7C352.81 244.74 360.64 251.57 366.66 259.8C370.95 265.77 375.08 272.42 375.96 279.83C376.14 281.67 376.22 284.22 375.09 285.61C369.11 286.62 363.78 289.8 361.32 295.55C360.05 298.16 359.22 300.91 357.98 303.27C356.64 305.6 354.48 307.12 352.39 308.32C347.99 310.84 340.32 310.73 337.17 306.45C335.61 302.23 335.03 297.57 334.08 293.14L330.89 293.38C330.71 299.11 330.48 305.36 328.1 310.61C327.3 312.07 325.61 312.62 324.03 313.28C313.77 317.02 298.34 315.03 295.77 302.59C295.44 298.83 296.98 294.98 298.29 291.39C301.26 283.83 305.06 276.66 308.59 269.31C313.06 259.57 317.04 249.03 320.5 238.89C315.54 248.36 311.69 258.93 306.98 268.51C302.18 278.32 296.21 287.74 293.53 298.47C292.04 304.28 295.5 310.54 300.22 313.89C307.97 319.29 321.24 319.21 329.11 314.08C331.09 312.56 332.27 309.15 332.98 305.4C333.27 306.56 333.65 307.7 334.27 308.72C338.71 314.55 348.24 314.76 354.15 311.34C360.75 307.43 360.96 298.6 365.34 293.08C367.93 289.93 371.86 288.62 375.86 288.01C378.91 286.64 378.84 282.33 378.68 279.55" fill="#3C1332"/>
<path d="M332.54 292.79C332.54 292.79 335.7 291.52 338.46 287.89C340.51 285.2 341.44 283.56 345.53 280.76C349.75 277.87 352.15 277.82 355.3 278.09C358.45 278.36 359 280.76 354.81 284.47C350.39 288.37 338.18 296.14 328.09 294.8C319.58 293.67 311.34 292.55 309.99 289.95C308.64 287.35 310.37 286.92 312.16 286.16C314.28 285.27 317.33 286.78 321.26 288.62C327.59 291.58 329.91 292.76 332.54 292.78" fill="#3C1332"/>
<path d="M343.02 267.86C343.66 266.99 344.4 266.08 345.45 265.83C346.13 265.66 346.84 265.8 347.52 265.98C352.31 267.25 356.4 270.9 358.19 275.52C356.19 273.53 353.07 273.02 350.29 273.53C347.51 274.04 344.99 275.43 342.51 276.79C340.51 277.89 338.55 279.09 336.44 279.81C336.2 276.05 340.89 271.06 343.02 267.87" fill="#F9C1BD"/>
<path d="M313.44 282.11C315.35 282.35 317.17 283.06 318.97 283.75C318.09 282.34 317.22 280.93 316.34 279.53C316.12 279.18 315.89 278.82 315.54 278.61C315.11 278.36 314.57 278.38 314.07 278.42C312.93 278.5 311.71 278.6 310.79 279.28C310.2 279.72 309.8 280.35 309.41 280.97C309.01 281.6 308.57 282.24 308.3 282.9C309.92 282.13 311.66 281.88 313.44 282.1" fill="#F9C1BD"/>
<path d="M412.47 298.57C408.21 300.95 405.56 304.96 404.48 307.87C404.23 308.54 403.85 308.95 403.12 309.71C401.78 311.09 399.97 312.97 398.22 317.97C396.6 322.58 397.3 326.52 398.47 329.38C392.7 326.4 387.19 322.6 382.18 319.15C377.33 315.82 372.75 312.67 368.79 310.86C363.78 308.57 363.44 305.3 363.53 304.09C365.15 301.32 366.3 298.11 368.03 295.51C370.34 292.27 373.07 289.8 375.56 290.57L412.48 298.56L412.47 298.57Z" fill="#702A3A"/>
<path d="M389.27 309.091C393.75 311.051 398.23 313.011 402.71 314.961C400.38 316.101 400.14 319.281 400.23 321.871C400.34 325.111 400.46 328.361 400.57 331.601C388.06 325.331 376.17 317.811 365.14 309.201C364.36 308.591 363.58 307.971 363.01 307.161C361.8 305.451 361.73 301.771 363.71 300.471C365.66 299.181 368.53 300.781 370.46 301.441C376.86 303.651 383.07 306.371 389.28 309.081" fill="#602E3B"/>
<path d="M372.41 317.551L372.09 316.181C372 315.781 369.83 306.231 374.25 299.321C378.3 292.991 384.02 289.781 390.82 290.091L392.23 290.151L392.11 292.961L390.7 292.901C384.88 292.641 380.15 295.321 376.62 300.831C372.84 306.741 374.8 315.451 374.82 315.541L375.14 316.911L372.4 317.551H372.41Z" fill="#3C1332"/>
<path d="M437.331 314.231C439.061 321.561 436.531 330.041 431.041 335.331C431.001 335.391 430.961 335.421 430.911 335.441C430.711 335.641 430.501 335.801 430.291 335.971C425.001 339.971 417.151 337.281 408.061 333.611C406.171 332.481 404.871 331.541 404.471 331.251C403.781 330.491 399.931 325.821 402.191 319.361C403.621 315.241 404.961 313.861 406.141 312.631C406.971 311.771 407.841 310.871 408.421 309.341C408.461 309.231 412.461 298.911 423.311 301.071C423.931 301.201 424.561 301.351 425.221 301.561C431.571 303.561 435.861 308.051 437.321 314.221" fill="#99FFFF"/>
<path d="M441.44 313.26C440.53 309.42 438.75 306.1 436.22 303.44C433.69 300.78 430.4 298.77 426.48 297.55C425.75 297.32 376.77 286.55 376.77 286.55H376.71C371.01 284.81 366.27 290.12 363.2 295.11C363.17 295.17 363.13 295.21 363.12 295.26C361.49 297.92 360.35 300.45 359.81 301.75C359.67 302.07 359.57 302.31 359.51 302.47L359.41 302.78C359.13 304.05 358.25 305.53 358.82 307.17C360.34 311.52 400.14 334.96 402.24 335.82C402.24 335.82 416.42 342.8 422.74 342.8C426.44 342.8 430.11 341.77 433.32 338.97C433.39 338.91 433.46 338.86 433.52 338.79C433.66 338.68 433.82 338.54 433.96 338.4L434.23 338.13L435.33 336.96L435.48 336.79C440.94 330.49 443.32 321.31 441.43 313.28M369.87 311.39C365.38 308.2 363.7 306.73 363.51 305.1C364.16 301.58 366.29 298.12 368.02 295.51C370.33 292.27 373.06 289.8 375.55 290.57L412.47 298.56C408.21 300.94 405.56 304.95 404.48 307.86C404.23 308.54 403.85 308.94 403.12 309.7C401.78 311.08 399.97 312.96 398.22 317.96C396.6 322.57 396.83 326.26 397.99 329.12C392.22 326.14 374.1 314.39 369.87 311.38M431.04 335.33C431 335.39 430.96 335.42 430.91 335.44C430.71 335.64 430.5 335.82 430.29 335.97C425 339.97 417.15 337.28 408.06 333.61C406.17 332.48 404.87 331.54 404.47 331.25C403.78 330.49 399.93 325.82 402.19 319.36C403.62 315.24 404.96 313.86 406.14 312.63C406.97 311.77 407.84 310.87 408.42 309.34C408.46 309.23 412.46 298.92 423.31 301.07C423.93 301.2 424.56 301.35 425.22 301.56C431.57 303.56 435.86 308.05 437.32 314.22C439.05 321.55 436.52 330.03 431.03 335.32" fill="#3C1332"/>
<path d="M425.02 328.04C424.04 328.04 423.14 327.91 422.44 327.72L422.96 325.79C423.2 325.85 428.98 327.31 430.56 322.33C431.41 319.66 430.84 318.2 430.24 316.66C429.49 314.73 428.72 312.74 430.81 309.13C431.37 308.17 431.47 307.25 431.13 306.31C430.08 303.4 425.03 301 423.17 300.32L423.85 298.44C424.16 298.55 431.42 301.24 433 305.62C433.55 307.13 433.39 308.65 432.53 310.13C430.92 312.91 431.41 314.17 432.09 315.93C432.72 317.56 433.51 319.58 432.45 322.93C431.18 326.96 427.79 328.05 425.01 328.05" fill="#3C1332"/>
<path d="M415.99 338.571C413.89 338.571 412.21 337.901 412.1 337.861L412.85 336.001C412.85 336.001 416.09 337.261 418.65 336.001C420.05 335.311 421.03 333.971 421.59 332.011C422.38 329.211 421.61 327.701 420.72 325.951C419.75 324.041 418.65 321.881 419.72 318.131C421.23 312.821 420.96 308.931 418.94 306.551C416.21 303.351 411.03 303.911 410.98 303.911L410.74 301.931C411 301.901 417.02 301.231 420.45 305.241C422.94 308.161 423.34 312.671 421.64 318.671C420.79 321.671 421.58 323.231 422.5 325.041C423.44 326.901 424.51 329.001 423.51 332.551C422.8 335.091 421.45 336.851 419.52 337.801C418.34 338.381 417.11 338.571 415.99 338.571Z" fill="#3C1332"/>
</svg>
