<svg width="97" height="89" viewBox="0 0 97 89" fill="none" xmlns="http://www.w3.org/2000/svg">
<g clip-path="url(#clip0_61_6061)">
<mask id="mask0_61_6061" style="mask-type:luminance" maskUnits="userSpaceOnUse" x="0" y="35" width="97" height="54">
<path d="M0.0996094 83.5594C0.0996094 85.3319 0.195297 87.082 0.384794 88.8041H96.5986C96.7881 87.0802 96.8838 85.3301 96.8838 83.5594C96.8838 56.9249 75.2174 35.333 48.4927 35.333C21.7679 35.333 0.0996094 56.9267 0.0996094 83.5594Z" fill="white"/>
</mask>
<g mask="url(#mask0_61_6061)">
<path d="M96.8838 35.335H0.0996094V35.5519H96.8838V35.335Z" fill="#FF80FF"/>
<path d="M96.8838 35.5518H0.0996094V35.7686H96.8838V35.5518Z" fill="#FF80FF"/>
<path d="M96.8838 35.7686H0.0996094V35.9854H96.8838V35.7686Z" fill="#FF80FF"/>
<path d="M96.8838 35.9854H0.0996094V36.2022H96.8838V35.9854Z" fill="#FF80FE"/>
<path d="M96.8838 36.2041H0.0996094V36.421H96.8838V36.2041Z" fill="#FF80FE"/>
<path d="M96.8838 36.4219H0.0996094V36.6388H96.8838V36.4219Z" fill="#FF80FE"/>
<path d="M96.8838 36.6387H0.0996094V36.8556H96.8838V36.6387Z" fill="#FF80FD"/>
<path d="M96.8838 36.8555H0.0996094V37.0724H96.8838V36.8555Z" fill="#FF80FD"/>
<path d="M96.8838 37.0742H0.0996094V37.2911H96.8838V37.0742Z" fill="#FF80FD"/>
<path d="M96.8838 37.291H0.0996094V37.5079H96.8838V37.291Z" fill="#FF80FC"/>
<path d="M96.8838 37.5078H0.0996094V37.7247H96.8838V37.5078Z" fill="#FF81FC"/>
<path d="M96.8838 37.7246H0.0996094V37.9415H96.8838V37.7246Z" fill="#FF81FC"/>
<path d="M96.8838 37.9434H0.0996094V38.1603H96.8838V37.9434Z" fill="#FF81FB"/>
<path d="M96.8838 38.1602H0.0996094V38.377H96.8838V38.1602Z" fill="#FF81FB"/>
<path d="M96.8838 38.377H0.0996094V38.5938H96.8838V38.377Z" fill="#FF81FA"/>
<path d="M96.8838 38.5938H0.0996094V38.8106H96.8838V38.5938Z" fill="#FF81FA"/>
<path d="M96.8838 38.8125H0.0996094V39.0294H96.8838V38.8125Z" fill="#FF81F9"/>
<path d="M96.8838 39.0293H0.0996094V39.2462H96.8838V39.0293Z" fill="#FF81F9"/>
<path d="M96.8838 39.2471H0.0996094V39.464H96.8838V39.2471Z" fill="#FF81F8"/>
<path d="M96.8838 39.4639H0.0996094V39.6808H96.8838V39.4639Z" fill="#FF81F8"/>
<path d="M96.8838 39.6826H0.0996094V39.8995H96.8838V39.6826Z" fill="#FF81F7"/>
<path d="M96.8838 39.8994H0.0996094V40.1163H96.8838V39.8994Z" fill="#FF82F7"/>
<path d="M96.8838 40.1162H0.0996094V40.3331H96.8838V40.1162Z" fill="#FF82F6"/>
<path d="M96.8838 40.333H0.0996094V40.5499H96.8838V40.333Z" fill="#FF82F5"/>
<path d="M96.8838 40.5518H0.0996094V40.7686H96.8838V40.5518Z" fill="#FF82F5"/>
<path d="M96.8838 40.7686H0.0996094V40.9854H96.8838V40.7686Z" fill="#FF82F4"/>
<path d="M96.8838 40.9854H0.0996094V41.2022H96.8838V40.9854Z" fill="#FF82F4"/>
<path d="M96.8838 41.2021H0.0996094V41.419H96.8838V41.2021Z" fill="#FF82F3"/>
<path d="M96.8838 41.4209H0.0996094V41.6378H96.8838V41.4209Z" fill="#FF82F2"/>
<path d="M96.8838 41.6377H0.0996094V41.8546H96.8838V41.6377Z" fill="#FF82F2"/>
<path d="M96.8838 41.8545H0.0996094V42.0714H96.8838V41.8545Z" fill="#FF83F1"/>
<path d="M96.8838 42.0723H0.0996094V42.2892H96.8838V42.0723Z" fill="#FF83F1"/>
<path d="M96.8838 42.291H0.0996094V42.5079H96.8838V42.291Z" fill="#FF83F0"/>
<path d="M96.8838 42.5078H0.0996094V42.7247H96.8838V42.5078Z" fill="#FF83EF"/>
<path d="M96.8838 42.7246H0.0996094V42.9415H96.8838V42.7246Z" fill="#FF83EF"/>
<path d="M96.8838 42.9414H0.0996094V43.1583H96.8838V42.9414Z" fill="#FF83EE"/>
<path d="M96.8838 43.1602H0.0996094V43.377H96.8838V43.1602Z" fill="#FF83ED"/>
<path d="M96.8838 43.377H0.0996094V43.5938H96.8838V43.377Z" fill="#FF83ED"/>
<path d="M96.8838 43.5938H0.0996094V43.8106H96.8838V43.5938Z" fill="#FF84EC"/>
<path d="M96.8838 43.8105H0.0996094V44.0274H96.8838V43.8105Z" fill="#FF84EB"/>
<path d="M96.8838 44.0293H0.0996094V44.2462H96.8838V44.0293Z" fill="#FF84EB"/>
<path d="M96.8838 44.2461H0.0996094V44.463H96.8838V44.2461Z" fill="#FF84EA"/>
<path d="M96.8838 44.4629H0.0996094V44.6798H96.8838V44.4629Z" fill="#FF84E9"/>
<path d="M96.8838 44.6797H0.0996094V44.8966H96.8838V44.6797Z" fill="#FF84E8"/>
<path d="M96.8838 44.8984H0.0996094V45.1153H96.8838V44.8984Z" fill="#FF84E8"/>
<path d="M96.8838 45.1162H0.0996094V45.3331H96.8838V45.1162Z" fill="#FF84E7"/>
<path d="M96.8838 45.333H0.0996094V45.5499H96.8838V45.333Z" fill="#FF85E6"/>
<path d="M96.8838 45.5498H0.0996094V45.7667H96.8838V45.5498Z" fill="#FF85E5"/>
<path d="M96.8838 45.7686H0.0996094V45.9854H96.8838V45.7686Z" fill="#FF85E5"/>
<path d="M96.8838 45.9854H0.0996094V46.2022H96.8838V45.9854Z" fill="#FF85E4"/>
<path d="M96.8838 46.2021H0.0996094V46.419H96.8838V46.2021Z" fill="#FF85E3"/>
<path d="M96.8838 46.4209H0.0996094V46.6378H96.8838V46.4209Z" fill="#FF85E2"/>
<path d="M96.8838 46.6377H0.0996094V46.8546H96.8838V46.6377Z" fill="#FF85E2"/>
<path d="M96.8838 46.8545H0.0996094V47.0714H96.8838V46.8545Z" fill="#FF86E1"/>
<path d="M96.8838 47.0713H0.0996094V47.2882H96.8838V47.0713Z" fill="#FF86E0"/>
<path d="M96.8838 47.29H0.0996094V47.5069H96.8838V47.29Z" fill="#FF86DF"/>
<path d="M96.8838 47.5068H0.0996094V47.7237H96.8838V47.5068Z" fill="#FF86DF"/>
<path d="M96.8838 47.7236H0.0996094V47.9405H96.8838V47.7236Z" fill="#FF86DE"/>
<path d="M96.8838 47.9414H0.0996094V48.1583H96.8838V47.9414Z" fill="#FF86DD"/>
<path d="M96.8838 48.1602H0.0996094V48.377H96.8838V48.1602Z" fill="#FF87DC"/>
<path d="M96.8838 48.377H0.0996094V48.5938H96.8838V48.377Z" fill="#FF87DB"/>
<path d="M96.8838 48.5938H0.0996094V48.8106H96.8838V48.5938Z" fill="#FF87DB"/>
<path d="M96.8838 48.8105H0.0996094V49.0274H96.8838V48.8105Z" fill="#FF87DA"/>
<path d="M96.8838 49.0273H0.0996094V49.2442H96.8838V49.0273Z" fill="#FF87D9"/>
<path d="M96.8838 49.2461H0.0996094V49.463H96.8838V49.2461Z" fill="#FF87D8"/>
<path d="M96.8838 49.4629H0.0996094V49.6798H96.8838V49.4629Z" fill="#FF87D7"/>
<path d="M96.8838 49.6797H0.0996094V49.8966H96.8838V49.6797Z" fill="#FF88D6"/>
<path d="M96.8838 49.8965H0.0996094V50.1134H96.8838V49.8965Z" fill="#FF88D5"/>
<path d="M96.8838 50.1152H0.0996094V50.3321H96.8838V50.1152Z" fill="#FF88D5"/>
<path d="M96.8838 50.332H0.0996094V50.5489H96.8838V50.332Z" fill="#FF88D4"/>
<path d="M96.8838 50.5488H0.0996094V50.7657H96.8838V50.5488Z" fill="#FF88D3"/>
<path d="M96.8838 50.7676H0.0996094V50.9845H96.8838V50.7676Z" fill="#FF88D2"/>
<path d="M96.8838 50.9854H0.0996094V51.2022H96.8838V50.9854Z" fill="#FF89D1"/>
<path d="M96.8838 51.2021H0.0996094V51.419H96.8838V51.2021Z" fill="#FF89D0"/>
<path d="M96.8838 51.4189H0.0996094V51.6358H96.8838V51.4189Z" fill="#FF89CF"/>
<path d="M96.8838 51.6377H0.0996094V51.8546H96.8838V51.6377Z" fill="#FF89CF"/>
<path d="M96.8838 51.8545H0.0996094V52.0714H96.8838V51.8545Z" fill="#FF89CE"/>
<path d="M96.8838 52.0713H0.0996094V52.2882H96.8838V52.0713Z" fill="#FF89CD"/>
<path d="M96.8838 52.2881H0.0996094V52.505H96.8838V52.2881Z" fill="#FF8ACC"/>
<path d="M96.8838 52.5068H0.0996094V52.7237H96.8838V52.5068Z" fill="#FF8ACB"/>
<path d="M96.8838 52.7236H0.0996094V52.9405H96.8838V52.7236Z" fill="#FF8ACA"/>
<path d="M96.8838 52.9404H0.0996094V53.1573H96.8838V52.9404Z" fill="#FF8AC9"/>
<path d="M96.8838 53.1572H0.0996094V53.3741H96.8838V53.1572Z" fill="#FF8AC8"/>
<path d="M96.8838 53.376H0.0996094V53.5929H96.8838V53.376Z" fill="#FF8AC7"/>
<path d="M96.8838 53.5928H0.0996094V53.8097H96.8838V53.5928Z" fill="#FF8BC6"/>
<path d="M96.8838 53.8105H0.0996094V54.0274H96.8838V53.8105Z" fill="#FF8BC5"/>
<path d="M96.8838 54.0273H0.0996094V54.2442H96.8838V54.0273Z" fill="#FF8BC5"/>
<path d="M96.8838 54.2461H0.0996094V54.463H96.8838V54.2461Z" fill="#FF8BC4"/>
<path d="M96.8838 54.4629H0.0996094V54.6798H96.8838V54.4629Z" fill="#FF8BC3"/>
<path d="M96.8838 54.6797H0.0996094V54.8966H96.8838V54.6797Z" fill="#FF8BC2"/>
<path d="M96.8838 54.8965H0.0996094V55.1134H96.8838V54.8965Z" fill="#FF8CC1"/>
<path d="M96.8838 55.1152H0.0996094V55.3321H96.8838V55.1152Z" fill="#FF8CC0"/>
<path d="M96.8838 55.332H0.0996094V55.5489H96.8838V55.332Z" fill="#FF8CBF"/>
<path d="M96.8838 55.5488H0.0996094V55.7657H96.8838V55.5488Z" fill="#FF8CBE"/>
<path d="M96.8838 55.7656H0.0996094V55.9825H96.8838V55.7656Z" fill="#FF8CBD"/>
<path d="M96.8838 55.9844H0.0996094V56.2013H96.8838V55.9844Z" fill="#FF8DBC"/>
<path d="M96.8838 56.2012H0.0996094V56.4181H96.8838V56.2012Z" fill="#FF8DBB"/>
<path d="M96.8838 56.418H0.0996094V56.6349H96.8838V56.418Z" fill="#FF8DBA"/>
<path d="M96.8838 56.6357H0.0996094V56.8526H96.8838V56.6357Z" fill="#FF8DB9"/>
<path d="M96.8838 56.8545H0.0996094V57.0714H96.8838V56.8545Z" fill="#FF8DB8"/>
<path d="M96.8838 57.0713H0.0996094V57.2882H96.8838V57.0713Z" fill="#FF8DB7"/>
<path d="M96.8838 57.2881H0.0996094V57.505H96.8838V57.2881Z" fill="#FF8EB6"/>
<path d="M96.8838 57.5049H0.0996094V57.7218H96.8838V57.5049Z" fill="#FF8EB5"/>
<path d="M96.8838 57.7236H0.0996094V57.9405H96.8838V57.7236Z" fill="#FF8EB4"/>
<path d="M96.8838 57.9404H0.0996094V58.1573H96.8838V57.9404Z" fill="#FF8EB3"/>
<path d="M96.8838 58.1572H0.0996094V58.3741H96.8838V58.1572Z" fill="#FF8EB2"/>
<path d="M96.8838 58.374H0.0996094V58.5909H96.8838V58.374Z" fill="#FF8FB1"/>
<path d="M96.8838 58.5928H0.0996094V58.8097H96.8838V58.5928Z" fill="#FF8FB0"/>
<path d="M96.8838 58.8096H0.0996094V59.0265H96.8838V58.8096Z" fill="#FF8FAF"/>
<path d="M96.8838 59.0264H0.0996094V59.2433H96.8838V59.0264Z" fill="#FF8FAE"/>
<path d="M96.8838 59.2432H0.0996094V59.4601H96.8838V59.2432Z" fill="#FF8FAD"/>
<path d="M96.8838 59.4619H0.0996094V59.6788H96.8838V59.4619Z" fill="#FF90AC"/>
<path d="M96.8838 59.6797H0.0996094V59.8966H96.8838V59.6797Z" fill="#FF90AB"/>
<path d="M96.8838 59.8965H0.0996094V60.1134H96.8838V59.8965Z" fill="#FF90AA"/>
<path d="M96.8838 60.1133H0.0996094V60.3302H96.8838V60.1133Z" fill="#FF90A9"/>
<path d="M96.8838 60.332H0.0996094V60.5489H96.8838V60.332Z" fill="#FF90A8"/>
<path d="M96.8838 60.5488H0.0996094V60.7657H96.8838V60.5488Z" fill="#FF90A7"/>
<path d="M96.8838 60.7656H0.0996094V60.9825H96.8838V60.7656Z" fill="#FF91A6"/>
<path d="M96.8838 60.9824H0.0996094V61.1993H96.8838V60.9824Z" fill="#FF91A5"/>
<path d="M96.8838 61.2012H0.0996094V61.4181H96.8838V61.2012Z" fill="#FF91A4"/>
<path d="M96.8838 61.418H0.0996094V61.6349H96.8838V61.418Z" fill="#FF91A3"/>
<path d="M96.8838 61.6348H0.0996094V61.8517H96.8838V61.6348Z" fill="#FF91A2"/>
<path d="M96.8838 61.8516H0.0996094V62.0685H96.8838V61.8516Z" fill="#FF92A1"/>
<path d="M96.8838 62.0703H0.0996094V62.2872H96.8838V62.0703Z" fill="#FF929F"/>
<path d="M96.8838 62.2871H0.0996094V62.504H96.8838V62.2871Z" fill="#FF929E"/>
<path d="M96.8838 62.5049H0.0996094V62.7218H96.8838V62.5049Z" fill="#FF929D"/>
<path d="M96.8838 62.7217H0.0996094V62.9386H96.8838V62.7217Z" fill="#FF929C"/>
<path d="M96.8838 62.9404H0.0996094V63.1573H96.8838V62.9404Z" fill="#FF939B"/>
<path d="M96.8838 63.1572H0.0996094V63.3741H96.8838V63.1572Z" fill="#FF939A"/>
<path d="M96.8838 63.374H0.0996094V63.5909H96.8838V63.374Z" fill="#FF9399"/>
<path d="M96.8838 63.5908H0.0996094V63.8077H96.8838V63.5908Z" fill="#FF9398"/>
<path d="M96.8838 63.8096H0.0996094V64.0265H96.8838V63.8096Z" fill="#FF9397"/>
<path d="M96.8838 64.0264H0.0996094V64.2433H96.8838V64.0264Z" fill="#FF9496"/>
<path d="M96.8838 64.2432H0.0996094V64.4601H96.8838V64.2432Z" fill="#FF9495"/>
<path d="M96.8838 64.46H0.0996094V64.6769H96.8838V64.46Z" fill="#FF9494"/>
<path d="M96.8838 64.6787H0.0996094V64.8956H96.8838V64.6787Z" fill="#FF9492"/>
<path d="M96.8838 64.8955H0.0996094V65.1124H96.8838V64.8955Z" fill="#FF9591"/>
<path d="M96.8838 65.1123H0.0996094V65.3292H96.8838V65.1123Z" fill="#FF9590"/>
<path d="M96.8838 65.3301H0.0996094V65.547H96.8838V65.3301Z" fill="#FF958F"/>
<path d="M96.8838 65.5488H0.0996094V65.7657H96.8838V65.5488Z" fill="#FF958E"/>
<path d="M96.8838 65.7656H0.0996094V65.9825H96.8838V65.7656Z" fill="#FF958D"/>
<path d="M96.8838 65.9824H0.0996094V66.1993H96.8838V65.9824Z" fill="#FF968C"/>
<path d="M96.8838 66.1992H0.0996094V66.4161H96.8838V66.1992Z" fill="#FF968B"/>
<path d="M96.8838 66.418H0.0996094V66.6349H96.8838V66.418Z" fill="#FF9689"/>
<path d="M96.8838 66.6348H0.0996094V66.8517H96.8838V66.6348Z" fill="#FF9688"/>
<path d="M96.8838 66.8516H0.0996094V67.0685H96.8838V66.8516Z" fill="#FF9687"/>
<path d="M96.8838 67.0684H0.0996094V67.2852H96.8838V67.0684Z" fill="#FF9786"/>
<path d="M96.8838 67.2871H0.0996094V67.504H96.8838V67.2871Z" fill="#FF9785"/>
<path d="M96.8838 67.5039H0.0996094V67.7208H96.8838V67.5039Z" fill="#FF9784"/>
<path d="M96.8838 67.7207H0.0996094V67.9376H96.8838V67.7207Z" fill="#FF9783"/>
<path d="M96.8838 67.9395H0.0996094V68.1563H96.8838V67.9395Z" fill="#FF9782"/>
<path d="M96.8838 68.1562H0.0996094V68.3731H96.8838V68.1562Z" fill="#FF9880"/>
<path d="M96.8838 68.374H0.0996094V68.5909H96.8838V68.374Z" fill="#FF987F"/>
<path d="M96.8838 68.5908H0.0996094V68.8077H96.8838V68.5908Z" fill="#FF987E"/>
<path d="M96.8838 68.8096H0.0996094V69.0265H96.8838V68.8096Z" fill="#FF987D"/>
<path d="M96.8838 69.0264H0.0996094V69.2433H96.8838V69.0264Z" fill="#FF997C"/>
<path d="M96.8838 69.2432H0.0996094V69.4601H96.8838V69.2432Z" fill="#FF997B"/>
<path d="M96.8838 69.46H0.0996094V69.6769H96.8838V69.46Z" fill="#FF9979"/>
<path d="M96.8838 69.6768H0.0996094V69.8936H96.8838V69.6768Z" fill="#FF9978"/>
<path d="M96.8838 69.8955H0.0996094V70.1124H96.8838V69.8955Z" fill="#FF9977"/>
<path d="M96.8838 70.1123H0.0996094V70.3292H96.8838V70.1123Z" fill="#FF9A76"/>
<path d="M96.8838 70.3291H0.0996094V70.546H96.8838V70.3291Z" fill="#FF9A75"/>
<path d="M96.8838 70.5459H0.0996094V70.7628H96.8838V70.5459Z" fill="#FF9A74"/>
<path d="M96.8838 70.7646H0.0996094V70.9815H96.8838V70.7646Z" fill="#FF9A72"/>
<path d="M96.8838 70.9814H0.0996094V71.1983H96.8838V70.9814Z" fill="#FF9B71"/>
<path d="M96.8838 71.1992H0.0996094V71.4161H96.8838V71.1992Z" fill="#FF9B70"/>
<path d="M96.8838 71.418H0.0996094V71.6349H96.8838V71.418Z" fill="#FF9B6F"/>
<path d="M96.8838 71.6348H0.0996094V71.8517H96.8838V71.6348Z" fill="#FF9B6E"/>
<path d="M96.8838 71.8516H0.0996094V72.0685H96.8838V71.8516Z" fill="#FF9B6C"/>
<path d="M96.8838 72.0684H0.0996094V72.2853H96.8838V72.0684Z" fill="#FF9C6B"/>
<path d="M96.8838 72.2852H0.0996094V72.502H96.8838V72.2852Z" fill="#FF9C6A"/>
<path d="M96.8838 72.5039H0.0996094V72.7208H96.8838V72.5039Z" fill="#FF9C69"/>
<path d="M96.8838 72.7207H0.0996094V72.9376H96.8838V72.7207Z" fill="#FF9C68"/>
<path d="M96.8838 72.9375H0.0996094V73.1544H96.8838V72.9375Z" fill="#FF9D66"/>
<path d="M96.8838 73.1562H0.0996094V73.3731H96.8838V73.1562Z" fill="#FF9D65"/>
<path d="M96.8838 73.373H0.0996094V73.5899H96.8838V73.373Z" fill="#FF9D64"/>
<path d="M96.8838 73.5898H0.0996094V73.8067H96.8838V73.5898Z" fill="#FF9D63"/>
<path d="M96.8838 73.8066H0.0996094V74.0235H96.8838V73.8066Z" fill="#FF9D62"/>
<path d="M96.8838 74.0254H0.0996094V74.2423H96.8838V74.0254Z" fill="#FF9E60"/>
<path d="M96.8838 74.2432H0.0996094V74.4601H96.8838V74.2432Z" fill="#FF9E5F"/>
<path d="M96.8838 74.46H0.0996094V74.6769H96.8838V74.46Z" fill="#FF9E5E"/>
<path d="M96.8838 74.6768H0.0996094V74.8936H96.8838V74.6768Z" fill="#FF9E5D"/>
<path d="M96.8838 74.8955H0.0996094V75.1124H96.8838V74.8955Z" fill="#FF9F5B"/>
<path d="M96.8838 75.1123H0.0996094V75.3292H96.8838V75.1123Z" fill="#FF9F5A"/>
<path d="M96.8838 75.3291H0.0996094V75.546H96.8838V75.3291Z" fill="#FF9F59"/>
<path d="M96.8838 75.5459H0.0996094V75.7628H96.8838V75.5459Z" fill="#FF9F58"/>
<path d="M96.8838 75.7646H0.0996094V75.9815H96.8838V75.7646Z" fill="#FFA056"/>
<path d="M96.8838 75.9814H0.0996094V76.1983H96.8838V75.9814Z" fill="#FFA055"/>
<path d="M96.8838 76.1982H0.0996094V76.4151H96.8838V76.1982Z" fill="#FFA054"/>
<path d="M96.8838 76.415H0.0996094V76.6319H96.8838V76.415Z" fill="#FFA053"/>
<path d="M96.8838 76.6338H0.0996094V76.8507H96.8838V76.6338Z" fill="#FFA051"/>
<path d="M96.8838 76.8506H0.0996094V77.0675H96.8838V76.8506Z" fill="#FFA150"/>
<path d="M96.8838 77.0684H0.0996094V77.2853H96.8838V77.0684Z" fill="#FFA14F"/>
<path d="M96.8838 77.2852H0.0996094V77.502H96.8838V77.2852Z" fill="#FFA14E"/>
<path d="M96.8838 77.5039H0.0996094V77.7208H96.8838V77.5039Z" fill="#FFA14C"/>
<path d="M96.8838 77.7207H0.0996094V77.9376H96.8838V77.7207Z" fill="#FFA24B"/>
<path d="M96.8838 77.9375H0.0996094V78.1544H96.8838V77.9375Z" fill="#FFA24A"/>
<path d="M96.8838 78.1543H0.0996094V78.3712H96.8838V78.1543Z" fill="#FFA249"/>
<path d="M96.8838 78.373H0.0996094V78.5899H96.8838V78.373Z" fill="#FFA247"/>
<path d="M96.8838 78.5898H0.0996094V78.8067H96.8838V78.5898Z" fill="#FFA346"/>
<path d="M96.8838 78.8066H0.0996094V79.0235H96.8838V78.8066Z" fill="#FFA345"/>
<path d="M96.8838 79.0234H0.0996094V79.2403H96.8838V79.0234Z" fill="#FFA344"/>
<path d="M96.8838 79.2422H0.0996094V79.4591H96.8838V79.2422Z" fill="#FFA342"/>
<path d="M96.8838 79.459H0.0996094V79.6759H96.8838V79.459Z" fill="#FFA441"/>
<path d="M96.8838 79.6758H0.0996094V79.8927H96.8838V79.6758Z" fill="#FFA440"/>
<path d="M96.8838 79.8936H0.0996094V80.1105H96.8838V79.8936Z" fill="#FFA43E"/>
<path d="M96.8838 80.1123H0.0996094V80.3292H96.8838V80.1123Z" fill="#FFA43D"/>
<path d="M96.8838 80.3291H0.0996094V80.546H96.8838V80.3291Z" fill="#FFA53C"/>
<path d="M96.8838 80.5459H0.0996094V80.7628H96.8838V80.5459Z" fill="#FFA53B"/>
<path d="M96.8838 80.7627H0.0996094V80.9796H96.8838V80.7627Z" fill="#FFA539"/>
<path d="M96.8838 80.9814H0.0996094V81.1983H96.8838V80.9814Z" fill="#FFA538"/>
<path d="M96.8838 81.1982H0.0996094V81.4151H96.8838V81.1982Z" fill="#FFA537"/>
<path d="M96.8838 81.415H0.0996094V81.6319H96.8838V81.415Z" fill="#FFA635"/>
<path d="M96.8838 81.6318H0.0996094V81.8487H96.8838V81.6318Z" fill="#FFA634"/>
<path d="M96.8838 81.8506H0.0996094V82.0675H96.8838V81.8506Z" fill="#FFA633"/>
<path d="M96.8838 82.0674H0.0996094V82.2843H96.8838V82.0674Z" fill="#FFA631"/>
<path d="M96.8838 82.2842H0.0996094V82.5011H96.8838V82.2842Z" fill="#FFA730"/>
<path d="M96.8838 82.501H0.0996094V82.7179H96.8838V82.501Z" fill="#FFA72F"/>
<path d="M96.8838 82.7197H0.0996094V82.9366H96.8838V82.7197Z" fill="#FFA72D"/>
<path d="M96.8838 82.9375H0.0996094V83.1544H96.8838V82.9375Z" fill="#FFA72C"/>
<path d="M96.8838 83.1543H0.0996094V83.3712H96.8838V83.1543Z" fill="#FFA82B"/>
<path d="M96.8838 83.3711H0.0996094V83.588H96.8838V83.3711Z" fill="#FFA829"/>
<path d="M96.8838 83.5898H0.0996094V83.8067H96.8838V83.5898Z" fill="#FFA828"/>
<path d="M96.8838 83.8066H0.0996094V84.0235H96.8838V83.8066Z" fill="#FFA827"/>
<path d="M96.8838 84.0234H0.0996094V84.2403H96.8838V84.0234Z" fill="#FFA925"/>
<path d="M96.8838 84.2402H0.0996094V84.4571H96.8838V84.2402Z" fill="#FFA924"/>
<path d="M96.8838 84.459H0.0996094V84.6759H96.8838V84.459Z" fill="#FFA923"/>
<path d="M96.8838 84.6758H0.0996094V84.8927H96.8838V84.6758Z" fill="#FFA921"/>
<path d="M96.8838 84.8926H0.0996094V85.1095H96.8838V84.8926Z" fill="#FFAA20"/>
<path d="M96.8838 85.1094H0.0996094V85.3263H96.8838V85.1094Z" fill="#FFAA1F"/>
<path d="M96.8838 85.3281H0.0996094V85.545H96.8838V85.3281Z" fill="#FFAA1D"/>
<path d="M96.8838 85.5449H0.0996094V85.7618H96.8838V85.5449Z" fill="#FFAA1C"/>
<path d="M96.8838 85.7627H0.0996094V85.9796H96.8838V85.7627Z" fill="#FFAB1B"/>
<path d="M96.8838 85.9814H0.0996094V86.1983H96.8838V85.9814Z" fill="#FFAB19"/>
<path d="M96.8838 86.1982H0.0996094V86.4151H96.8838V86.1982Z" fill="#FFAB18"/>
<path d="M96.8838 86.415H0.0996094V86.6319H96.8838V86.415Z" fill="#FFAB17"/>
<path d="M96.8838 86.6318H0.0996094V86.8487H96.8838V86.6318Z" fill="#FFAC15"/>
<path d="M96.8838 86.8486H0.0996094V87.0655H96.8838V86.8486Z" fill="#FFAC14"/>
<path d="M96.8838 87.0674H0.0996094V87.2843H96.8838V87.0674Z" fill="#FFAC13"/>
<path d="M96.8838 87.2842H0.0996094V87.5011H96.8838V87.2842Z" fill="#FFAC11"/>
<path d="M96.8838 87.501H0.0996094V87.7179H96.8838V87.501Z" fill="#FFAD10"/>
<path d="M96.8838 87.7197H0.0996094V87.9366H96.8838V87.7197Z" fill="#FFAD0E"/>
<path d="M96.8838 87.9365H0.0996094V88.1534H96.8838V87.9365Z" fill="#FFAD0D"/>
<path d="M96.8838 88.1533H0.0996094V88.3702H96.8838V88.1533Z" fill="#FFAD0C"/>
<path d="M96.8838 88.3701H0.0996094V88.587H96.8838V88.3701Z" fill="#FFAE0A"/>
<path d="M96.8838 88.5879H0.0996094V88.8048H96.8838V88.5879Z" fill="#FFAE09"/>
</g>
<path d="M21.1777 15.6249L20.4084 15.1182C20.4084 15.1182 18.7161 26.2114 19.3934 32.0955L21.4535 25.1624L21.1777 15.6249Z" fill="#E20077"/>
<path d="M19.2714 33.4942L19.1138 32.1255C18.4403 26.2732 20.1138 15.1856 20.1307 15.0734L20.1964 14.6396L21.4553 15.4698L21.7368 25.1962L21.7236 25.2393L19.2714 33.4923V33.4942ZM20.6242 15.5951C20.3502 17.5116 19.3033 25.3103 19.5566 30.5624L21.172 25.1252L20.9019 15.7783L20.6242 15.5951Z" fill="#3C1332"/>
<path d="M59.3418 10.3846L59.8897 9.74512C59.8897 9.74512 65.477 19.2191 67.0211 24.9387L62.5464 19.2472L59.3737 10.508" fill="#E20077"/>
<path d="M67.6488 26.1951L62.2941 19.3855L62.2791 19.3425L59.1064 10.6033L59.4517 10.478L59.1252 10.2013L59.9282 9.2627L60.129 9.60299C60.1853 9.69835 65.7539 19.1761 67.2886 24.8657L67.6469 26.1951H67.6488ZM62.7932 19.1107L66.3036 23.5737C64.5962 18.5927 60.7594 11.8168 59.8438 10.2294L59.6505 10.4556L62.7932 19.1107Z" fill="#3C1332"/>
<path d="M25.8113 46.5973H23.6368C23.6368 46.5973 21.7475 43.63 21.0852 41.2349C20.224 41.2966 19.3947 41.4536 19.3947 41.4536C19.3947 41.4536 16.5654 35.8724 18.042 30.2969C19.0776 30.1342 19.9313 30.0108 19.9313 30.0108C19.9313 30.0108 20.239 27.309 21.7156 24.6745C22.6387 24.4913 23.3948 24.7157 23.3948 24.7157" fill="#E20077"/>
<path d="M25.8116 46.8776H23.4832L23.4007 46.7467C23.3256 46.627 21.5939 43.8916 20.8791 41.532C20.1304 41.5993 19.455 41.7264 19.4475 41.7283L19.2392 41.7676L19.1436 41.5787C19.0254 41.3469 16.2823 35.8386 17.7683 30.2237L17.8152 30.0461L17.9972 30.0181C18.7252 29.904 19.3631 29.8087 19.6802 29.7619C19.7852 29.0626 20.2055 26.7909 21.4682 24.536L21.532 24.4238L21.6596 24.3976C22.6389 24.2013 23.4401 24.435 23.4738 24.4444L23.3125 24.9828C23.3125 24.9828 22.6765 24.8015 21.896 24.9249C20.5207 27.4397 20.213 30.0143 20.2111 30.0405L20.1867 30.2555L19.9728 30.2873C19.9728 30.2873 19.2186 30.3958 18.2711 30.5453C17.0835 35.3356 19.1042 40.1446 19.5601 41.1412C19.8659 41.0907 20.455 40.9991 21.0685 40.9561L21.2993 40.9393L21.3612 41.1599C21.9279 43.2054 23.4326 45.7221 23.7984 46.3167H25.8154V46.8776H25.8116Z" fill="#3C1332"/>
<path d="M23.7906 23.8928C23.7906 23.8928 28.2185 20.9517 34.3068 22.9729C40.3951 24.996 39.7421 42.9549 36.5207 45.4118C34.1229 47.2404 30.832 49.1045 26.4079 47.4236C26.4079 47.4236 17.3346 36.1004 23.7906 23.891" fill="#F9A21F"/>
<path d="M29.8095 48.3643C28.7269 48.3643 27.5618 48.1643 26.3066 47.6875L26.2353 47.6594L26.1865 47.5996C26.0927 47.4818 23.8694 44.679 22.4097 40.3263C21.0589 36.2988 20.1583 30.1567 23.5411 23.7622L23.5749 23.6986L23.6349 23.6593C23.8206 23.5359 28.2485 20.6659 34.395 22.7076C37.1474 23.6219 38.3181 27.3446 38.8153 30.3082C39.8435 36.4409 38.7928 44.034 36.6914 45.6364C34.9222 46.9863 32.6557 48.3643 29.8114 48.3643M26.5805 47.1901C30.8339 48.7719 34.0328 46.9545 36.3481 45.1895C38.2768 43.718 39.2412 36.254 38.2599 30.3998C37.5939 26.4266 36.1567 23.8837 34.2167 23.2386C28.7082 21.4082 24.5392 23.764 24.0045 24.0894C20.7605 30.2782 21.6311 36.224 22.9388 40.1299C24.2522 44.0545 26.2522 46.7619 26.5824 47.1901" fill="#3C1332"/>
<path d="M66.0843 40.568L68.1181 39.7996C68.1181 39.7996 68.8292 36.3574 68.5985 33.8837C69.4259 33.6369 70.257 33.491 70.257 33.491C70.257 33.491 70.9193 27.2741 67.5553 22.5792C66.529 22.7923 65.6866 22.9774 65.6866 22.9774C65.6866 22.9774 64.4389 20.5599 62.1218 18.6172C61.1931 18.7705 60.5664 19.2473 60.5664 19.2473" fill="#E20077"/>
<path d="M66.1837 40.8293L65.9848 40.3039L67.8704 39.5915C68.0017 38.9053 68.5139 36.0222 68.3169 33.9094L68.2963 33.6813L68.5177 33.6158C69.1049 33.4401 69.6903 33.3167 69.9943 33.2568C70.0674 32.163 70.2438 26.9502 67.4332 22.8928C66.4933 23.0891 65.7503 23.2537 65.7503 23.2537L65.5383 23.3004L65.4388 23.1078C65.4257 23.0854 64.223 20.7856 62.0429 18.9196C61.2643 19.0804 60.7446 19.4693 60.7389 19.4731L60.3975 19.0262C60.4256 19.0056 61.0917 18.5045 62.0767 18.3419L62.2043 18.3213L62.3037 18.4054C64.2868 20.0676 65.4857 22.044 65.8347 22.661C66.1462 22.5937 66.7784 22.4572 67.4989 22.3076L67.679 22.2702L67.786 22.4198C71.1725 27.1465 70.5646 33.2662 70.5384 33.5242L70.5159 33.7336L70.3076 33.771C70.3076 33.771 69.6228 33.8925 68.8986 34.0926C69.0712 36.5513 68.4239 39.7206 68.3957 39.8589L68.3638 40.0104L66.1856 40.8331L66.1837 40.8293Z" fill="#3C1332"/>
<path d="M59.9003 18.6226C59.9003 18.6226 54.7144 17.4353 49.7406 21.4759C44.7668 25.5164 51.7631 42.0805 55.6488 43.2416C58.5419 44.1054 62.8797 45.001 65.8216 41.5532C65.8216 41.5532 70.2813 27.7601 59.9021 18.6226" fill="#F9A21F"/>
<path d="M60.1835 44.2982C58.54 44.2982 56.9208 43.9149 55.5662 43.511C53.0314 42.7538 49.3484 36.0264 48.1289 29.9273C47.5397 26.9825 47.3108 23.0878 49.5604 21.261C54.583 17.1813 59.7445 18.3012 59.9621 18.3517L60.0315 18.3667L60.086 18.4134C65.5213 23.1981 66.8647 29.2617 67.0336 33.5041C67.2155 38.0925 66.1349 41.4973 66.0879 41.6394L66.0711 41.6918L66.0354 41.7348C64.3693 43.6868 62.2567 44.2982 60.1854 44.2982M58.069 18.7462C56.1628 18.7462 52.9845 19.2006 49.9169 21.693C48.3315 22.9812 47.8925 25.8662 48.6824 29.8151C49.8456 35.6375 53.401 42.277 55.7275 42.9707C58.872 43.9093 62.8252 44.5768 65.5682 41.4132C65.7033 40.9644 66.6396 37.6943 66.4707 33.5041C66.3037 29.3907 65.0035 23.5216 59.7708 18.8808C59.5756 18.8435 58.9602 18.7444 58.0709 18.7444" fill="#3C1332"/>
<path d="M60.6208 8.88622L60.3844 9.16482L58.9059 10.8906L58.1367 11.7918C58.1367 11.7918 58.041 11.7245 57.874 11.6086C57.6995 11.4889 57.4406 11.315 57.1291 11.1112C56.3149 10.5727 55.1479 9.83045 54.1722 9.32749C52.3748 9.31253 50.3954 9.39854 48.3447 9.55373C48.3279 9.55373 48.3091 9.55559 48.2922 9.55746C45.568 9.76501 42.7161 10.0922 39.99 10.4643C39.99 10.4643 34.1831 11.2814 31.4814 11.7974C31.4607 11.8012 31.442 11.8049 31.4232 11.8068C29.4044 12.1938 27.4738 12.6295 25.7439 13.1137C24.9334 13.856 23.9972 14.8825 23.3536 15.6154C23.1116 15.8922 22.9109 16.124 22.772 16.2848C22.6407 16.44 22.5675 16.5298 22.5675 16.5298L21.5863 15.8623L19.7044 14.5833L19.4023 14.3777L20.498 12.5678L23.0384 8.37018C23.0384 8.37018 29.9147 6.19192 39.1063 4.87936C48.3185 3.73881 55.5269 4.03984 55.5269 4.03984L59.0898 7.43156L60.617 8.88436L60.6208 8.88622Z" fill="#F9A21F"/>
<path d="M22.626 16.9097L19.0293 14.4622L22.8568 8.13874L22.9581 8.10695C23.0275 8.08451 29.962 5.90813 39.071 4.60678C48.2062 3.47559 55.4728 3.76166 55.5441 3.7654L55.6491 3.76914L61.0076 8.86794L58.1839 12.1718L57.9738 12.0203C57.9738 12.0203 57.88 11.953 57.7167 11.8408C57.5441 11.723 57.2852 11.5492 56.9756 11.3454C56.1857 10.8237 55.0544 10.102 54.1031 9.60836C52.4314 9.59714 50.499 9.6738 48.3676 9.8346H48.3563H48.3451L48.3169 9.83834C45.8384 10.0253 43.0523 10.3301 40.0316 10.7433C39.9753 10.7508 34.2003 11.5641 31.538 12.0746L31.4536 11.8053L31.508 12.0802C31.493 12.0839 31.4779 12.0858 31.4648 12.0876C29.3841 12.4878 27.5023 12.9197 25.8887 13.3684C25.0932 14.1032 24.1926 15.0942 23.5697 15.8028C23.3296 16.0777 23.1288 16.3095 22.9918 16.4703C22.8643 16.6199 22.793 16.7097 22.7911 16.7097L22.6279 16.9097H22.626ZM19.7835 14.2977L22.5172 16.1562C22.5303 16.1394 22.5453 16.1226 22.5603 16.1057C22.6992 15.9431 22.9018 15.7093 23.1438 15.4326C23.7892 14.6978 24.7311 13.6657 25.5548 12.9085L25.6035 12.8636L25.6692 12.8449C27.3128 12.3849 29.2302 11.9437 31.371 11.5323L31.4517 11.8034L31.3973 11.5286C31.4123 11.5249 31.4292 11.523 31.446 11.5211C34.1065 11.0125 39.8946 10.1973 39.9528 10.188C42.9847 9.7729 45.784 9.46813 48.2738 9.27928C48.2832 9.27928 48.3094 9.27554 48.3338 9.27367C50.5065 9.10914 52.4727 9.03248 54.1763 9.04743H54.2439L54.3039 9.07922C55.2889 9.58592 56.4709 10.3376 57.289 10.8779C57.6004 11.0836 57.8593 11.2575 58.0357 11.3771C58.0563 11.3902 58.0732 11.4033 58.092 11.4164L60.2365 8.90907L55.4146 4.32071C54.4915 4.2908 47.6302 4.11317 39.1441 5.1621C30.6824 6.36996 24.1101 8.3388 23.2264 8.60991L19.7817 14.2996L19.7835 14.2977Z" fill="#3C1332"/>
<g style="mix-blend-mode:darken">
<mask id="mask1_61_6061" style="mask-type:luminance" maskUnits="userSpaceOnUse" x="22" y="7" width="37" height="10">
<path d="M58.3567 7.76855H22.2266V16.5807H58.3567V7.76855Z" fill="white"/>
</mask>
<g mask="url(#mask1_61_6061)">
<path d="M28.5404 10.4381C35.0077 9.5631 52.0549 5.60859 56.0212 9.34808C56.6648 9.95388 57.9181 10.9411 58.3571 11.7077C55.2464 10.5728 55.813 9.04144 52.5071 9.26394C50.6571 9.38922 45.1355 9.60424 43.3212 9.99128C39.0866 10.8962 34.5874 11.2272 30.3322 12.0256C28.9213 12.2892 27.0882 12.7828 25.8124 13.454C25.2214 13.7644 22.1557 17.0084 22.2288 16.5317C22.3752 15.5687 24.6848 12.6631 25.1219 12.1789C26.1107 11.0832 27.0845 10.6363 28.5404 10.4381Z" fill="#F8684E"/>
</g>
</g>
<path d="M24.2678 43.4989C25.2885 44.1851 26.6581 44.417 27.8364 44.0094L27.872 44.0935C27.5737 44.2244 27.2622 44.3497 26.9339 44.4058C25.9264 44.6058 24.887 44.4357 23.9639 43.9701L24.2678 43.4971" fill="#3C1332"/>
<path d="M21.6221 28.667C22.6015 27.6648 24.0443 27.0048 25.4458 27.3525L25.4289 27.4423C25.0968 27.4143 24.7628 27.4012 24.442 27.476C23.4945 27.6573 22.6409 28.2799 22.0592 29.0222L21.6221 28.6689" fill="#3C1332"/>
<path d="M66.837 37.2641C65.912 38.2607 64.5799 38.8684 63.2178 38.7767V38.6851C63.5386 38.6571 63.8576 38.6197 64.1596 38.5187C65.0414 38.257 65.8557 37.6568 66.3886 36.9238L66.837 37.2623" fill="#3C1332"/>
<path d="M63.1031 22.6292C61.9511 21.958 60.4164 21.6177 59.1874 22.302L59.1387 22.2254C59.4389 22.0272 59.7653 21.8533 60.1237 21.7617C61.2119 21.4793 62.3564 21.6906 63.377 22.1394L63.1031 22.6292Z" fill="#3C1332"/>
<g style="mix-blend-mode:darken">
<mask id="mask2_61_6061" style="mask-type:luminance" maskUnits="userSpaceOnUse" x="17" y="36" width="16" height="13">
<path d="M32.7741 36.0488H17.8301V48.0956H32.7741V36.0488Z" fill="white"/>
</mask>
<g mask="url(#mask2_61_6061)">
<path d="M21.8261 36.131C21.7154 36.0001 21.6854 36.4488 21.7117 36.619C21.7379 36.7891 21.7398 38.0101 21.8392 38.1503C24.7173 42.2619 29.421 41.7683 31.513 40.0818C30.755 41.4766 30.8488 42.0693 31.5036 43.5146C32.074 44.773 32.0308 46.3622 32.7738 47.529C31.4698 47.6842 31.194 47.9272 29.89 48.0824C29.1339 48.1722 28.0345 47.8019 27.2915 47.6355C26.5485 47.4691 25.8299 46.9924 25.5879 46.2725C24.7999 46.6184 23.9425 46.9232 23.359 46.2912C22.7755 45.6592 22.0456 44.1877 21.813 43.3613C21.6554 42.7966 21.5015 42.0525 21.1826 41.5607C20.8617 41.069 20.4865 41.284 19.8992 41.3083C19.5353 41.3233 19.3439 41.0073 19.008 40.8652C18.6666 40.7212 18.5277 40.3248 18.4245 39.9696C18.1262 38.9431 17.3476 37.6287 18.2557 36.7854C18.6159 36.4507 21.5672 35.8243 21.8261 36.131Z" fill="#F8684E"/>
</g>
</g>
<g style="mix-blend-mode:darken">
<mask id="mask3_61_6061" style="mask-type:luminance" maskUnits="userSpaceOnUse" x="59" y="29" width="12" height="15">
<path d="M70.3812 29.1719H59.002V43.266H70.3812V29.1719Z" fill="white"/>
</mask>
<g mask="url(#mask3_61_6061)">
<path d="M70.2516 31.9859C70.2066 30.9183 70.4693 30.0245 70.3229 29.3234C70.2254 28.8541 66.6118 29.5908 66.3172 29.9666C66.3904 29.9011 66.0377 29.6992 66.0639 29.8544C66.0939 30.0227 66.4804 31.1819 66.4317 31.3464C65.017 36.1573 61.5197 37.0959 59 36.161C59.3659 37.1576 59.3809 37.9074 59.1614 39.1956C60.0507 39.2667 60.2608 39.5808 61.501 40.052C62.5723 40.5138 63.4766 42.0956 63.2384 43.268C63.8087 43.0567 64.4016 42.78 64.8031 42.5369C65.4542 42.1424 66.1427 41.0598 66.1446 40.3007C67.0039 40.3792 67.8069 40.3661 68.1597 39.5808C68.5124 38.7974 68.6381 37.1483 68.5912 36.2901C68.5593 35.7048 68.4486 34.454 68.5949 33.8874C68.7413 33.3209 68.715 33.8874 69.2797 33.7248C69.6287 33.6238 69.9815 33.736 70.2535 33.4948C70.5293 33.2498 70.2648 32.3561 70.2498 31.9878" fill="#F8684E"/>
</g>
</g>
<g style="mix-blend-mode:darken">
<mask id="mask4_61_6061" style="mask-type:luminance" maskUnits="userSpaceOnUse" x="22" y="43" width="11" height="5">
<path d="M32.2711 43.832H22.1621V47.9193H32.2711V43.832Z" fill="white"/>
</mask>
<g mask="url(#mask4_61_6061)">
<path d="M24.2255 44.0137C25.4131 45.4384 27.4976 45.9152 29.3457 46.1172C29.9386 46.1826 30.7603 46.1433 31.3288 45.9657C31.8748 45.7974 31.9517 45.6591 32.0512 45.6422C32.3664 45.588 32.023 46.5005 32.1243 46.8015C32.2257 47.0969 32.2744 47.411 32.2707 47.7233C31.2538 47.7812 30.2369 47.8392 29.22 47.8953C28.235 47.9514 27.1092 47.9551 26.4357 47.2353C26.0811 46.8557 25.7509 46.2499 25.2443 46.3714C24.9572 46.4388 24.7827 46.7323 24.5182 46.8594C23.672 47.2689 22.732 45.1225 22.3662 44.5223C21.6288 43.3125 23.066 44.0642 24.0116 44.038C24.158 43.8903 24.263 44.0548 24.2274 44.0118" fill="#DE2D4A"/>
</g>
</g>
<g style="mix-blend-mode:darken">
<mask id="mask5_61_6061" style="mask-type:luminance" maskUnits="userSpaceOnUse" x="63" y="38" width="6" height="6">
<path d="M68.4277 38.7109H63.1143V43.3685H68.4277V38.7109Z" fill="white"/>
</mask>
<g mask="url(#mask5_61_6061)">
<path d="M65.865 39.9357C65.8969 39.8497 65.9307 39.7637 65.9625 39.6759C66.7074 39.5094 67.4222 39.2047 68.0564 38.7802C68.1239 38.7354 68.2065 38.6886 68.2797 38.7204C68.3378 38.7466 68.3622 38.8139 68.3791 38.8737C68.5048 39.3281 68.3885 39.9002 67.9645 40.1096C67.5648 40.3078 67.0639 40.1134 66.6492 40.2779C66.0282 40.5228 65.955 41.3605 65.5723 41.9065C65.0882 42.5945 64.1295 42.774 63.5329 43.3667C63.6923 43.2078 63.3959 42.2524 63.3396 42.071C63.1651 41.5101 62.8762 41.396 63.4672 41.181C64.3528 40.8594 65.1408 40.5696 65.865 39.9339" fill="#DE314D"/>
</g>
</g>
<g style="mix-blend-mode:darken">
<mask id="mask6_61_6061" style="mask-type:luminance" maskUnits="userSpaceOnUse" x="20" y="22" width="10" height="5">
<path d="M29.1779 22.2969H20.6055V26.9058H29.1779V22.2969Z" fill="white"/>
</mask>
<g mask="url(#mask6_61_6061)">
<path d="M22.6919 26.4908C22.5906 25.9785 23.1103 25.5765 23.57 25.3241C25.2886 24.3817 27.2698 23.5983 29.1779 24.0583C28.5907 23.4263 27.9565 22.8373 27.2848 22.2988C26.5663 22.813 25.737 23.172 24.8683 23.3403C24.4536 23.4207 23.9902 23.4824 23.7238 23.8077C23.4893 24.0919 23.4199 24.5612 23.0634 24.6547C22.7069 24.7482 22.2923 24.3724 21.9921 24.5837C21.917 24.636 21.8682 24.7164 21.8213 24.7949C21.4311 25.4512 20.8288 26.1842 20.6074 26.9059C20.78 26.8404 22.6262 26.1617 22.6938 26.4908" fill="#DE2D4A"/>
</g>
</g>
<g style="mix-blend-mode:darken">
<mask id="mask7_61_6061" style="mask-type:luminance" maskUnits="userSpaceOnUse" x="53" y="18" width="11" height="4">
<path d="M63.8573 18.3809H53.2305V21.2678H63.8573V18.3809Z" fill="white"/>
</mask>
<g mask="url(#mask7_61_6061)">
<path d="M53.5025 20.6455C53.4125 20.6717 53.3205 20.696 53.2305 20.7222C54.3431 20.4099 55.4688 20.1089 56.6208 20.0248C57.7746 19.9406 58.8403 19.8565 59.9529 20.165C60.8854 20.423 60.9267 20.4773 61.5909 20.7166C61.9042 20.8288 61.9305 21.1597 62.255 21.0924C62.7898 20.9821 63.3245 20.8718 63.8573 20.7615C63.7541 20.165 63.0505 19.8902 62.7222 19.3797C62.6021 19.1927 62.529 18.9702 62.3657 18.8225C61.9548 18.4505 61.3169 18.7459 60.7916 18.9235C60.694 18.9572 60.589 18.9852 60.4876 18.9646C60.2906 18.9254 60.1762 18.7253 60.0223 18.5963C59.739 18.3588 59.3319 18.3682 58.9623 18.3906C57.6377 18.4692 56.3131 18.5477 54.9885 18.6262C54.904 18.6318 54.8177 18.6374 54.7427 18.6748C54.4913 18.8038 54.5419 19.1684 54.4538 19.4377C54.3318 19.8172 53.9209 20.0061 53.5907 20.2323C53.4838 20.3052 53.3768 20.395 53.3412 20.5203C53.3018 20.6605 53.3656 20.8082 53.3824 20.9522C53.4125 21.2195 53.7239 21.1392 53.4856 21.2663" fill="#DE314D"/>
</g>
</g>
<g style="mix-blend-mode:darken">
<mask id="mask8_61_6061" style="mask-type:luminance" maskUnits="userSpaceOnUse" x="53" y="18" width="17" height="9">
<path d="M69.402 18.3125H53.1953V26.8909H69.402V18.3125Z" fill="white"/>
</mask>
<g mask="url(#mask8_61_6061)">
<path d="M62.3531 24.9875C63.8447 25.5596 64.9141 26.1598 65.3269 26.8909C66.8091 26.7525 67.9123 26.6684 69.402 26.6385C69.0418 26.0065 68.4114 24.0171 68.0511 23.387C67.9442 23.2 67.8297 23.0055 67.644 22.8952C67.2275 22.6503 66.7078 22.9476 66.2237 22.9494C65.6365 22.9513 65.1355 22.5063 64.8372 22.0033C64.537 21.5004 64.3794 20.9264 64.1017 20.4122C63.7171 19.6998 63.1017 19.1146 62.37 18.7668C62.203 18.6864 62.021 18.6191 61.8371 18.6434C61.7002 18.6621 61.5782 18.7313 61.4506 18.7818C61.1561 18.9014 60.824 18.9295 60.5125 18.8603C60.218 18.7967 59.9478 18.6509 59.6645 18.5462C58.6813 18.1816 57.5913 18.3181 56.55 18.4583C55.6062 18.5854 54.5612 18.7706 53.9833 19.5259C53.6756 19.9279 53.5424 20.4477 53.1953 20.8179C53.2028 20.8104 55.0284 22.4315 55.1954 22.5792C55.4411 22.7961 55.7545 23.2149 56.0809 23.2112C56.2085 23.2093 57.049 24.6397 57.2423 24.6023C58.7658 24.3069 60.9215 24.4396 62.355 24.9893" fill="#F8684E"/>
</g>
</g>
<g style="mix-blend-mode:darken">
<mask id="mask9_61_6061" style="mask-type:luminance" maskUnits="userSpaceOnUse" x="17" y="22" width="14" height="11">
<path d="M30.6949 22.5391H17.584V32.4917H30.6949V22.5391Z" fill="white"/>
</mask>
<g mask="url(#mask9_61_6061)">
<path d="M21.6591 32.3574C24.115 28.9638 27.132 28.5618 30.5148 28.5001C30.8075 27.582 30.7456 26.1498 30.3441 25.2729C30.0214 24.5699 29.5016 23.979 28.9876 23.3994C28.6442 23.0124 28.2521 22.5992 27.7361 22.5468C27.4828 22.5206 27.2314 22.5879 26.9875 22.6534C26.2971 22.8385 25.6085 23.0236 24.9181 23.2087C24.6573 23.2779 24.389 23.3527 24.1826 23.5266C23.873 23.7846 23.7473 24.2296 23.4002 24.4334C23.055 24.6353 22.616 24.5306 22.2182 24.5792C21.4283 24.6765 20.8504 25.387 20.5634 26.1255C20.2763 26.8641 20.1938 27.6699 19.9105 28.4085C19.6272 29.1489 19.7116 30.0127 18.9255 30.123C17.9573 30.2595 17.4564 31.8974 17.6177 32.2527C17.9067 32.32 18.963 32.5275 19.4189 32.4883C19.7416 32.4602 21.5146 32.563 21.6628 32.3574" fill="#F8684E"/>
</g>
</g>
<path d="M52.8979 21.0686C52.8979 21.0686 56.534 18.7371 56.125 7.77098L54.7385 5.08789L51.8379 17.8358L52.8979 21.0686Z" fill="#EF9C8B"/>
<path d="M52.7931 20.7113C52.7762 20.7169 52.7574 20.7207 52.7424 20.7263C52.7161 20.7375 52.6843 20.7618 52.6936 20.7543L52.7011 20.7487L52.7161 20.7375L52.7499 20.7113C55.6712 17.9329 55.9057 11.6243 55.8063 7.78201L55.8419 7.91477L54.4723 5.2242L55.0276 5.15315C54.3091 8.21392 53.5004 11.6169 52.7424 14.6889L51.9432 17.86L51.9394 17.802C52.1007 18.3311 52.2508 18.8659 52.4084 19.41L52.7912 20.7094L52.7931 20.7113ZM53.0238 21.4143C52.9563 21.2143 52.4066 19.7316 52.324 19.4941C52.1289 18.9612 51.9244 18.419 51.733 17.8712L51.7236 17.845L51.7311 17.8132C52.5623 13.6586 53.5398 9.1488 54.4479 5.026L54.6205 4.22949L55.0032 4.95682L56.4085 7.63056L56.4404 7.69226V7.76518C56.5793 11.8824 56.416 17.299 53.8137 20.6945C53.6111 20.9413 53.386 21.1825 53.1252 21.3732C53.1345 21.3676 53.1008 21.3919 53.0707 21.405C53.0576 21.4125 53.0407 21.4143 53.0238 21.42" fill="#3C1332"/>
<path d="M69.771 88.3647C68.2025 84.7635 64.861 72.627 64.1048 66.4493C64.5251 66.5653 65.4201 66.7541 66.5026 66.4961C67.4558 66.2699 68.1087 65.8043 68.4389 65.5313C67.4557 65.3013 65.9942 64.6731 64.6883 63.6466C63.1724 62.4556 62.1705 61.2926 61.4988 60.3371C62.1611 60.5578 63.1217 60.7821 64.4726 60.6587C65.1161 60.6008 65.6339 60.4138 65.9942 60.2455L65.285 59.7743C64.1105 58.9928 63.0879 58.0018 62.2962 56.8351C61.7577 56.0405 61.298 55.1897 60.7577 54.1726C59.904 52.5646 59.5719 50.9977 59.3974 50.2723C58.8683 48.0529 58.9753 45.9644 59.0278 44.8949C59.1535 42.4193 59.5869 41.8117 59.3974 39.6091C59.2511 37.9189 59.5513 36.3221 58.4143 34.7758C57.4649 33.4857 56.5719 33.5997 57.0522 32.807C57.4293 32.1862 57.8327 30.9223 56.7989 29.9724C56.9828 29.5966 57.1535 29.2675 57.1366 28.4018C57.1272 27.8316 56.6713 26.6686 56.5831 26.3713C57.0447 26.3937 57.4499 26.2217 57.5062 25.6814C57.5831 24.9279 57.1216 24.2435 56.0765 23.2918C54.4911 21.8465 53.1534 21.1397 52.7557 20.1656C52.3523 19.1784 52.6712 18.1444 53.3091 16.0746C53.7238 14.7321 54.2529 13.5953 54.8307 12.3519C55.4855 10.9459 55.9227 10.1961 56.0765 8.90411C56.1666 8.13938 56.1141 7.55415 56.0765 7.15777C56.0146 6.51831 55.6957 3.88945 53.6787 1.73363C53.0615 1.07361 52.3767 0.363104 51.5117 0.447242C50.7406 0.522032 50.2397 1.17644 50.2209 1.2288C49.8363 2.24033 50.2716 3.55663 50.4967 5.50304C50.7706 7.86453 50.0126 9.77729 49.6674 10.6505C48.9394 12.4884 48.264 12.6773 46.5304 15.7063C45.8812 16.8412 45.7593 16.9496 45.4534 17.604C44.778 18.6193 44.2433 18.6904 43.8399 19.0924C43.7255 18.6605 37.7816 19.1204 37.352 19.8421C32.5977 17.3423 31.5845 15.0369 31.0798 13.4532C30.4344 11.4301 30.3744 10.3027 30.0648 8.71901C29.9053 7.90941 29.744 7.03436 29.0723 6.69594C28.2561 6.28272 27.5281 6.6735 27.0816 7.20077C25.6895 8.85176 25.3836 10.8056 25.3592 13.1297C25.3311 15.9044 26.0028 19.1746 27.2036 21.2183C28.53 23.4751 29.6614 23.2226 30.4269 25.8253C30.5695 26.3115 30.6708 26.5919 30.5245 27.8372C30.4757 28.256 30.3256 28.8898 29.7402 30.0884C29.4963 30.5894 28.9222 31.8254 28.864 32.1563C28.8302 32.347 28.8321 32.7041 29.0723 32.9827C29.41 33.3772 29.9541 32.8967 30.0254 32.8892C29.9991 33.1604 30.031 34.0279 30.2017 34.5458C30.4325 35.247 30.8603 35.6845 31.0779 35.879C31.061 36.2623 31.0911 36.8195 31.3556 37.3953C31.729 38.2124 32.2618 38.3882 32.2318 38.9117C32.2037 39.4203 31.1717 39.9457 31.0329 41.8079C30.9485 42.9335 31.2393 43.8235 31.3556 44.1975C31.7646 45.5213 32.1924 45.626 32.5545 47.0002C32.6915 47.5163 32.8078 47.9631 32.7853 48.5633C32.7309 49.9713 31.9541 50.966 31.6333 51.368C30.6689 52.5702 29.4513 53.0376 28.9128 53.2078C29.4325 53.449 29.9015 53.4789 30.1586 53.4826C30.4663 53.4864 30.8678 53.4883 31.2918 53.4172C30.8622 54.2324 30.3162 55.0757 29.3293 56.1489C28.3218 57.2427 27.3068 57.9943 26.5169 58.4936C26.9409 58.6843 27.7402 58.976 28.7758 58.9535C29.6895 58.933 30.3969 58.6768 30.8059 58.4936C30.7984 59.8435 30.6108 62.205 29.4212 64.8358C28.1698 67.6049 26.4024 69.3643 25.363 70.2599C26.0553 70.5815 27.061 70.531 27.6689 70.3983C28.3968 70.2393 28.971 69.9159 29.4212 69.6634L28.727 88.6956L69.771 88.3609V88.3647Z" fill="#FFF4D6"/>
<path d="M37.6374 20.0098L37.6279 20.0117C37.6279 20.0135 37.6298 20.0154 37.6374 20.0098Z" fill="#3C1332"/>
<path d="M68.5551 82.8188C67.4143 79.2326 66.3974 75.5978 65.5269 71.9368C65.1347 70.2578 64.7726 68.5694 64.5043 66.8736C65.9584 67.1297 67.5156 66.7315 68.6507 65.7816L69.1554 65.3647C68.253 65.1702 67.3599 64.8898 66.5344 64.4429C64.9077 63.5772 63.4949 62.317 62.3354 60.8866C63.6056 61.1334 64.9527 61.0773 66.1347 60.5407L66.662 60.2958L66.1779 59.9723C65.0278 59.245 63.8964 58.3868 63.0559 57.3079C62.2097 56.2478 61.5643 54.9876 60.917 53.7591C59.7294 51.2668 59.2228 48.4808 59.3147 45.7211C59.3372 45.0237 59.371 44.33 59.4479 43.6438C59.6356 42.2733 59.8682 40.7812 59.6881 39.392C59.6037 37.9093 59.7219 36.2284 58.8569 34.9065C58.5173 34.3624 58.0352 33.8688 57.5248 33.5004C57.3897 33.3976 57.249 33.2835 57.2153 33.2218C57.1815 33.1508 57.2265 33.0872 57.2678 32.9956C57.8738 32.0532 57.932 30.7444 57.1365 29.9142C57.6637 28.8111 57.3804 27.736 57.007 26.6478C57.3935 26.5543 57.7331 26.2795 57.8044 25.8606C58.1421 24.1685 55.7837 22.6428 54.6561 21.678C53.2114 20.5636 52.5641 19.956 53.0857 18.032C53.6861 15.4742 54.8081 13.1837 55.9319 10.7624C56.1402 10.2613 56.2997 9.72097 56.3803 9.17687C56.7424 6.48256 55.84 3.63681 54.0294 1.60626C53.476 1.01542 52.8474 0.27874 51.96 0.116072C51.1532 -0.0297686 50.2902 0.42645 49.8887 1.10891C49.6297 1.80071 49.716 2.58414 49.808 3.25164C49.9393 4.16221 50.1138 5.04473 50.1851 5.95342C50.2583 7.08836 50.1063 8.22891 49.7686 9.32271C49.4646 10.2875 49.0988 11.2448 48.5115 12.0787L47.5959 13.3576C46.8361 14.4271 46.1944 15.6163 45.5227 16.7344C45.2469 17.1887 45.1944 17.4542 44.866 17.8301C44.5715 18.2302 44.1681 18.4546 43.7985 18.7799C43.6972 18.7537 43.5865 18.75 43.4852 18.7406C43.1925 18.7238 42.9129 18.7388 42.6259 18.7294C42.3463 18.7107 42.0592 18.5911 41.7759 18.6284C41.6352 18.6415 41.4983 18.6939 41.3613 18.7388C40.8134 18.907 40.2281 18.6939 39.6764 18.8379C38.9916 19.0791 38.2693 19.1015 37.5788 19.3446C37.4869 19.3838 37.4081 19.41 37.3312 19.4493C35.3368 18.2451 33.2786 16.9382 32.1191 14.874C31.4286 13.61 31.1209 12.1666 30.8414 10.7587C30.7645 10.2875 30.5374 8.98989 30.4511 8.55611C30.2879 7.74651 30.0965 6.78359 29.271 6.34981C28.2053 5.7945 27.164 6.34607 26.5392 7.2529C24.4097 10.065 24.7944 14.7487 25.5617 18.0133C25.937 19.4848 26.4848 20.9694 27.4117 22.2053C27.982 23.0149 28.8564 23.6076 29.3929 24.3985C29.7682 24.9519 30.0252 25.6699 30.1866 26.3206C30.3686 27.4742 30.0515 28.6466 29.5412 29.6936C29.1903 30.4864 28.6875 31.3483 28.5093 32.2028C28.4548 32.7189 28.71 33.3882 29.2898 33.478C29.4436 33.4929 29.5712 33.4761 29.6875 33.4406C29.7307 34.3942 30.0365 35.3459 30.7363 36.0152C30.6669 36.8753 31.0046 37.7952 31.6388 38.3861C31.832 38.5955 31.9952 38.7208 31.9577 38.9451C31.7513 39.3733 31.3498 39.7753 31.1641 40.239C30.6144 41.4655 30.665 42.8454 31.0234 44.0982C31.1997 44.8984 31.7194 45.6837 32.0328 46.4092C32.1772 46.7756 32.2823 47.1739 32.3705 47.5591C32.939 49.9243 31.0121 52.2428 28.8151 52.9121L28.0327 53.159C28.6518 53.4469 29.3686 53.8321 30.0721 53.8096C30.2841 53.8152 30.4924 53.8152 30.7025 53.8059C29.6294 55.5934 28.0965 57.1041 26.3385 58.2241L25.8263 58.5513C26.7043 58.9832 27.6687 59.3086 28.6575 59.288C29.271 59.288 29.8845 59.1833 30.4643 58.9851C30.3179 63.1883 28.3535 67.2812 25.1452 70.0185L24.7568 70.3532C25.2522 70.5925 25.8319 70.8299 26.3704 70.8262C27.301 70.901 28.2278 70.6505 29.0552 70.241L27.9745 88.6748L29.4736 88.729L29.7457 69.68L29.7532 69.1023C29.3179 69.3528 28.7832 69.6539 28.3385 69.8465C27.6237 70.1419 26.7794 70.2709 26.012 70.1194C28.3742 67.93 30.0552 65.0225 30.7457 61.8813C31.0346 60.6099 31.1472 59.2936 31.1322 57.9904C29.907 58.6298 28.5243 58.8205 27.2203 58.4186C29.1959 57.0406 30.8282 55.1671 31.8733 53C31.3161 53.0991 30.6556 53.2113 30.0909 53.1683C30.029 53.1664 29.9689 53.159 29.907 53.1533C30.7982 52.7046 31.5806 52.0352 32.1472 51.22C33.2973 49.6513 33.3236 47.933 32.6069 46.1773C32.2542 45.3752 31.7907 44.775 31.5712 43.9355C31.2147 42.8193 31.1322 41.5235 31.635 40.4596C31.8095 40.0819 32.0422 39.794 32.2917 39.4425C32.4493 39.248 32.5544 38.8928 32.4737 38.6404C32.408 38.3805 32.2542 38.186 32.1116 37.9897C31.635 37.3558 31.4343 36.679 31.4061 35.9012L31.3986 35.7366L31.2973 35.6432C30.5112 34.9757 30.3067 33.9136 30.3611 32.9283L30.3986 32.4889L29.984 32.5637C29.8526 32.5917 29.8845 32.5955 29.8151 32.6254C29.74 32.6703 29.6369 32.732 29.5618 32.7637C29.4793 32.7993 29.4098 32.8086 29.3854 32.8011C29.3611 32.7918 29.3648 32.8011 29.3123 32.7357C29.0121 32.2851 29.3911 31.7746 29.5543 31.3315C29.9521 30.4079 30.4624 29.5422 30.7438 28.5531C30.9352 27.7753 31.0271 26.9787 30.8939 26.1729C30.6969 25.3895 30.453 24.6752 30.0008 23.9909C29.4474 23.1532 28.5787 22.5661 28.0083 21.7603C26.1133 19.0622 25.6255 15.2741 25.7906 12.0451C25.8807 10.4932 26.224 8.96559 27.1715 7.72408C27.5693 7.14071 28.2109 6.69198 28.8976 7.06219C29.3854 7.30712 29.5299 8.14103 29.6444 8.71317C30.1228 11.4168 30.4399 14.3766 32.303 16.5474C33.6407 18.1049 35.3649 19.2604 37.1999 20.1336L37.6258 20.0139C37.6258 20.0139 37.6445 19.9821 37.6689 19.9653C37.8077 19.8587 37.9841 19.7896 38.1605 19.7297C38.6633 19.5633 39.228 19.4343 39.7646 19.468C40.3144 19.4586 40.8359 19.1314 41.3951 19.2212C41.6727 19.2866 41.9448 19.3053 42.2187 19.2155C42.6409 19.0697 43.29 19.0996 43.654 19.2548C43.6446 19.2492 43.6109 19.2286 43.5902 19.1613L44.0199 19.2773C44.2825 19.0604 44.6428 18.9033 44.9298 18.6789C45.2544 18.4284 45.5208 18.1124 45.7479 17.7796C45.943 17.3477 46.2676 16.826 46.5209 16.4109C46.7948 15.9528 47.0443 15.5004 47.3183 15.0591C47.8605 14.1541 48.4702 13.3408 49.0875 12.4751C49.7142 11.5888 50.1157 10.5605 50.4384 9.52838C50.7967 8.36727 50.9618 7.13137 50.8849 5.90855C50.8155 4.99237 50.6335 4.05563 50.5041 3.15628C50.4234 2.53179 50.3502 1.94842 50.5397 1.38937C50.7217 1.16313 50.9806 0.968676 51.2452 0.873319C52.1645 0.542374 52.9131 1.42676 53.5154 2.06996C54.8756 3.5695 55.6449 5.56826 55.7724 7.58198C55.8419 8.58416 55.7011 9.58261 55.3109 10.5137C54.4816 12.3891 53.4591 14.2962 52.8812 16.3474C52.5266 17.6375 51.8962 19.0734 52.506 20.4103C52.8943 21.1769 53.6242 21.6817 54.2452 22.1941C54.658 22.5213 55.0651 22.8429 55.4572 23.1813C56.1702 23.8544 57.3166 24.6733 57.1758 25.7279C57.1046 26.1766 56.4817 26.0532 56.1608 26.0551C56.3878 26.8385 56.7631 27.6032 56.8456 28.4016C56.8606 28.9121 56.8156 29.4001 56.5548 29.8525L56.4648 30.0339C57.2753 30.6621 57.3578 31.6344 56.9019 32.5057L56.8456 32.6104L56.7762 32.7282C56.6505 32.9339 56.5717 33.2667 56.7237 33.5004C57.0539 33.9585 57.5774 34.1829 57.917 34.6185C58.0858 34.7962 58.2171 35.0112 58.3597 35.2131C59.1609 36.4845 58.992 37.9785 59.0821 39.4331C59.2509 40.8579 59.0108 42.1592 58.8213 43.5728C58.7387 44.2833 58.7012 44.9938 58.6749 45.7005C58.5042 49.2718 59.4442 52.871 61.341 55.9224C62.0427 57.1696 62.9471 58.3494 64.0615 59.2674C64.4105 59.5666 64.8477 59.8751 65.2736 60.1612C64.0878 60.5127 62.767 60.3986 61.6 60.0247L60.6468 59.7012C62.0803 61.8514 63.9227 63.8072 66.2267 65.0225C66.6995 65.2674 67.1873 65.4806 67.6958 65.6526C66.6563 66.279 65.3617 66.466 64.1891 66.1331L63.7219 65.9985C63.7219 65.9985 63.7764 66.4884 63.7745 66.4884C64.206 70.2709 65.0222 73.9767 65.8908 77.6751C66.8064 81.3753 67.7126 85.0868 69.0785 88.6617C69.0785 88.6617 70.4557 88.0672 70.4538 88.0672C69.7314 86.4274 69.1067 84.5352 68.5494 82.8188" fill="#3C1332"/>
<path d="M51.3615 18.4512C51.7198 19.5394 52.7255 20.2723 53.6748 20.8239L53.3015 21.4016C52.3821 20.6369 51.459 19.6889 51.2695 18.468L51.3596 18.4512" fill="#3C1332"/>
<g style="mix-blend-mode:darken">
<mask id="mask10_61_6061" style="mask-type:luminance" maskUnits="userSpaceOnUse" x="43" y="45" width="12" height="7">
<path d="M54.9865 45.2178H43.2715V51.7787H54.9865V45.2178Z" fill="white"/>
</mask>
<g mask="url(#mask10_61_6061)">
<path d="M54.3561 49.604C54.615 49.1197 54.8589 48.4934 54.9771 47.2369C55.0277 46.704 54.9002 46.1973 54.4893 45.5822C54.281 45.2718 54.1159 45.1671 53.75 45.2419C53.5587 45.2812 53.4104 45.4233 53.266 45.5541C51.3841 47.2668 48.7293 47.8502 46.1852 48.0259C45.6823 48.0615 43.2208 47.2201 43.2733 47.9399C43.3183 48.57 45.2227 50.2659 45.6917 50.5632C47.1308 51.4738 52.4292 53.1902 54.3561 49.6059" fill="#F0CDB7"/>
</g>
</g>
<path d="M51.1757 31.9724C52.3221 30.8917 53.2151 29.5679 53.9581 28.1937C54.7386 26.6792 55.4666 24.4542 57.6467 25.3329L57.3709 26.0285C55.7255 25.2918 55.202 27.3822 54.4928 28.4853C53.6917 29.9007 52.596 31.1572 51.2226 32.0397L51.1738 31.9724" fill="black"/>
<path d="M36.9807 35.2074C35.4178 35.0784 33.9244 34.4689 32.596 33.6574C31.9374 33.2498 31.3164 32.7824 30.6879 32.5318C30.0368 32.2551 29.534 32.4402 29.0875 32.9675L28.5059 32.4944C29.9261 30.6957 31.5828 32.0737 32.9994 33.0366C34.2471 33.8649 35.5398 34.6876 36.9901 35.127L36.9807 35.2074Z" fill="black"/>
<path d="M35.2335 34.6855C35.2335 34.6855 34.2185 37.3536 31.0833 35.884C30.2071 34.5509 29.7456 33.1261 29.9313 32.3913C30.5767 32.4829 29.7925 31.5125 35.2354 34.6874" fill="black"/>
<path d="M52.8984 30.5215C52.8984 30.5215 55.1799 32.2454 57.0542 29.3398C57.0861 27.7467 56.7184 26.2958 56.1705 25.7686C55.6715 26.1874 55.8197 24.9496 52.8984 30.5196" fill="black"/>
<g style="mix-blend-mode:darken">
<mask id="mask11_61_6061" style="mask-type:luminance" maskUnits="userSpaceOnUse" x="40" y="60" width="15" height="11">
<path d="M54.0068 60.8789H40.9746V70.5268H54.0068V60.8789Z" fill="white"/>
</mask>
<g mask="url(#mask11_61_6061)">
<path d="M42.0253 65.452C41.8602 65.9606 41.4437 66.7384 40.9746 67.1254C41.9934 67.0581 42.9671 66.9273 43.8433 66.4019C44.5075 66.0036 45.1398 65.2389 45.5638 64.5901C45.5 65.8989 46.6182 66.3869 46.4531 67.6882C46.3593 68.4305 46.6107 69.1597 45.8302 70.5265C46.7346 70.5265 47.9128 70.1058 48.8247 69.3112C50.2862 68.0398 50.4119 66.3177 50.3406 65.2239C51.547 65.5474 52.8604 65.4539 54.0086 64.9603C53.3538 64.3395 52.4289 62.984 51.8641 62.2809C51.5977 61.95 51.3332 61.6022 50.9729 61.376C50.5376 61.103 50.0067 61.0357 49.4926 60.9927C48.6708 60.9216 47.8453 60.8917 47.0197 60.8805C46.7608 60.8767 46.5 60.8749 46.2486 60.9328C46.0385 60.9796 45.8396 61.0675 45.6407 61.1553C44.8265 61.5143 44.0141 61.8715 43.1998 62.2286C42.8752 62.3725 42.6651 63.4701 42.0253 65.452Z" fill="#F0CDB7"/>
</g>
</g>
<path d="M43.9484 54.4394C43.8021 53.7121 44.485 53.0277 45.2167 52.8931C45.9485 52.7585 46.6896 53.0184 47.3838 53.2858C47.7515 53.4279 48.1267 53.5774 48.4232 53.8336C49.0855 54.4039 49.2243 55.3537 49.3726 56.2138C49.8135 58.7922 50.7835 61.4098 52.7722 63.1169C51.6728 63.5974 50.32 63.4404 49.3613 62.7224C49.6577 63.1487 49.5133 63.7283 49.3575 64.2238C49.1249 64.9586 48.881 65.7065 48.4269 66.331C47.8847 67.0733 47.0873 67.5837 46.3106 68.0736C46.2149 66.4263 45.9466 64.7884 45.5076 63.1973C44.7665 63.1337 44.0497 63.4235 43.3424 63.6516C42.6351 63.8797 41.8452 64.0443 41.166 63.7451C41.4137 63.4104 41.6613 63.0739 41.9071 62.7392C42.076 62.5111 42.2448 62.2811 42.3649 62.0231C42.4925 61.7482 42.56 61.4491 42.6257 61.1537C42.9991 59.4746 43.3743 57.7956 43.7496 56.1166C43.849 55.6734 43.9484 55.2284 43.9953 54.7778C44.0497 54.273 44.0535 53.7251 44.3649 53.3232" fill="#FFF4D6"/>
<g style="mix-blend-mode:darken">
<mask id="mask12_61_6061" style="mask-type:luminance" maskUnits="userSpaceOnUse" x="25" y="7" width="13" height="76">
<path d="M37.9405 7.19824H25.4355V82.9791H37.9405V7.19824Z" fill="white"/>
</mask>
<g mask="url(#mask12_61_6061)">
<path d="M28.3645 10.1808C28.4996 14.4195 29.6197 15.9602 30.9143 18.46C31.6854 19.9502 32.95 21.1843 33.5579 22.7492C34.1658 24.3123 33.7661 24.9612 33.2971 25.8343C32.9613 26.4588 30.1619 30.346 30.3327 32.0251C30.6648 35.2803 34.4209 33.8013 33.5598 38.7636C33.3759 39.8182 32.9312 41.3738 33.1188 42.4283C33.4172 44.1074 34.3778 45.6013 34.7924 47.256C35.2071 48.9108 34.83 51.0198 33.2596 51.7004C34.3534 51.5116 35.314 50.6926 35.6724 49.6456C35.8262 52.0201 34.3459 54.4134 32.1507 55.3464C33.8768 54.8248 35.7043 54.7107 37.9426 50.9282C38.0214 55.3838 35.4679 63.6444 29.312 67.6419C30.2032 67.6625 31.3627 68.0738 33.3553 66.4546C32.6554 68.6459 32.4059 78.2303 36.0082 82.6728C34.1695 82.6728 31.8974 82.9495 29.7642 82.9794C28.7661 81.5603 28.6722 73.7447 29.207 72.0956C29.4058 71.4842 29.5991 70.6092 28.9987 70.3717C28.8542 70.3156 28.6948 70.3175 28.5409 70.3231L25.4414 70.4035C26.2876 70.2203 28.9049 66.0881 29.222 65.286C29.4677 64.6634 30.7173 60.9482 30.6704 58.8634C29.5841 59.142 28.0118 59.1121 26.9705 58.7008C28.3439 57.0516 30.1788 55.2511 31.2971 53.4206C30.6629 53.4281 29.4208 52.9214 28.7867 52.9288C30.4659 52.5063 32.0419 51.4106 32.5654 49.7652C33.2277 47.6861 30.8693 44.3187 31.04 41.8132C31.0907 41.0802 32.0851 39.4049 32.07 38.672C32.0475 37.6231 29.4002 33.3526 29.2201 32.3186C28.7679 29.7365 31.3158 28.5866 30.6704 26.0475C30.1301 23.9272 28.4959 23.1886 27.5184 21.231C26.1506 18.4937 25.6046 15.0739 25.4545 12.0375C25.402 10.9885 26.1093 8.24934 26.8786 7.46966C28.0006 6.33285 28.3345 9.06455 28.3702 10.1808" fill="#F0CDB7"/>
</g>
</g>
<path d="M27.9553 8.18945C26.4375 16.2593 25.5894 19.8604 33.7003 24.1197C33.7003 23.3082 33.4695 22.9717 32.9423 22.2518C29.3812 17.7027 27.9666 15.1169 28.1655 9.25895" fill="#EF9C8B"/>
<path d="M33.5577 23.9512C33.5577 23.9512 32.4827 22.3208 30.5464 21.586C31.2538 21.4645 31.7772 21.7393 31.7772 21.7393C31.7772 21.7393 30.2087 20.0846 28.8879 19.3797C29.5952 19.3797 30.7022 19.9612 30.7022 19.9612C30.7022 19.9612 29.1036 17.9998 28.2725 17.4482C29.3175 17.7848 30.4188 18.2653 30.4188 18.2653L32.9348 21.9001C33.1243 22.1731 33.2557 22.4797 33.3213 22.8051L33.5577 23.9512Z" fill="#3C1332"/>
<path d="M33.6392 24.8958C33.7761 23.1476 32.7367 21.9958 31.763 20.6571C29.217 17.2429 28.2301 14.5916 27.8717 10.3641C27.7985 9.56949 27.9017 8.74493 27.6128 8.03629C27.4683 7.72404 27.2995 7.64178 26.9599 7.73713L26.791 7.20239C27.3407 6.99671 27.9261 7.24726 28.1475 7.79136C28.5002 8.61218 28.4008 9.48348 28.4796 10.3006C28.5228 10.7044 28.5715 11.1064 28.6222 11.5084C28.8267 13.1145 29.1307 14.7057 29.7648 16.1716C30.399 17.6431 31.2451 19.0342 32.1795 20.3617C33.0257 21.6481 34.5942 23.2598 33.6936 24.9014L33.6392 24.8939" fill="#3C1332"/>
<path d="M56.7013 28.5246C56.7482 28.2909 56.8514 28.2367 56.8664 28.3021C56.8851 28.3788 56.8795 28.6517 56.8701 28.7564C56.8382 29.1566 56.7951 29.2893 56.69 29.4483C56.5549 29.6521 56.3317 29.71 56.251 29.5773C56.4236 29.2987 56.6168 28.9341 56.6994 28.5227" fill="white"/>
<path d="M33.8133 34.8038C33.7138 34.9067 33.6144 35.0095 33.5131 35.1123C33.4286 35.2002 33.3367 35.3049 33.3536 35.4246C33.6838 35.4115 33.9877 35.1497 34.0478 34.8244C34.0046 34.7702 33.9221 34.7608 33.8583 34.7851C33.7926 34.8094 33.742 34.8581 33.6913 34.9067C33.6294 34.9665 33.5694 35.0245 33.5074 35.0843" fill="white"/>
<g style="mix-blend-mode:darken">
<mask id="mask13_61_6061" style="mask-type:luminance" maskUnits="userSpaceOnUse" x="54" y="51" width="16" height="38">
<path d="M69.4651 51.416H54.6299V88.6595H69.4651V51.416Z" fill="white"/>
</mask>
<g mask="url(#mask13_61_6061)">
<path d="M59.5359 55.1801C58.7967 54.105 58.2357 52.9981 57.6541 51.8276C58.6128 52.9345 59.9993 53.7647 60.7592 54.1723C61.2545 54.4378 62.3671 56.9956 63.7349 58.4073C65.5923 60.3219 67.3766 60.9052 63.3634 60.6865C62.9319 60.664 62.4103 60.737 62.0894 61.0268C63.0426 61.9766 64.5191 64.1081 67.8213 65.9648C67.5867 65.7759 66.4591 67.139 64.3784 66.636C65.0445 75.7043 69.7725 83.7012 69.4461 83.7816C69.3279 83.8115 65.446 85.4158 63.0125 86.3862C60.5716 87.3584 59.0068 89.432 55.9148 88.3681C61.2189 87.035 63.5229 74.216 61.5059 67.6606C61.0669 66.234 60.3502 64.325 59.0894 61.3484C59.7686 61.9953 61.1194 62.5188 62.0575 62.5899C60.8061 61.5877 59.2657 59.9199 58.444 58.5456C55.7685 54.7912 54.5621 51.5808 54.6296 51.4219C55.4251 52.5269 57.9993 54.9314 59.4346 55.4605C59.4346 55.4605 59.7779 55.5765 59.7779 55.511C59.7779 55.4587 59.6954 55.4213 59.5322 55.1857" fill="#F0CDB7"/>
</g>
</g>
<g style="mix-blend-mode:darken">
<mask id="mask14_61_6061" style="mask-type:luminance" maskUnits="userSpaceOnUse" x="55" y="29" width="6" height="25">
<path d="M60.6616 29.748H55.0986V53.2396H60.6616V29.748Z" fill="white"/>
</mask>
<g mask="url(#mask14_61_6061)">
<path d="M56.5844 36.5891C56.9015 39.5508 55.4981 42.5087 55.8883 45.461C56.2936 48.5274 58.5301 50.9899 60.6614 53.2392C58.7477 49.3426 58.0741 44.8515 58.7646 40.5679C58.9297 39.5414 59.4625 38.4906 59.1642 37.494C58.9316 36.7144 57.9878 34.2164 57.5113 33.5563C56.8583 32.6514 57.8377 31.2453 56.8039 29.972C56.3649 29.4317 56.196 29.9533 55.7401 30.6825C55.4418 31.1612 54.7589 32.5467 55.3048 33.7545C55.7833 34.8147 56.4531 35.3438 56.5863 36.5928" fill="#F0CDB7"/>
</g>
</g>
<path d="M40.4925 22.1566C40.4681 22.738 40.4681 22.968 40.6407 23.5103C41.0685 22.5081 41.9203 21.5433 43.2543 21.0684C43.0197 21.7826 42.9147 22.4856 42.986 23.0653C43.4212 22.6838 44.228 21.6125 46.0461 21.4274C45.3425 22.8297 46.0761 23.4261 46.26 23.6916C46.4795 24.0076 46.8059 24.619 46.6708 24.9855C46.5358 25.352 46.0104 25.4529 45.7121 25.7053C44.4006 26.8141 42.5263 27.2236 40.8696 26.7655C38.5975 26.1354 39.0609 23.2915 40.4925 22.1566Z" fill="#FFF4D6"/>
<path d="M53.4119 63.0741C51.3125 61.784 50.1567 59.4356 49.562 57.1133C49.3574 56.315 49.2073 55.4997 49.1023 54.6789L49.0535 54.6827C49.1004 55.511 49.1923 56.3393 49.3424 57.1619C49.6483 58.8167 50.1961 60.449 51.1736 61.8457C51.502 62.3168 51.8903 62.7581 52.3237 63.1508C51.4776 63.2218 50.607 63.0685 49.879 62.6441L49.1586 62.1916L49.2993 63.0199C49.5432 64.9158 48.2205 66.9987 46.485 67.8139C46.5807 66.5593 46.5694 65.271 46.3142 64.0333C46.1867 63.377 45.9897 62.7151 45.802 62.0775C44.4512 63.2442 43.226 63.7603 41.5618 63.6331C43.6012 61.0585 44.0459 57.4536 43.9127 54.2676C43.8151 57.5396 43.0665 61.3446 40.5637 63.6481L40.0439 64.1754L40.7625 64.2876C42.4192 64.5867 44.0253 64.295 45.3893 63.3452C45.8227 64.9738 45.8752 66.6547 45.6838 68.3393L45.6294 68.8909L46.1623 68.7357C48.2993 68.0925 50.031 65.8245 50.076 63.5696C50.4813 63.7304 50.9053 63.8313 51.3462 63.8837C52.2618 64.0127 53.2168 63.7715 54.1043 63.5546L53.4101 63.0741" fill="#3C1332"/>
<g style="mix-blend-mode:overlay" opacity="0.2">
<mask id="mask15_61_6061" style="mask-type:luminance" maskUnits="userSpaceOnUse" x="26" y="24" width="34" height="9">
<path d="M59.2713 24.793H26.7021V32.386H59.2713V24.793Z" fill="white"/>
</mask>
<g mask="url(#mask15_61_6061)">
<path d="M41.2991 27.3583C41.4961 27.1396 41.7531 26.889 42.0364 26.8068C42.5674 26.6535 43.0608 26.7376 43.3272 26.8535C46.7382 28.3157 49.9653 30.0396 53.5151 28.9532C55.8941 28.224 57.8285 26.8142 59.2713 24.7949C52.1754 24.9894 46.0252 25.9654 39.0776 27.1228C37.4228 27.3976 36.0063 27.7734 34.0475 28.2053C32.9874 28.4391 28.3776 29.6525 26.7021 30.1779C27.1637 31.9355 32.1131 32.4721 33.4077 32.3786C36.8712 32.1281 39.1377 29.7797 41.2991 27.3602" fill="#FFF4D6"/>
</g>
</g>
<path d="M37.9727 19.2585C38.1959 19.0865 38.4286 18.9257 38.6368 18.7369C39.0928 18.3218 39.4267 17.7721 39.9464 17.4412C39.8883 18.1704 39.7063 18.8902 39.408 19.5596C40.3179 18.3966 41.7476 17.7889 42.9821 16.9756C42.5394 17.8394 42.181 18.7481 41.9202 19.683C42.1998 19.5858 42.408 19.3576 42.6388 19.1725C42.9878 18.8939 43.4005 18.7088 43.8077 18.5256C45.0141 17.9853 46.2505 17.4393 47.5695 17.3495C46.804 18.017 46.1867 18.8491 45.7721 19.7746C45.5994 20.1598 45.4381 20.5898 45.0779 20.8104C44.9109 20.9133 44.7176 20.96 44.5281 21.0068C43.1153 21.362 41.7288 21.8257 40.3067 22.1417C38.8845 22.4577 37.4042 22.6222 35.9689 22.3717C35.4529 22.2819 35.8075 21.8743 35.967 21.6182C36.1152 21.3826 36.2147 21.1283 36.3779 20.8983C36.8207 20.2757 37.3704 19.7222 37.9745 19.2567" fill="#FFF4D6"/>
<path d="M48.6 16.7307C47.5644 17.7871 46.2717 18.7481 45.6656 20.1355C45.7763 19.2717 46.2135 18.4957 46.7201 17.7815C46.5362 17.8207 46.3561 17.8694 46.176 17.9198C45.7594 18.0376 45.3486 18.176 44.947 18.3387C44.4311 18.5443 43.9283 18.7855 43.4461 19.0604C42.7819 19.4175 42.1234 19.9279 41.5417 20.3898L41.6505 19.5521C41.7706 18.9407 42.0183 18.4078 42.311 17.8918C42.0633 18.0414 41.8175 18.1928 41.5774 18.3443C40.735 18.8734 39.8682 19.4792 39.052 20.0514C39.0989 19.7241 39.2678 19.0866 39.2246 18.7575C39.2321 18.5649 39.2621 18.3835 39.3109 18.2096C37.9957 19.2324 36.8869 20.5805 35.7705 21.7846C36.4534 20.3468 37.4497 19.0735 38.5867 17.961C39.1758 17.3589 40.0839 16.826 40.8194 16.3941L40.3822 17.4038C40.234 17.7796 40.0239 18.1816 39.9526 18.5668C40.977 17.8675 42.022 17.2037 43.1252 16.6166L44.2847 16.0127L43.583 17.1196C43.2904 17.6132 42.9489 18.1386 42.6918 18.6808C43.2678 18.3256 43.8663 18.0245 44.4949 17.7609C44.6037 17.7142 44.7125 17.6674 44.8232 17.6244C45.3542 17.415 45.9077 17.2523 46.4687 17.1215C47.176 16.9569 47.8964 16.8373 48.6 16.7307Z" fill="#3C1332"/>
<path d="M69.4496 87.4277H28.7734V88.8319H69.4496V87.4277Z" fill="#FFF4D6"/>
<path d="M42.0289 27.3489L42.0195 27.433L41.361 33.6686H41.3591L41.3291 33.9622C41.1996 35.1812 40.6443 36.3124 39.7906 37.223C38.8619 38.2177 37.5785 38.9525 36.102 39.2629L31.3514 40.2651C30.7135 40.4016 30.0831 40.1192 29.8354 39.6125C29.8129 39.5677 29.7941 39.5247 29.7791 39.4761L26.9667 30.9706L26.8616 30.6583C26.826 30.5536 26.7903 30.4433 26.7547 30.3386L26.7021 30.1759C27.9273 29.8394 32.3908 28.5848 34.5409 28.0855C34.6742 28.0538 34.8168 28.022 34.9706 27.9902C36.7155 27.6069 39.7399 27.0404 41.8619 26.6533C41.9914 26.8534 42.057 27.0908 42.0289 27.3489Z" fill="#3C1332"/>
<path d="M59.2714 24.793L59.2789 25.6381L59.3671 34.5923C59.3746 35.2168 58.838 35.7628 58.1344 35.845L53.3144 36.4228C51.4232 36.6509 49.6014 36.1405 48.2693 35.1009C47.577 34.5624 47.0197 33.8799 46.6501 33.0853L46.0272 31.7447L44.0741 27.5321L43.8883 27.132L43.8508 27.0498C43.7364 26.8029 43.7251 26.5449 43.7926 26.3075C44.076 26.257 44.2467 26.2271 44.2654 26.2252C44.4024 26.2046 44.5431 26.1841 44.6782 26.1616C45.9559 25.9672 47.1736 25.8045 48.3274 25.6624C48.3274 25.6624 48.4813 25.6456 48.7365 25.6157C49.5432 25.524 51.3369 25.3221 52.2375 25.2361C52.3726 25.223 52.5076 25.2118 52.639 25.1987H52.6408C55.8792 24.9052 58.277 24.8191 59.2714 24.793Z" fill="#3C1332"/>
<path d="M59.6558 24.7813C59.6032 24.7813 59.5394 24.7851 59.2711 24.7926C58.2768 24.8187 55.8771 24.9047 52.6406 25.1983H52.6387C52.5074 25.2114 52.3742 25.2226 52.2372 25.2357C51.3348 25.3198 49.5411 25.5236 48.7362 25.6152C48.4811 25.6433 48.3272 25.6601 48.3272 25.6601C47.1733 25.8041 45.9557 25.9668 44.678 26.1593C44.5429 26.1799 44.4022 26.2023 44.2652 26.2229C44.2465 26.2248 44.0757 26.2547 43.7924 26.3052C43.3665 26.38 42.6817 26.5034 41.8637 26.6511C39.7398 27.0381 36.7172 27.6028 34.9724 27.988C34.8185 28.0197 34.6759 28.0515 34.5427 28.0833C32.3907 28.5825 27.9291 29.8371 26.7039 30.1737C26.5238 30.2242 26.415 30.256 26.3906 30.2597C26.3887 30.2503 26.3418 29.0761 26.3418 29.0761C26.3418 29.0761 29.931 27.9225 35.5484 26.6791C38.342 26.0602 41.6367 25.4171 45.2427 24.8823C46.5542 24.6878 47.9088 24.5084 49.2935 24.3494C50.3329 24.2279 51.3892 24.1194 52.4605 24.026L53.1885 23.9643C55.1754 23.8016 57.2073 23.6875 59.2618 23.6445C59.4325 24.1456 59.5601 24.514 59.6576 24.7795" fill="#3C1332"/>
<path d="M44.6262 25.8301L40.9248 26.5498L41.265 28.2877L44.9664 27.568L44.6262 25.8301Z" fill="#3C1332"/>
<g opacity="0.4">
<mask id="mask16_61_6061" style="mask-type:luminance" maskUnits="userSpaceOnUse" x="30" y="26" width="15" height="14">
<path d="M44.6778 26.1592H30.291V39.5223H44.6778V26.1592Z" fill="white"/>
</mask>
<g mask="url(#mask16_61_6061)">
<path d="M44.6758 26.1591L44.2743 27.0697L44.0698 27.5296L41.3606 33.668H41.3587L41.2067 34.7095C41.0078 35.4536 40.7639 35.979 40.323 36.611L39.7883 37.2224C38.8596 38.2152 37.9628 38.1778 36.4862 38.4882L31.7356 39.4904C31.0977 39.6269 30.2966 39.2903 30.2891 38.6808L34.5518 28.9282L34.9702 27.9858C36.7151 27.6025 39.7395 27.036 41.8615 26.649C42.6795 26.4994 43.3644 26.3779 43.7903 26.3031C44.0736 26.2526 44.2443 26.2227 44.2631 26.2208C44.4 26.2002 44.5407 26.1797 44.6758 26.1572" fill="#FF0092"/>
</g>
</g>
<g opacity="0.4">
<mask id="mask17_61_6061" style="mask-type:luminance" maskUnits="userSpaceOnUse" x="46" y="25" width="7" height="11">
<path d="M52.6371 25.1982H46.0254V35.0986H52.6371V25.1982Z" fill="white"/>
</mask>
<g mask="url(#mask17_61_6061)">
<path d="M52.6391 25.1982L52.2507 26.0826L48.2694 35.0986C47.5771 34.5601 47.0199 33.8776 46.6502 33.083L46.0273 31.7424L48.3388 26.5071H48.3407L48.7366 25.6152C49.5415 25.5236 51.337 25.3198 52.2376 25.2356C52.3727 25.2225 52.5078 25.2113 52.6391 25.1982Z" fill="#FF0092"/>
</g>
</g>
<g opacity="0.35">
<mask id="mask18_61_6061" style="mask-type:luminance" maskUnits="userSpaceOnUse" x="46" y="24" width="3" height="2">
<path d="M48.3028 24.4639H46.2559V25.7989H48.3028V24.4639Z" fill="white"/>
</mask>
<g mask="url(#mask18_61_6061)">
<path d="M46.2559 25.7989C46.8244 25.7297 47.132 25.6923 47.6274 25.6212C47.8544 25.251 47.9613 25.0397 48.3047 24.4639C47.9182 24.5162 47.3178 24.5704 46.8731 24.6247C46.6405 25.0323 46.4604 25.4137 46.2577 25.7989" fill="#FFF4D6"/>
</g>
</g>
<path d="M42.3779 42.2674C42.3779 42.2674 40.2465 48.0748 46.4511 49.1966C50.1173 49.8567 56.123 46.4556 53.4813 41.0015C53.4813 41.0015 52.7177 39.2664 50.4981 37.9482" fill="#E8A68B"/>
<path d="M47.4063 49.5593C47.063 49.5593 46.7272 49.5312 46.4026 49.4733C44.4701 49.1236 43.1155 48.2953 42.3743 47.0089C41.1454 44.8718 42.0742 42.2822 42.1136 42.1719L42.6426 42.3645C42.6333 42.3888 41.7665 44.8251 42.864 46.7322C43.517 47.8672 44.7421 48.602 46.502 48.9217C48.427 49.2676 51.3445 48.4113 52.8943 46.3788C53.6973 45.3243 54.4084 43.5574 53.2282 41.123C53.217 41.0968 52.4608 39.4402 50.3539 38.1875L50.6428 37.7051C52.913 39.055 53.7066 40.8126 53.7404 40.8874C55.0388 43.5686 54.2414 45.5375 53.3427 46.7154C52.0425 48.4206 49.5884 49.5574 47.4063 49.5574" fill="#3C1332"/>
<path d="M45.1694 45.798C45.3758 45.8373 45.6403 46.0598 45.691 46.2636C45.4377 46.2318 45.0831 46.2374 44.8467 46.3365C44.7379 46.3814 44.7341 46.4057 44.7323 46.5235C44.7304 46.5927 44.7698 46.6544 44.8129 46.7086C45.2688 47.2807 46.4527 47.5032 47.1826 47.4322C47.9106 47.3611 48.6085 47.2546 48.8674 46.7871C49.0513 46.4562 48.586 46.4749 48.0982 46.3627C47.6385 46.258 46.4921 46.3496 46.2576 46.2636C47.4959 46.1477 49.6817 44.8295 50.4603 43.8647C50.5354 43.7712 50.616 43.6721 50.7305 43.6329C50.8862 43.5786 51.0176 43.1916 51.1639 43.2664C51.9463 43.6684 53.1489 44.1265 53.8431 44.665L53.5317 45.2726C52.2408 48.0754 48.965 48.971 47.4096 48.9691C46.207 48.9691 45.1769 48.5671 44.8148 48.4176C44.5709 48.2904 43.5896 47.8641 42.8279 46.6862C42.4583 46.1122 42.2088 44.6724 42.342 43.7993C42.4395 43.1542 44.3251 45.6372 45.1694 45.798Z" fill="#D68C72"/>
<path d="M42.2704 42.7894C42.2704 42.7894 42.9534 46.0296 46.1598 46.0259C49.3681 46.024 54.1168 41.2356 50.3813 38.1094H50.3344C49.946 38.1094 49.5839 38.2982 49.3606 38.6161L48.2518 40.1998C48.0886 40.4316 47.9084 40.6504 47.7096 40.8542C47.4056 41.1645 47.0172 41.3796 46.5913 41.4693L46.4675 41.4955C45.5726 41.6862 44.1373 40.8242 43.2686 40.5363L42.974 41.0823L42.2686 42.7894H42.2704Z" fill="#25253A"/>
<path d="M46.1568 46.3086C42.7665 46.3086 42.0048 42.8832 41.9973 42.8495L41.9785 42.7654L42.729 40.9517L43.1361 40.1982L43.3613 40.273C43.6221 40.359 43.9223 40.4918 44.2412 40.632C44.9636 40.948 45.8623 41.3425 46.412 41.2247L46.5358 41.1986C46.9073 41.1182 47.245 40.9331 47.5115 40.6619C47.6991 40.4712 47.8717 40.2618 48.0255 40.0431L49.1325 38.4594C49.4064 38.0667 49.8567 37.833 50.337 37.833H50.4871L50.5659 37.8985C51.9318 39.0409 52.3633 40.546 51.7836 42.1353C50.9881 44.3192 48.3088 46.3086 46.1625 46.3104H46.1587L46.1568 46.3086ZM42.5658 42.814C42.6934 43.3039 43.4626 45.7477 46.155 45.7477H46.1587C48.0968 45.7477 50.5246 43.9321 51.2507 41.9408C51.5941 41.0022 51.6973 39.6317 50.2789 38.3939C50.0031 38.4108 49.7498 38.551 49.5903 38.7772L48.4833 40.3609C48.3126 40.604 48.1193 40.8377 47.9111 41.0508C47.5677 41.4024 47.1325 41.6417 46.6503 41.7445L46.5264 41.7707C45.7966 41.9259 44.8491 41.5108 44.0123 41.1425C43.7966 41.0471 43.5883 40.9574 43.4026 40.8844L43.2299 41.2042L42.5658 42.814Z" fill="#3C1332"/>
<path d="M44.899 45.4763C44.899 45.4763 44.4637 44.62 45.0003 44.461C45.5369 44.3002 46.0529 44.5919 46.203 45.6801C45.6214 45.7138 44.9009 45.4763 44.9009 45.4763" fill="#F1F9FD"/>
<path d="M47.0795 45.5513C47.0795 45.5513 46.5129 44.4818 47.0551 44.2126C47.4754 44.0031 48.1096 43.8966 48.2728 45.0745C47.8 45.3737 47.0814 45.5513 47.0814 45.5513" fill="#F1F9FD"/>
<path d="M45.5431 42.0713C45.5431 42.0713 46.0309 42.9669 45.4661 43.2268C44.6425 43.6064 44.1753 42.9725 43.9858 41.7703C43.9295 41.415 45.5431 42.0732 45.5431 42.0732" fill="#F1F9FD"/>
<path d="M42.869 41.8223C42.869 41.8223 43.6269 43.3424 43.0453 43.5593C42.2686 43.8509 41.8446 43.735 41.6532 42.5328C41.5969 42.1794 42.869 41.8223 42.869 41.8223Z" fill="#F1F9FD"/>
<path d="M42.5499 27.0292C42.9458 27.0124 43.8201 27.1283 45.518 28.3642C48.0941 30.2396 51.9403 33.7846 51.5576 37.0585C50.6326 37.7111 48.5462 38.573 48.1278 39.7136C47.7094 40.8541 45.9477 42.234 44.8088 41.4468C43.67 40.6597 43.2328 38.9806 43.2328 38.9806C43.2328 38.9806 43.5762 42.0919 42.017 42.2508C40.4598 42.4098 38.5817 42.5332 38.5817 42.5332C38.5817 42.5332 35.349 41.1365 36.1239 39.2686C36.6098 38.1 38.3228 35.0056 39.4579 32.085C41.2328 27.5154 41.5986 27.0255 42.5499 27.0273" fill="#E8A68B"/>
<path d="M36.9856 41.7928C36.5222 41.4861 35.8974 40.4634 36.0982 39.9455C36.1357 39.8482 36.1357 39.3771 36.2201 39.3154C36.4228 39.1676 36.5428 39.7155 36.661 39.9342C37.4303 41.3422 39.7849 40.7513 40.8394 40.3082C43.4998 39.1882 41.5054 38.5058 42.2934 37.9991C42.8432 37.6457 43.5467 37.6457 44.1997 37.698C44.2578 37.7018 44.3197 37.7092 44.3648 37.7466C44.4886 37.8513 44.3648 38.0421 44.3404 38.201C44.3066 38.3954 44.4323 38.5824 44.5599 38.7339C44.77 38.9807 45.1997 39.4014 45.8338 39.4014C46.1866 39.4014 46.695 39.4014 47.1622 38.8442C48.0872 37.741 50.1003 36.3724 51.545 36.0508C51.5825 37.5279 51.014 37.3989 49.6519 37.913C49.2523 38.0645 48.9859 38.4609 48.742 38.8087C48.3742 39.3341 48.3386 40.052 47.9108 40.5288C47.6463 40.8224 46.9164 41.6282 46.5468 41.7685C45.3742 42.2153 44.3404 42.3612 43.2709 40.5382C42.8225 42.9726 40.2352 43.2119 38.7061 42.6491C37.6536 42.2602 37.783 42.4079 36.9838 41.933" fill="#D68C72"/>
<path d="M51.907 36.004C51.7381 34.5082 50.9389 33.1732 49.9689 32.0589C48.6762 30.608 47.1433 29.4113 45.5185 28.3643C47.057 29.4936 48.5261 30.7706 49.6556 32.3094C50.4604 33.4257 51.2353 34.669 51.4004 36.0545C51.4342 36.3986 51.4492 36.8753 51.2372 37.1352C50.1152 37.3241 49.1152 37.9187 48.6537 38.9938C48.4154 39.4818 48.2597 39.996 48.027 40.4372C47.7756 40.8729 47.3703 41.1571 46.9782 41.3814C46.1527 41.8526 44.7136 41.8321 44.1226 41.0318C43.8299 40.2428 43.7211 39.3715 43.5429 38.5432L42.9444 38.588C42.9106 39.6594 42.8674 40.828 42.4209 41.8096C42.2708 42.0826 41.9537 42.1854 41.6573 42.3088C39.7323 43.0081 36.8373 42.636 36.3551 40.3101C36.2932 39.6071 36.5821 38.8872 36.8279 38.216C37.3851 36.8024 38.0981 35.4618 38.7604 34.0876C39.5991 32.2664 40.3458 30.2957 40.995 28.3998C40.0644 30.1704 39.342 32.1468 38.4583 33.938C37.5578 35.7722 36.4377 37.5335 35.9348 39.5397C35.6553 40.6261 36.3045 41.7965 37.19 42.4229C38.6441 43.4326 41.1338 43.4176 42.6104 42.4584C42.9819 42.1742 43.2033 41.5366 43.3365 40.8355C43.3909 41.0524 43.4622 41.2655 43.5785 41.4562C44.4115 42.5463 46.1996 42.5856 47.3084 41.9461C48.5467 41.215 48.5861 39.564 49.4079 38.5319C49.8938 37.943 50.6312 37.698 51.3817 37.584C51.9539 37.3278 51.9408 36.522 51.9108 36.0022" fill="#3C1332"/>
<path d="M43.2539 38.4781C43.2539 38.4781 43.8468 38.2407 44.3647 37.5619C44.7493 37.059 44.9238 36.7523 45.6911 36.2288C46.4829 35.6885 46.9332 35.6791 47.5242 35.7296C48.1152 35.7801 48.2184 36.2288 47.4323 36.9225C46.603 37.6517 44.3121 39.1045 42.419 38.8539C40.8224 38.6426 39.2764 38.4332 39.0231 37.9471C38.7698 37.461 39.0944 37.3806 39.4302 37.2385C39.828 37.0721 40.4002 37.3544 41.1376 37.6984C42.3252 38.2519 42.7605 38.4725 43.2539 38.4762" fill="#3C1332"/>
<path d="M45.2206 33.8168C45.3407 33.6541 45.4795 33.484 45.6765 33.4372C45.8041 33.4054 45.9373 33.4316 46.0649 33.4653C46.9636 33.7027 47.731 34.3852 48.0668 35.249C47.6916 34.8769 47.1062 34.7816 46.5846 34.8769C46.063 34.9723 45.5902 35.2322 45.1249 35.4865C44.7497 35.6921 44.3819 35.9165 43.986 36.0511C43.941 35.3481 44.821 34.4151 45.2206 33.8186" fill="#F9C1BD"/>
<path d="M39.6704 36.4806C40.0288 36.5254 40.3703 36.6582 40.708 36.7872C40.5429 36.5236 40.3796 36.2599 40.2145 35.9982C40.1733 35.9327 40.1301 35.8654 40.0644 35.8262C39.9838 35.7794 39.8824 35.7832 39.7886 35.7906C39.5747 35.8056 39.3458 35.8243 39.1732 35.9514C39.0625 36.0337 38.9875 36.1515 38.9143 36.2674C38.8393 36.3852 38.7567 36.5049 38.7061 36.6283C39.01 36.4843 39.3365 36.4376 39.6704 36.4787" fill="#F9C1BD"/>
<path d="M58.2507 39.5584C57.4514 40.0034 56.9542 40.7532 56.7516 41.2973C56.7047 41.4226 56.6334 41.4992 56.4964 41.6413C56.245 41.8993 55.9054 42.2509 55.5771 43.1857C55.2731 44.0477 55.4045 44.7844 55.624 45.3191C54.5414 44.7619 53.5076 44.0514 52.5676 43.4064C51.6577 42.7837 50.7984 42.1948 50.0554 41.8563C49.1154 41.4282 49.0516 40.8168 49.0685 40.5905C49.3725 40.0726 49.5882 39.4724 49.9128 38.9863C50.3462 38.3805 50.8584 37.9187 51.3256 38.0626L58.2526 39.5566L58.2507 39.5584Z" fill="#702A3A"/>
<path d="M53.8975 41.5253C54.738 41.8918 55.5786 42.2582 56.4191 42.6228C55.9819 42.836 55.9369 43.4306 55.9538 43.9148C55.9744 44.5206 55.997 45.1283 56.0176 45.7341C53.6705 44.5618 51.4396 43.1557 49.3702 41.5459C49.2238 41.4318 49.0775 41.3159 48.9706 41.1644C48.7435 40.8447 48.7304 40.1566 49.1019 39.9136C49.4677 39.6724 50.0062 39.9715 50.3683 40.0949C51.5691 40.5081 52.7342 41.0167 53.8994 41.5234" fill="#602E3B"/>
<path d="M50.7343 43.1069L50.6743 42.8508C50.6574 42.776 50.2502 40.9904 51.0795 39.6984C51.8394 38.5148 52.9126 37.9146 54.1884 37.9726L54.4529 37.9838L54.4304 38.5092L54.1659 38.498C53.0739 38.4494 52.1865 38.9505 51.5242 39.9807C50.815 41.0857 51.1827 42.7143 51.1865 42.7311L51.2465 42.9873L50.7324 43.1069H50.7343Z" fill="#3C1332"/>
<path d="M62.9144 42.4869C63.239 43.8574 62.7643 45.4429 61.7343 46.432C61.7267 46.4432 61.7192 46.4488 61.7099 46.4526C61.6723 46.49 61.6329 46.5199 61.5935 46.5517C60.601 47.2996 59.1282 46.7966 57.4227 46.1104C57.0681 45.8991 56.8242 45.7234 56.7492 45.6692C56.6197 45.5271 55.8974 44.6539 56.3214 43.446C56.5897 42.6757 56.8411 42.4177 57.0625 42.1877C57.2182 42.0269 57.3815 41.8586 57.4903 41.5725C57.4978 41.552 58.2483 39.6224 60.2839 40.0263C60.4003 40.0506 60.5185 40.0786 60.6423 40.1179C61.8337 40.4918 62.6386 41.3313 62.9125 42.485" fill="#99FFFF"/>
<path d="M63.686 42.3052C63.5152 41.5873 63.1813 40.9665 62.7066 40.4692C62.2319 39.9718 61.6146 39.596 60.8792 39.3679C60.7422 39.3249 51.5525 37.3111 51.5525 37.3111H51.5413C50.4718 36.9858 49.5825 37.9786 49.0065 38.9117C49.0009 38.9229 48.9934 38.9304 48.9915 38.9397C48.6857 39.4371 48.4718 39.9101 48.3705 40.1532C48.3442 40.213 48.3254 40.2579 48.3142 40.2878L48.2954 40.3458C48.2429 40.5832 48.0778 40.8599 48.1847 41.1666C48.4699 41.9799 55.9372 46.3626 56.3312 46.5234C56.3312 46.5234 58.9917 47.8285 60.1775 47.8285C60.8717 47.8285 61.5602 47.6359 62.1625 47.1124C62.1756 47.1011 62.1888 47.0918 62.2 47.0787C62.2263 47.0581 62.2563 47.032 62.2826 47.0058L62.3332 46.9553L62.5396 46.7365L62.5677 46.7048C63.5922 45.5268 64.0387 43.8104 63.6841 42.309M50.2579 41.9556C49.4155 41.3592 49.1003 41.0843 49.0647 40.7795C49.1866 40.1214 49.5863 39.4744 49.9108 38.9864C50.3442 38.3806 50.8564 37.9188 51.3236 38.0628L58.2506 39.5567C57.4513 40.0017 56.9541 40.7515 56.7515 41.2956C56.7046 41.4227 56.6333 41.4975 56.4963 41.6396C56.2449 41.8976 55.9053 42.2492 55.577 43.184C55.273 44.046 55.3162 44.7359 55.5338 45.2707C54.4513 44.7135 51.0516 42.5165 50.2579 41.9537M61.7347 46.4318C61.7272 46.443 61.7197 46.4486 61.7103 46.4523C61.6728 46.4897 61.6334 46.5234 61.594 46.5514C60.6015 47.2993 59.1287 46.7964 57.4232 46.1102C57.0686 45.8989 56.8247 45.7231 56.7496 45.6689C56.6202 45.5268 55.8978 44.6536 56.3218 43.4458C56.5901 42.6755 56.8416 42.4174 57.063 42.1875C57.2187 42.0267 57.3819 41.8584 57.4907 41.5723C57.4982 41.5517 58.2487 39.624 60.2844 40.026C60.4007 40.0503 60.5189 40.0784 60.6428 40.1176C61.8341 40.4916 62.639 41.3311 62.913 42.4847C63.2376 43.8553 62.7629 45.4408 61.7328 46.4299" fill="#3C1332"/>
<path d="M60.6052 45.0686C60.4213 45.0686 60.2524 45.0443 60.1211 45.0088L60.2187 44.6479C60.2637 44.6592 61.3481 44.9321 61.6446 44.001C61.8041 43.5018 61.6971 43.2288 61.5845 42.9409C61.4438 42.58 61.2994 42.2079 61.6915 41.5329C61.7965 41.3534 61.8153 41.1814 61.7515 41.0057C61.5545 40.4616 60.607 40.0128 60.2581 39.8857L60.3856 39.5342C60.4438 39.5547 61.8059 40.0577 62.1024 40.8767C62.2056 41.159 62.1755 41.4432 62.0142 41.7199C61.7121 42.2397 61.8041 42.4753 61.9316 42.8044C62.0498 43.1091 62.1981 43.4868 61.9992 44.1132C61.7609 44.8667 61.1249 45.0705 60.6033 45.0705" fill="#3C1332"/>
<path d="M58.9108 47.0377C58.5168 47.0377 58.2016 46.9124 58.1809 46.9049L58.3217 46.5572C58.3217 46.5572 58.9296 46.7928 59.4099 46.5572C59.6725 46.4282 59.8564 46.1776 59.9615 45.8111C60.1097 45.2876 59.9652 45.0053 59.7982 44.6781C59.6162 44.321 59.4099 43.9171 59.6106 43.2159C59.8939 42.2231 59.8433 41.4958 59.4643 41.0508C58.9521 40.4524 57.9802 40.5572 57.9708 40.5572L57.9258 40.1869C57.9746 40.1813 59.104 40.0561 59.7476 40.8058C60.2148 41.3518 60.2898 42.1951 59.9709 43.3169C59.8114 43.8778 59.9596 44.1695 60.1322 44.5079C60.3086 44.8557 60.5093 45.2484 60.3217 45.9121C60.1885 46.387 59.9352 46.7161 59.5731 46.8937C59.3517 47.0022 59.1209 47.0377 58.9108 47.0377Z" fill="#3C1332"/>
</g>
<defs>
<clipPath id="clip0_61_6061">
<rect width="97" height="89" fill="white"/>
</clipPath>
</defs>
</svg>
