<svg width="48" height="48" viewBox="0 0 48 48" fill="none" xmlns="http://www.w3.org/2000/svg">
<rect width="48" height="48" rx="15" fill="#FFF4D6"/>
<path d="M20.125 30H17.2188V20.6562H20.125V30ZM18.6562 19.4062C17.75 19.4062 17 18.625 17 17.6875C17 16.4062 18.375 15.5938 19.5 16.25C20.0312 16.5312 20.3438 17.0938 20.3438 17.6875C20.3438 18.625 19.5938 19.4062 18.6562 19.4062ZM30.9688 30H28.0938V25.4688C28.0938 24.375 28.0625 23 26.5625 23C25.0625 23 24.8438 24.1562 24.8438 25.375V30H21.9375V20.6562H24.7188V21.9375H24.75C25.1562 21.2188 26.0938 20.4375 27.5 20.4375C30.4375 20.4375 31 22.375 31 24.875V30H30.9688Z" fill="#8A0B58"/>
</svg>
