<svg width="127" height="40" viewBox="0 0 127 40" fill="none" xmlns="http://www.w3.org/2000/svg">
<g clip-path="url(#clip0_157_188)">
<path d="M68.7675 25.493C66.4783 33.0551 59.5827 38.5627 51.4531 38.5627C43.3234 38.5627 36.522 33.1227 34.1858 25.6281C33.8372 25.7245 33.4698 25.7824 33.093 25.7824C32.98 25.7824 32.8669 25.7535 32.7539 25.7438C35.1749 33.9811 42.6357 39.9999 51.4625 39.9999C60.2893 39.9999 67.7407 33.9908 70.1617 25.7631C69.6718 25.7438 69.2102 25.6474 68.7769 25.4834L68.7675 25.493Z" fill="white"/>
<path d="M33.1022 16.8122C33.2812 16.8122 33.4508 16.8411 33.6204 16.87C35.0805 8.13118 42.5131 1.45647 51.4623 1.45647C60.4115 1.45647 67.8818 8.16976 69.3136 16.9375C69.6245 16.8604 69.9542 16.8218 70.2933 16.8218C70.4441 16.8218 70.5854 16.8507 70.7361 16.87C69.2477 7.32096 61.184 0 51.4623 0C41.7406 0 33.6486 7.34989 32.1885 16.9086C32.4805 16.8411 32.7914 16.8122 33.1022 16.8122Z" fill="white"/>
<path d="M9.4956 25.7823H7.78112L6.82025 23.3516H2.60941L1.64854 25.7823H0L3.97534 16.0596H5.5391L9.50502 25.7823H9.4956ZM3.04274 22.088H6.36808L4.71012 17.8922L3.04274 22.088Z" fill="white"/>
<path d="M10.7858 25.7823V16.0596H17.5684V17.4485H12.3401V20.101H16.8901V21.4032H12.3401V24.3933H17.7002V25.7823H10.7764H10.7858Z" fill="white"/>
<path d="M19.6035 16.0596H23.7013C25.6701 16.0596 26.9984 17.3231 26.9984 19.1172C26.9984 20.5254 26.1412 21.6347 24.8129 22.0109L27.4035 25.7919H25.5759L23.1738 22.2231H21.1673V25.7919H19.6035V16.0692V16.0596ZM21.1673 17.4196V20.9595H23.5129C24.7093 20.9595 25.4441 20.2071 25.4441 19.1847C25.4441 18.1623 24.7093 17.4196 23.5129 17.4196H21.1673Z" fill="white"/>
<path d="M38.3964 20.8921C38.3964 23.699 36.2298 25.9175 33.4131 25.9175C30.5965 25.9175 28.4863 23.7472 28.4863 20.9404C28.4863 18.1335 30.6718 15.915 33.4696 15.915C36.2674 15.915 38.3964 18.0853 38.3964 20.8921ZM36.8421 20.9211C36.8421 18.9244 35.3914 17.3908 33.4508 17.3908C31.5102 17.3908 30.0595 18.9148 30.0595 20.9211C30.0595 22.9273 31.5291 24.4513 33.4508 24.4513C35.3725 24.4513 36.8421 22.9273 36.8421 20.9211Z" fill="white"/>
<path d="M63.4359 23.1204C63.4359 24.6926 62.1736 25.9272 60.1388 25.9272C57.8497 25.9272 56.6533 24.5383 56.6533 24.5383L57.5859 23.5062C57.5859 23.5062 58.6127 24.6058 60.2424 24.6058C61.2033 24.6058 61.8439 24.0367 61.8439 23.3036C61.8439 22.4838 61.2975 21.9533 59.4982 21.2877C58.104 20.7572 57.1243 19.8988 57.1243 18.5677C57.1243 17.0823 58.3772 15.9248 60.2895 15.9248C62.296 15.9248 63.3699 17.1016 63.3699 17.1016L62.4373 18.1433C62.4373 18.1433 61.6366 17.2366 60.3178 17.2366C59.2439 17.2366 58.7258 17.8636 58.7258 18.4134C58.7258 19.1368 59.2156 19.5901 60.6381 20.111C62.2395 20.68 63.4359 21.5674 63.4359 23.1107V23.1204Z" fill="white"/>
<path d="M74.7021 20.8921C74.7021 23.699 72.5354 25.9175 69.7188 25.9175C66.9021 25.9175 64.792 23.7472 64.792 20.9404C64.792 18.1335 66.9775 15.915 69.7753 15.915C72.5731 15.915 74.7021 18.0853 74.7021 20.8921ZM73.1383 20.9211C73.1383 18.9244 71.6876 17.3908 69.747 17.3908C67.8065 17.3908 66.3558 18.9148 66.3558 20.9211C66.3558 22.9273 67.8253 24.4513 69.747 24.4513C71.6688 24.4513 73.1383 22.9273 73.1383 20.9211Z" fill="white"/>
<path d="M76.5957 25.7823V16.0596H78.1595V24.3644H83.1145V25.7823H76.6051H76.5957Z" fill="white"/>
<path d="M92.2054 16.0596V21.7987C92.2054 24.2583 90.5663 25.9269 88.2395 25.9269C85.9127 25.9269 84.3301 24.3161 84.3301 21.8565V16.0596H85.9221V21.8083C85.9221 23.4095 86.9112 24.4512 88.296 24.4512C89.6808 24.4512 90.6699 23.4095 90.6699 21.8083V16.0596H92.2054Z" fill="white"/>
<path d="M98.065 17.4485V25.7823H96.5013V17.4485H93.5527V16.0596H101.014V17.4485H98.0556H98.065Z" fill="white"/>
<path d="M102.586 16.0596H104.197V25.7823H102.586V16.0596Z" fill="white"/>
<path d="M116.076 20.8921C116.076 23.699 113.909 25.9175 111.093 25.9175C108.276 25.9175 106.166 23.7472 106.166 20.9404C106.166 18.1335 108.352 15.915 111.149 15.915C113.947 15.915 116.076 18.0853 116.076 20.8921ZM114.512 20.9211C114.512 18.9244 113.062 17.3908 111.121 17.3908C109.18 17.3908 107.73 18.9148 107.73 20.9211C107.73 22.9273 109.199 24.4513 111.121 24.4513C113.043 24.4513 114.512 22.9273 114.512 20.9211Z" fill="white"/>
<path d="M119.505 18.4324V25.7823H117.97V16.0596H119.599L124.724 23.2841V16.0596H126.241V25.7823H124.724L119.496 18.4324H119.505Z" fill="white"/>
</g>
<defs>
<clipPath id="clip0_157_188">
<rect width="126.25" height="40" fill="white"/>
</clipPath>
</defs>
</svg>
