<svg width="49" height="48" viewBox="0 0 49 48" fill="none" xmlns="http://www.w3.org/2000/svg">
<rect x="0.333008" width="48" height="48" rx="15" fill="#FFF4D6"/>
<path d="M30.6768 20.75C30.6768 20.9062 30.6768 21.0312 30.6768 21.1875C30.6768 25.5312 27.3955 30.5 21.3643 30.5C19.4893 30.5 17.7705 29.9688 16.333 29.0312C16.583 29.0625 16.833 29.0938 17.1143 29.0938C18.6455 29.0938 20.0518 28.5625 21.1768 27.6875C19.7393 27.6562 18.5205 26.7188 18.1143 25.4062C18.333 25.4375 18.5205 25.4688 18.7393 25.4688C19.0205 25.4688 19.333 25.4062 19.583 25.3438C18.083 25.0312 16.958 23.7188 16.958 22.125V22.0938C17.3955 22.3438 17.9268 22.4688 18.458 22.5C17.5518 21.9062 16.9893 20.9062 16.9893 19.7812C16.9893 19.1562 17.1455 18.5938 17.4268 18.125C19.0518 20.0938 21.4893 21.4062 24.208 21.5625C24.1455 21.3125 24.1143 21.0625 24.1143 20.8125C24.1143 19 25.583 17.5312 27.3955 17.5312C28.333 17.5312 29.1768 17.9062 29.8018 18.5625C30.5205 18.4062 31.2393 18.125 31.8643 17.75C31.6143 18.5312 31.1143 19.1562 30.4268 19.5625C31.083 19.5 31.7393 19.3125 32.3018 19.0625C31.8643 19.7188 31.3018 20.2812 30.6768 20.75Z" fill="#8A0B58"/>
</svg>
